{
  "asset": {
    "version": "2.0",
    "generator": "THREE.GLTFExporter"
  },
  "scenes": [
    {
      "nodes": [
        0,
        1,
        5,
        6
      ],
      "name": "Scene"
    }
  ],
  "scene": 0,
  "nodes": [
    {
      "matrix": [
        0.2681735723152059,
        0.7727145017126489,
        -0.5753217995400846,
        0,
        0.30634273202441165,
        0.49779867334676453,
        0.8113880511438154,
        0,
        0.9133657562657405,
        -0.39383846669175426,
        -0.10321901755908414,
        0,
        8.547462463378906,
        10.916864395141602,
        -0.4252944588661194,
        1
      ],
      "name": "Light"
    },
    {
      "matrix": [
        0.6859206666375535,
        -4.011331711240018e-9,
        -0.7276763385868836,
        0,
        0.6515582236083066,
        0.4452714146389205,
        0.6141703952861253,
        0,
        0.32401347963873484,
        -0.8953956629320512,
        0.30542086411130853,
        0,
        7.358891487121582,
        4.958309173583984,
        6.925790786743164,
        1
      ],
      "name": "Camera"
    },
    {
      "name": "Cube.001_0",
      "mesh": 0
    },
    {
      "name": "Cube.001_1",
      "mesh": 1
    },
    {
      "name": "Cube.001_2",
      "mesh": 2
    },
    {
      "matrix": [
        0.928471028804779,
        0,
        0,
        0,
        0,
        4.597009658813477,
        0,
        0,
        0,
        0,
        3.0066566467285156,
        0,
        -1.526464581489563,
        8.212178230285645,
        0.1511913239955902,
        1
      ],
      "name": "Cube001",
      "children": [
        2,
        3,
        4
      ]
    },
    {
      "matrix": [
        0.6998007319467714,
        0.3254733265942775,
        -0.6358821037461198,
        0,
        -0.6547423102246057,
        0.6482005429377793,
        -0.3887782968042721,
        0,
        0.2856421596870504,
        0.688406253995371,
        0.6667123718367076,
        0,
        -8.720257759094238,
        16.748985290527344,
        -11.782957077026367,
        1
      ],
      "name": "Light001"
    }
  ],
  "bufferViews": [
    {
      "buffer": 0,
      "byteOffset": 0,
      "byteLength": 232440,
      "target": 34962,
      "byteStride": 12
    },
    {
      "buffer": 0,
      "byteOffset": 232440,
      "byteLength": 232440,
      "target": 34962,
      "byteStride": 12
    },
    {
      "buffer": 0,
      "byteOffset": 464880,
      "byteLength": 154960,
      "target": 34962,
      "byteStride": 8
    },
    {
      "buffer": 0,
      "byteOffset": 619840,
      "byteLength": 97080,
      "target": 34963
    },
    {
      "buffer": 0,
      "byteOffset": 716920,
      "byteLength": 87168,
      "target": 34962,
      "byteStride": 12
    },
    {
      "buffer": 0,
      "byteOffset": 804088,
      "byteLength": 87168,
      "target": 34962,
      "byteStride": 12
    },
    {
      "buffer": 0,
      "byteOffset": 891256,
      "byteLength": 58112,
      "target": 34962,
      "byteStride": 8
    },
    {
      "buffer": 0,
      "byteOffset": 949368,
      "byteLength": 32868,
      "target": 34963
    },
    {
      "buffer": 0,
      "byteOffset": 982236,
      "byteLength": 24036,
      "target": 34962,
      "byteStride": 12
    },
    {
      "buffer": 0,
      "byteOffset": 1006272,
      "byteLength": 24036,
      "target": 34962,
      "byteStride": 12
    },
    {
      "buffer": 0,
      "byteOffset": 1030308,
      "byteLength": 16024,
      "target": 34962,
      "byteStride": 8
    },
    {
      "buffer": 0,
      "byteOffset": 1046332,
      "byteLength": 8724,
      "target": 34963
    }
  ],
  "buffers": [
    {
      "byteLength": 1055056,
      "uri": "data:application/octet-stream;base64,"
    }
  ],
  "accessors": [
    {
      "bufferView": 0,
      "componentType": 5126,
      "count": 19370,
      "max": [
        4.986664295196533,
        0.9444444179534912,
        1.0199685096740723
      ],
      "min": [
        -1.0625476837158203,
        -1.7863479852676392,
        -1.0199685096740723
      ],
      "type": "VEC3"
    },
    {
      "bufferView": 1,
      "componentType": 5126,
      "count": 19370,
      "max": [
        1,
        1,
        1
      ],
      "min": [
        -1,
        -1,
        -1
      ],
      "type": "VEC3"
    },
    {
      "bufferView": 2,
      "componentType": 5126,
      "count": 19370,
      "max": [
        0.875,
        1
      ],
      "min": [
        0.1249999850988388,
        0
      ],
      "type": "VEC2"
    },
    {
      "bufferView": 3,
      "componentType": 5123,
      "count": 48540,
      "max": [
        19369
      ],
      "min": [
        0
      ],
      "type": "SCALAR"
    },
    {
      "bufferView": 4,
      "componentType": 5126,
      "count": 7264,
      "max": [
        4.986664295196533,
        1.000508427619934,
        1.0199685096740723
      ],
      "min": [
        -1.0625476837158203,
        -1.7863479852676392,
        -1.0199685096740723
      ],
      "type": "VEC3"
    },
    {
      "bufferView": 5,
      "componentType": 5126,
      "count": 7264,
      "max": [
        1,
        1,
        1
      ],
      "min": [
        -1,
        -1,
        -1
      ],
      "type": "VEC3"
    },
    {
      "bufferView": 6,
      "componentType": 5126,
      "count": 7264,
      "max": [
        0.8750000596046448,
        1
      ],
      "min": [
        0.125,
        0
      ],
      "type": "VEC2"
    },
    {
      "bufferView": 7,
      "componentType": 5123,
      "count": 16434,
      "max": [
        7263
      ],
      "min": [
        0
      ],
      "type": "SCALAR"
    },
    {
      "bufferView": 8,
      "componentType": 5126,
      "count": 2003,
      "max": [
        4.746438980102539,
        1.0470651388168335,
        0.9634559154510498
      ],
      "min": [
        -0.834409236907959,
        0.9990147352218628,
        -0.9633035659790039
      ],
      "type": "VEC3"
    },
    {
      "bufferView": 9,
      "componentType": 5126,
      "count": 2003,
      "max": [
        1,
        1,
        1
      ],
      "min": [
        -1,
        -0.03187908977270126,
        -1
      ],
      "type": "VEC3"
    },
    {
      "bufferView": 10,
      "componentType": 5126,
      "count": 2003,
      "max": [
        0.5972223281860352,
        0.9930555820465088
      ],
      "min": [
        0.3749999403953552,
        0.7569444179534912
      ],
      "type": "VEC2"
    },
    {
      "bufferView": 11,
      "componentType": 5123,
      "count": 4362,
      "max": [
        2002
      ],
      "min": [
        0
      ],
      "type": "SCALAR"
    }
  ],
  "materials": [
    {
      "pbrMetallicRoughness": {
        "baseColorFactor": [
          0.11831618845462799,
          0.07260207831859589,
          0.007046616170555353,
          1
        ],
        "metallicFactor": 0.09545457363128662,
        "roughnessFactor": 0.4000000059604645
      },
      "doubleSided": true,
      "name": "Base"
    },
    {
      "pbrMetallicRoughness": {
        "baseColorFactor": [
          0.6197896003723145,
          0.5369023084640503,
          0.5616326928138733,
          1
        ],
        "metallicFactor": 0.9136363863945007,
        "roughnessFactor": 0.5
      },
      "doubleSided": true,
      "name": "Border"
    },
    {
      "pbrMetallicRoughness": {
        "baseColorFactor": [
          0.1120041236281395,
          0.05909206345677376,
          0.030327575281262398,
          1
        ],
        "metallicFactor": 0,
        "roughnessFactor": 0.5
      },
      "doubleSided": true,
      "name": "Roof"
    }
  ],
  "meshes": [
    {
      "primitives": [
        {
          "mode": 4,
          "attributes": {
            "POSITION": 0,
            "NORMAL": 1,
            "TEXCOORD_0": 2
          },
          "indices": 3,
          "material": 0
        }
      ]
    },
    {
      "primitives": [
        {
          "mode": 4,
          "attributes": {
            "POSITION": 4,
            "NORMAL": 5,
            "TEXCOORD_0": 6
          },
          "indices": 7,
          "material": 1
        }
      ]
    },
    {
      "primitives": [
        {
          "mode": 4,
          "attributes": {
            "POSITION": 8,
            "NORMAL": 9,
            "TEXCOORD_0": 10
          },
          "indices": 11,
          "material": 2
        }
      ]
    }
  ]
}