<svg width="391" height="1068" viewBox="0 0 391 1068" fill="none" xmlns="http://www.w3.org/2000/svg">
<g opacity="0.4">
<mask id="mask0" mask-type="alpha" maskUnits="userSpaceOnUse" x="0" y="-523" width="391" height="1923">
<path d="M391 -49.5738L391 1200.58L6.85309e-05 1400L9.15527e-05 -523L391 -49.5738Z" fill="#C4C4C4"/>
</mask>
<g mask="url(#mask0)">
<path d="M21.9237 579.633L16.1205 585.422V542.991H15.357V564.397L10.9283 559.979V542.991H10.1647V559.217L4.5143 553.58V542.991H3.75073V1136.8H4.5143V1118.21L10.1647 1123.85V1136.8H10.9283V1124.61L15.357 1129.03V1136.8H16.1205V1129.79L21.9237 1135.58V1136.8H22.6872V542.991H21.9237V579.633ZM21.9237 580.699V587.098L21.8473 587.022L16.1205 592.735V586.413L21.9237 580.699ZM15.357 593.878V597.992L4.5143 587.098V582.985L15.357 593.878ZM15.357 773.963L10.9283 769.545V743.72L15.357 748.139V773.963ZM16.1205 748.901L21.9237 754.69V780.514L16.1205 774.725V748.901ZM10.9283 1069.31L15.357 1073.72V1092.69L10.9283 1088.27V1069.31ZM10.1647 817.08L4.5143 811.443V804.434L10.1647 810.072V817.08ZM10.1647 888.383L4.5143 882.745V876.042L10.1647 881.679V888.383ZM4.5143 874.975V854.94L10.1647 860.578V880.612L4.5143 874.975ZM4.5143 853.874V812.509L10.1647 818.146V859.511L4.5143 853.874ZM10.1647 889.449V915.045L4.5143 909.408V883.812L10.1647 889.449ZM10.9283 898.743L15.357 903.161V920.301L10.9283 915.883V898.743ZM21.9237 934.318L16.1205 940.107V903.999L21.9237 909.789V934.318ZM21.9237 1005.24L16.1205 999.45V948.563L21.9237 942.774V1005.24ZM16.1205 1045.54V1007.91L21.9237 1013.7V1051.33L16.1205 1045.54ZM21.9237 1052.39V1072.66L16.1205 1066.87V1046.68L21.9237 1052.39ZM16.1205 1006.84V1000.52L21.9237 1006.31V1012.63L16.1205 1006.84ZM15.357 995.794L10.9283 991.375V949.325L15.357 953.743V995.794ZM10.1647 990.614L4.5143 984.976V942.926L10.1647 948.563V990.614ZM10.1647 991.68L15.357 996.86V1000.97L4.5143 990.08V985.967L10.1647 991.68ZM10.9283 997.622L15.357 1002.04V1006.08L10.9283 1001.66V997.622ZM15.357 921.368V947.497L10.9283 943.078V916.949L15.357 921.368ZM15.357 948.563V952.677L4.5143 941.783V937.67L15.357 948.563ZM10.1647 996.86V1039.6L4.5143 1033.96V991.223L10.1647 996.86ZM10.9283 1002.73L15.357 1007.14V1044.78L10.9283 1040.36V1002.73ZM15.357 1045.92V1066.11L10.9283 1061.69V1041.42L15.357 1045.92ZM10.9283 1062.75L15.357 1067.17V1072.66L10.9283 1068.24V1062.75ZM16.1205 1067.93L21.9237 1073.72V1099.24L16.1205 1093.45V1067.93ZM21.9237 941.783L16.1205 947.497V941.174L21.9237 935.384V941.783ZM16.1205 902.856V895.391L21.9237 901.18V908.646L16.1205 902.856ZM15.357 902.095L10.9283 897.676V890.211L15.357 894.629V902.095ZM10.9283 889.144V881.374V860.273V818.908L15.357 823.327V893.563L10.9283 889.144ZM10.9283 817.842V809.767V777.163L15.357 781.581V822.26L10.9283 817.842ZM15.357 780.514L10.9283 776.096V770.611L15.357 775.03V780.514ZM10.1647 775.334L4.5143 769.697V737.321L10.1647 742.959V775.334ZM10.9283 742.654V734.655L15.357 739.074V747.072L10.9283 742.654ZM10.9283 733.589V714.62L15.357 719.039V738.007L10.9283 733.589ZM16.1205 690.853V653.221L21.9237 659.01V696.642L16.1205 690.853ZM21.9237 697.709V717.896L16.1205 712.107V691.919L21.9237 697.709ZM16.1205 652.154V645.832L21.9237 651.621V657.944L16.1205 652.154ZM10.1647 636.995L15.357 642.175V646.289L4.5143 635.395V631.282L10.1647 636.995ZM10.9283 642.937L15.357 647.355V651.393L10.9283 646.974V642.937ZM15.357 641.109L10.9283 636.69V594.64L15.357 599.058V641.109ZM10.1647 635.928L4.5143 630.291V588.165L10.1647 593.802V635.928ZM10.1647 642.175V684.911L4.5143 679.274V636.538L10.1647 642.175ZM10.9283 648.041L15.357 652.459V690.091L10.9283 685.673V648.041ZM15.357 691.158V711.345L10.9283 706.926V686.739L15.357 691.158ZM10.9283 708.069L15.357 712.487V717.972L10.9283 713.554V708.069ZM16.1205 713.249L21.9237 719.039V744.558L16.1205 738.769V713.249ZM21.9237 650.555L16.1205 644.765V593.878L21.9237 588.089V650.555ZM10.1647 685.977V712.716L4.5143 707.079V680.34L10.1647 685.977ZM10.1647 713.859V741.892L4.5143 736.255V708.221L10.1647 713.859ZM10.1647 776.401V809.005L4.5143 803.368V770.764L10.1647 776.401ZM10.1647 916.188V942.317L4.5143 936.679V910.55L10.1647 916.188ZM10.1647 1040.66V1067.4L4.5143 1061.76V1035.03L10.1647 1040.66ZM4.5143 1092.01L10.1647 1097.64V1114.71L4.5143 1109.07V1092.01ZM4.5143 1090.94V1062.91L10.1647 1068.54V1096.58L4.5143 1090.94ZM10.9283 1089.34L15.357 1093.76V1101.76L10.9283 1097.34V1089.34ZM16.1205 1094.52L21.9237 1100.31V1108.31L16.1205 1102.52V1094.52ZM16.1205 894.324V824.088L21.9237 829.878V900.114L16.1205 894.324ZM16.1205 823.022V775.791L21.9237 781.581V828.811L16.1205 823.022ZM16.1205 747.834V739.835L21.9237 745.625V753.624L16.1205 747.834ZM15.357 565.464V592.735L10.9283 588.317V561.045L15.357 565.464ZM10.1647 560.284V587.632L4.5143 581.994V554.57L10.1647 560.284ZM4.5143 1117.15V1110.14L10.1647 1115.77V1122.78L4.5143 1117.15ZM10.9283 1123.54V1115.47V1098.41L15.357 1102.82V1127.96L10.9283 1123.54ZM16.1205 1128.72V1103.59L21.9237 1109.38V1134.51L16.1205 1128.72Z" fill="#D2AD75"/>
<path d="M389.103 579.633L383.3 585.422V542.991H382.537V564.397L378.109 559.979V542.991H377.345V559.217L371.695 553.58V542.991H370.931V724.981H357.188V542.991H356.424V724.981H354.439V542.991H353.676V606.524H346.957V542.991H346.193V606.524H337.031V542.991H336.267V724.981H323.058V542.991H322.295V606.524H313.133V542.991H312.369V606.524H305.574V542.991H304.81V724.981H302.672V542.991H301.909V724.981H288.242V542.991H287.478V553.504L281.828 559.141V542.991H281.064V559.979L276.636 564.397V542.991H275.872V585.422L270.07 579.633V542.991H269.306V1136.8H270.07V1135.58L275.872 1129.79V1136.8H276.636V1129.03L281.064 1124.61V1136.8H281.828V1123.85L287.478 1118.21V1136.8H288.242V954.734H302.214V1136.72H302.978V954.734H304.963V1136.72H305.726V1073.19H312.445V1136.72H313.209V1073.19H322.371V1136.72H323.135V954.734H336.344V1136.72H337.107V1073.19H346.27V1136.72H347.033V1073.19H353.752V1136.72H354.516V954.734H356.653V1136.72H357.417V954.734H370.931V1136.8H371.695V1118.21L377.345 1123.85V1136.8H378.109V1124.61L382.537 1129.03V1136.8H383.3V1129.79L389.103 1135.58V1136.8H389.867V542.991H389.103V579.633ZM389.103 580.699V587.098L389.027 587.022L383.3 592.735V586.413L389.103 580.699ZM337.107 931.499H346.27V953.972H337.107V931.499ZM313.209 931.499H322.371V953.972H313.209V931.499ZM287.478 1109.07L281.828 1114.71V1097.64L287.478 1092.01V1109.07ZM287.478 1090.94L281.828 1096.58V1068.54L287.478 1062.91V1090.94ZM270.07 588.089L275.872 593.878V644.765L270.07 650.555V588.089ZM287.478 582.985V587.098L276.636 597.992V593.878L287.478 582.985ZM287.478 941.783L276.636 952.677V948.563L287.478 937.67V941.783ZM281.828 991.68L287.478 985.967V990.08L276.636 1000.97V996.86L281.828 991.68ZM281.064 1088.27L276.636 1092.69V1073.72L281.064 1069.31V1088.27ZM276.636 1072.66V1067.17L281.064 1062.75V1068.24L276.636 1072.66ZM281.064 1061.69L276.636 1066.11V1045.92L281.064 1041.5V1061.69ZM276.636 1044.78V1007.14L281.064 1002.73V1040.36L276.636 1044.78ZM276.636 599.058L281.064 594.64V636.69L276.636 641.109V599.058ZM276.636 642.175L281.828 636.995L287.478 631.358V635.471L276.636 646.365V642.175ZM281.828 642.175L287.478 636.538V679.274L281.828 684.911V642.175ZM287.478 630.215L281.828 635.852V593.802L287.478 588.165V630.215ZM276.636 647.355L281.064 642.937V646.974L276.636 651.393V647.355ZM281.064 648.041V685.673L276.636 690.091V652.459L281.064 648.041ZM281.064 686.739V707.003L276.636 711.421V691.234L281.064 686.739ZM281.064 708.069V713.554L276.636 717.972V712.487L281.064 708.069ZM276.636 719.039L281.064 714.62V733.589L276.636 738.007V719.039ZM281.064 734.655V742.654L276.636 747.072V739.074L281.064 734.655ZM281.064 743.72V769.545L276.636 773.963V748.139L281.064 743.72ZM287.478 769.697L281.828 775.334V742.959L287.478 737.321V769.697ZM281.064 770.611V776.096L276.636 780.514V775.03L281.064 770.611ZM276.636 781.581L281.064 777.163V809.767V817.842L276.636 822.26V781.581ZM281.828 889.449L287.478 883.812V909.408L281.828 915.045V889.449ZM287.478 853.874L281.828 859.511V818.146L287.478 812.509V853.874ZM281.828 860.578L287.478 854.94V874.975L281.828 880.612V860.578ZM281.828 881.679L287.478 876.042V882.745L281.828 888.383V881.679ZM287.478 811.443L281.828 817.08V810.072L287.478 804.434V811.443ZM281.064 818.908V860.273V881.374V889.144L276.636 893.563V823.327L281.064 818.908ZM281.064 890.211V897.676L276.636 902.095V894.629L281.064 890.211ZM281.064 898.743V915.807L276.636 920.225V903.161L281.064 898.743ZM276.636 947.497V921.368L281.064 916.949V943.078L276.636 947.497ZM275.872 940.107L270.07 934.318V909.712L275.872 903.923V940.107ZM276.636 1002.12L281.064 997.698V1001.74L276.636 1006.15V1002.12ZM281.828 996.86L287.478 991.223V1033.96L281.828 1039.6V996.86ZM276.636 995.794V953.743L281.064 949.325V991.375L276.636 995.794ZM287.478 936.603L281.828 942.24V916.111L287.478 910.474V936.603ZM287.478 803.368L281.828 809.005V776.401L287.478 770.764V803.368ZM287.478 736.255L281.828 741.892V713.859L287.478 708.221V736.255ZM287.478 707.079L281.828 712.716V685.977L287.478 680.34V707.079ZM270.07 651.621L275.872 645.832V652.154L270.07 657.944V651.621ZM270.07 659.01L275.872 653.221V690.853L270.07 696.642V659.01ZM270.07 697.709L275.872 691.919V712.107L270.07 717.896V697.709ZM270.07 719.039L275.872 713.249V738.769L270.07 744.558V719.039ZM270.07 745.625L275.872 739.835V747.834L270.07 753.624V745.625ZM270.07 754.69L275.872 748.901V774.725L270.07 780.514V754.69ZM270.07 781.581L275.872 775.791V823.022L270.07 828.811V781.581ZM270.07 829.878L275.872 824.088V894.324L270.07 900.114V829.878ZM270.07 901.18L275.872 895.391V902.856L270.07 908.646V901.18ZM275.872 941.174V947.497L270.146 941.783L270.07 941.86V935.461L275.872 941.174ZM270.07 942.774L275.872 948.563V999.45L270.07 1005.24V942.774ZM270.07 1006.31L275.872 1000.52V1006.84L270.07 1012.63V1006.31ZM270.07 1013.7L275.872 1007.91V1045.54L270.07 1051.33V1013.7ZM270.07 1052.39L275.872 1046.6V1066.79L270.07 1072.58V1052.39ZM270.07 1073.72L275.872 1067.93V1093.45L270.07 1099.24V1073.72ZM270.07 1100.31L275.872 1094.52V1102.52L270.07 1108.31V1100.31ZM276.636 1093.76L281.064 1089.34V1097.34L276.636 1101.76V1093.76ZM287.478 1061.76L281.828 1067.4V1040.66L287.478 1035.03V1061.76ZM287.478 984.976L281.828 990.614V948.563L287.478 942.926V984.976ZM288.242 748.977H301.909V930.738H288.242V748.977ZM302.672 748.977H304.657V930.738H302.672V748.977ZM322.218 748.215H313.056V725.742H322.218V748.215ZM346.117 748.215H336.955V725.742H346.117V748.215ZM336.878 867.586H346.04V930.738H336.878V867.586ZM305.421 803.673H312.14V866.824H305.421V803.673ZM312.98 803.673H322.142V866.824H312.98V803.673ZM322.066 930.738H312.903V867.586H322.066V930.738ZM322.829 748.977H336.115V930.738H322.906V748.977H322.829ZM336.878 803.673H346.04V866.824H336.878V803.673ZM346.728 803.673H353.447V866.824H346.728V803.673ZM353.523 802.911H336.878V749.053H353.523V802.911ZM336.267 748.215H323.058V725.742H336.267V748.215ZM322.066 802.911H305.421V749.053H322.066V802.911ZM305.421 867.586H312.14V930.738H305.421V867.586ZM323.135 931.499H336.344V953.972H323.135V931.499ZM346.728 867.586H353.447V930.738H346.728V867.586ZM354.287 748.977H356.424V930.738H354.287V748.977ZM357.188 748.977H370.931V930.738H357.188V748.977ZM382.537 593.878V597.992L371.695 587.098V582.985L382.537 593.878ZM382.537 773.963L378.109 769.545V743.72L382.537 748.139V773.963ZM383.3 748.901L389.103 754.69V780.514L383.3 774.725V748.901ZM378.109 1069.31L382.537 1073.72V1092.69L378.109 1088.27V1069.31ZM377.345 775.334L371.695 769.697V737.321L377.345 742.959V775.334ZM389.103 934.318L383.3 940.107V903.999L389.103 909.789V934.318ZM389.103 1005.24L383.3 999.45V948.563L389.103 942.774V1005.24ZM378.109 1041.42L382.537 1045.84V1066.03L378.109 1061.61V1041.42ZM382.537 1002.12V1006.15L378.109 1001.74V997.698L382.537 1002.12ZM382.537 948.563V952.677L371.695 941.783V937.67L382.537 948.563ZM378.109 943.002V916.873L382.537 921.291V947.421L378.109 943.002ZM382.537 953.743V995.794L378.109 991.375V949.325L382.537 953.743ZM378.109 1002.73L382.537 1007.14V1044.78L378.109 1040.36V1002.73ZM383.3 1046.68L389.103 1052.47V1072.66L383.3 1066.87V1046.68ZM383.3 1045.54V1007.91L389.103 1013.7V1051.33L383.3 1045.54ZM383.3 1006.84V1000.52L389.103 1006.31V1012.63L383.3 1006.84ZM382.537 920.301L378.109 915.883V898.819L382.537 903.237V920.301ZM377.345 915.045L371.695 909.408V883.812L377.345 889.449V915.045ZM371.695 882.745V876.042L377.345 881.679V888.383L371.695 882.745ZM371.695 874.975V854.94L377.345 860.578V880.612L371.695 874.975ZM371.695 853.874V812.509L377.345 818.146V859.511L371.695 853.874ZM371.695 811.443V804.434L377.345 810.072V817.08L371.695 811.443ZM371.695 803.368V770.764L377.345 776.401V809.005L371.695 803.368ZM377.345 916.188V942.317L371.695 936.679V910.55L377.345 916.188ZM377.345 948.563V990.614L371.695 984.976V942.926L377.345 948.563ZM377.345 991.68L382.537 996.86V1000.97L371.695 990.08V985.967L377.345 991.68ZM377.345 996.86V1039.6L371.695 1033.96V991.223L377.345 996.86ZM377.345 1040.66V1067.4L371.695 1061.76V1035.03L377.345 1040.66ZM378.109 1062.75L382.537 1067.17V1072.66L378.109 1068.24V1062.75ZM383.3 1067.93L389.103 1073.72V1099.24L383.3 1093.45V1067.93ZM389.103 941.783L383.3 947.497V941.174L389.103 935.384V941.783ZM383.3 902.856V895.391L389.103 901.18V908.646L383.3 902.856ZM382.537 902.095L378.109 897.676V890.211L382.537 894.629V902.095ZM378.109 889.144V881.374V860.273V818.908L382.537 823.327V893.563L378.109 889.144ZM378.109 817.842V809.767V777.163L382.537 781.581V822.26L378.109 817.842ZM382.537 780.514L378.109 776.096V770.611L382.537 775.03V780.514ZM378.109 742.654V734.655L382.537 739.074V747.072L378.109 742.654ZM378.109 733.589V714.62L382.537 719.039V738.007L378.109 733.589ZM383.3 690.853V653.221L389.103 659.01V696.642L383.3 690.853ZM389.103 697.709V717.896L383.3 712.107V691.919L389.103 697.709ZM383.3 652.154V645.832L389.103 651.621V657.944L383.3 652.154ZM377.345 636.995L382.537 642.175V646.289L371.695 635.395V631.282L377.345 636.995ZM378.109 642.937L382.537 647.355V651.393L378.109 646.974V642.937ZM382.537 641.109L378.109 636.69V594.64L382.537 599.058V641.109ZM377.345 635.928L371.695 630.291V588.165L377.345 593.802V635.928ZM377.345 642.175V684.911L371.695 679.274V636.538L377.345 642.175ZM378.109 648.041L382.537 652.459V690.091L378.109 685.673V648.041ZM382.537 691.158V711.345L378.109 706.926V686.739L382.537 691.158ZM378.109 708.069L382.537 712.487V717.972L378.109 713.554V708.069ZM383.3 713.249L389.103 719.039V744.558L383.3 738.769V713.249ZM389.103 650.555L383.3 644.765V593.878L389.103 588.089V650.555ZM377.345 685.977V712.716L371.695 707.079V680.34L377.345 685.977ZM377.345 713.859V741.892L371.695 736.255V708.221L377.345 713.859ZM371.695 1092.01L377.345 1097.64V1114.71L371.695 1109.07V1092.01ZM371.695 1090.94V1062.91L377.345 1068.54V1096.58L371.695 1090.94ZM378.109 1089.34L382.537 1093.76V1101.76L378.109 1097.34V1089.34ZM383.3 1094.52L389.103 1100.31V1108.31L383.3 1102.52V1094.52ZM383.3 894.324V824.088L389.103 829.878V900.114L383.3 894.324ZM383.3 823.022V775.791L389.103 781.581V828.811L383.3 823.022ZM383.3 747.834V739.835L389.103 745.625V753.624L383.3 747.834ZM382.537 565.464V592.735L378.109 588.317V561.045L382.537 565.464ZM377.345 560.284V587.632L371.695 581.994V554.57L377.345 560.284ZM370.931 748.215H346.957V725.742H370.931V748.215ZM353.676 670.437H346.957V607.285H353.676V670.437ZM346.117 670.437H336.955V607.285H346.117V670.437ZM337.031 671.199H353.676V724.981H337.031V671.199ZM322.218 670.437H313.056V607.285H322.218V670.437ZM312.369 670.437H305.574V607.285H312.293V670.437H312.369ZM305.574 671.199H322.218V724.981H305.574V671.199ZM312.369 748.215H288.242V725.742H312.369V748.215ZM287.478 554.57V581.918L281.828 587.555V560.284L287.478 554.57ZM281.064 561.045V588.393L276.636 592.812V565.464L281.064 561.045ZM275.872 586.489V592.812L270.146 587.098L270.07 587.174V580.776L275.872 586.489ZM270.07 1134.51V1109.38L275.872 1103.59V1128.72L270.07 1134.51ZM276.636 1127.96V1102.82L281.064 1098.41V1115.47V1123.54L276.636 1127.96ZM281.828 1122.78V1115.77L287.478 1110.14V1117.15L281.828 1122.78ZM288.242 931.499H312.445V953.972H288.242V931.499ZM305.726 1009.28H312.445V1072.43H305.726V1009.28ZM313.209 1009.28H322.371V1072.43H313.209V1009.28ZM322.371 1008.52H305.726V954.734H322.371V1008.52ZM337.107 1009.28H346.27V1072.43H337.107V1009.28ZM347.033 1009.28H353.752V1072.43H347.033V1009.28ZM353.752 1008.52H337.107V954.734H353.752V1008.52ZM347.033 931.499H370.931V953.972H347.033V931.499ZM371.695 1117.15V1110.14L377.345 1115.77V1122.78L371.695 1117.15ZM378.109 1123.54V1115.47V1098.41L382.537 1102.82V1127.96L378.109 1123.54ZM383.3 1128.72V1103.59L389.103 1109.38V1134.51L383.3 1128.72Z" fill="#D2AD75"/>
<path d="M266.711 579.633L260.908 585.422V542.991H260.145V564.397L255.716 559.979V542.991H254.953V559.217L249.302 553.58V542.991H248.539V724.981H234.719V542.991H233.956V724.981H231.97V542.991H231.207V606.524H224.488V542.991H223.724V606.524H214.562V542.991H213.798V724.981H200.589V542.991H199.826V606.524H190.663V542.991H189.9V606.524H183.181V542.991H182.417V724.981H180.279V542.991H179.516V724.981H165.849V542.991H165.085V553.504L159.435 559.141V542.991H158.672V559.979L154.243 564.397V542.991H153.48V585.422L147.677 579.633V542.991H146.913V1136.8H147.677V1135.58L153.48 1129.79V1136.8H154.243V1129.03L158.672 1124.61V1136.8H159.435V1123.85L165.085 1118.21V1136.8H165.849V954.734H179.669V1136.72H180.432V954.734H182.417V1136.72H183.181V1073.19H189.9V1136.72H190.663V1073.19H199.826V1136.72H200.589V954.734H213.798V1136.72H214.562V1073.19H223.724V1136.72H224.488V1073.19H231.207V1136.72H231.97V954.734H234.108V1136.72H234.872V954.734H248.463V1136.8H249.226V1118.21L254.876 1123.85V1136.8H255.64V1124.61L260.068 1129.03V1136.8H260.832V1129.79L266.634 1135.58V1136.8H267.398V542.991H266.634V579.633H266.711ZM266.711 580.699V587.098L266.634 587.022L260.908 592.735V586.413L266.711 580.699ZM214.638 931.499H223.801V953.972H214.638V931.499ZM190.74 931.499H199.902V953.972H190.74V931.499ZM165.085 1109.07L159.435 1114.71V1097.64L165.085 1092.01V1109.07ZM165.085 1090.94L159.435 1096.58V1068.54L165.085 1062.91V1090.94ZM147.677 588.089L153.48 593.878V644.765L147.677 650.555V588.089ZM165.085 582.985V587.098L154.243 597.992V593.878L165.085 582.985ZM165.085 941.783L154.243 952.677V948.563L165.085 937.67V941.783ZM159.435 991.68L165.085 985.967V990.08L154.243 1000.97V996.86L159.435 991.68ZM158.672 1088.27L154.243 1092.69V1073.72L158.672 1069.31V1088.27ZM154.243 1072.66V1067.17L158.672 1062.75V1068.24L154.243 1072.66ZM158.672 1061.69L154.243 1066.11V1045.92L158.672 1041.5V1061.69ZM154.243 1044.78V1007.14L158.672 1002.73V1040.36L154.243 1044.78ZM154.243 599.058L158.672 594.64V636.69L154.243 641.109V599.058ZM154.243 642.175L159.435 636.995L165.085 631.358V635.471L154.243 646.365V642.175ZM159.435 642.175L165.085 636.538V679.274L159.435 684.911V642.175ZM165.085 630.215L159.435 635.852V593.802L165.085 588.165V630.215ZM154.243 647.355L158.672 642.937V646.974L154.243 651.393V647.355ZM158.672 648.041V685.673L154.243 690.091V652.459L158.672 648.041ZM158.672 686.739V706.926L154.243 711.345V691.158L158.672 686.739ZM158.672 708.069V713.554L154.243 717.972V712.487L158.672 708.069ZM154.243 719.039L158.672 714.62V733.589L154.243 738.007V719.039ZM158.672 734.655V742.654L154.243 747.072V739.074L158.672 734.655ZM158.672 743.72V769.545L154.243 773.963V748.139L158.672 743.72ZM165.085 769.697L159.435 775.334V742.959L165.085 737.321V769.697ZM158.672 770.611V776.096L154.243 780.514V775.03L158.672 770.611ZM154.243 781.581L158.672 777.163V809.767V817.842L154.243 822.26V781.581ZM159.435 889.449L165.085 883.812V909.408L159.435 915.045V889.449ZM165.085 853.874L159.435 859.511V818.146L165.085 812.509V853.874ZM159.435 860.578L165.085 854.94V874.975L159.435 880.612V860.578ZM159.435 881.679L165.085 876.042V882.745L159.435 888.383V881.679ZM165.085 811.443L159.435 817.08V810.072L165.085 804.434V811.443ZM158.672 818.908V860.273V881.374V889.144L154.243 893.563V823.327L158.672 818.908ZM158.672 890.211V897.676L154.243 902.095V894.629L158.672 890.211ZM158.672 898.743V915.807L154.243 920.225V903.161L158.672 898.743ZM154.243 947.497V921.368L158.672 916.949V943.078L154.243 947.497ZM153.48 940.107L147.677 934.318V909.712L153.48 903.923V940.107ZM154.243 1002.12L158.672 997.698V1001.74L154.243 1006.15V1002.12ZM159.435 996.86L165.085 991.223V1033.96L159.435 1039.6V996.86ZM154.243 995.794V953.743L158.672 949.325V991.375L154.243 995.794ZM165.085 936.603L159.435 942.24V916.111L165.085 910.474V936.603ZM165.085 803.368L159.435 809.005V776.401L165.085 770.764V803.368ZM165.085 736.255L159.435 741.892V713.859L165.085 708.221V736.255ZM165.085 707.079L159.435 712.716V685.977L165.085 680.34V707.079ZM147.677 651.621L153.48 645.832V652.154L147.677 657.944V651.621ZM147.677 659.01L153.48 653.221V690.853L147.677 696.642V659.01ZM147.677 697.709L153.48 691.919V712.107L147.677 717.896V697.709ZM147.677 719.039L153.48 713.249V738.769L147.677 744.558V719.039ZM147.677 745.625L153.48 739.835V747.834L147.677 753.624V745.625ZM147.677 754.69L153.48 748.901V774.725L147.677 780.514V754.69ZM147.677 781.581L153.48 775.791V823.022L147.677 828.811V781.581ZM147.677 829.878L153.48 824.088V894.324L147.677 900.114V829.878ZM147.677 901.18L153.48 895.391V902.856L147.677 908.646V901.18ZM153.48 941.174V947.497L147.753 941.783L147.677 941.86V935.461L153.48 941.174ZM147.677 942.774L153.48 948.563V999.45L147.677 1005.24V942.774ZM147.677 1006.31L153.48 1000.52V1006.84L147.677 1012.63V1006.31ZM147.677 1013.7L153.48 1007.91V1045.54L147.677 1051.33V1013.7ZM147.677 1052.39L153.48 1046.6V1066.79L147.677 1072.58V1052.39ZM147.677 1073.72L153.48 1067.93V1093.45L147.677 1099.24V1073.72ZM147.677 1100.31L153.48 1094.52V1102.52L147.677 1108.31V1100.31ZM154.243 1093.76L158.672 1089.34V1097.34L154.243 1101.76V1093.76ZM165.085 1061.76L159.435 1067.4V1040.66L165.085 1035.03V1061.76ZM165.085 984.976L159.435 990.614V948.563L165.085 942.926V984.976ZM165.849 748.977H179.44V930.738H165.849V748.977ZM180.203 748.977H182.188V930.738H180.203V748.977ZM199.749 748.215H190.587V725.742H199.749V748.215ZM223.648 748.215H214.486V725.742H223.648V748.215ZM214.333 867.586H223.495V930.738H214.333V867.586ZM182.952 803.673H189.671V866.824H182.952V803.673ZM190.434 803.673H199.597V866.824H190.434V803.673ZM199.597 930.738H190.434V867.586H199.597V930.738ZM200.36 748.977H213.569V930.738H200.36V748.977ZM214.333 803.673H223.495V866.824H214.333V803.673ZM224.259 803.673H230.978V866.824H224.259V803.673ZM230.978 802.911H214.333V749.053H230.978V802.911ZM213.722 748.215H200.513V725.742H213.722V748.215ZM199.597 802.911H182.952V749.053H199.597V802.911ZM182.952 867.586H189.671V930.738H182.952V867.586ZM200.589 931.499H213.798V953.972H200.589V931.499ZM224.259 867.586H230.978V930.738H224.259V867.586ZM231.741 748.977H233.879V930.738H231.741V748.977ZM234.719 748.977H248.539V930.738H234.719V748.977ZM260.145 593.878V597.992L249.302 587.098V582.985L260.145 593.878ZM260.145 773.963L255.716 769.545V743.72L260.145 748.139V773.963ZM260.908 748.901L266.711 754.69V780.514L260.908 774.725V748.901ZM255.716 1069.31L260.145 1073.72V1092.69L255.716 1088.27V1069.31ZM254.953 775.334L249.302 769.697V737.321L254.953 742.959V775.334ZM266.711 934.318L260.908 940.107V903.999L266.711 909.789V934.318ZM266.711 1005.24L260.908 999.45V948.563L266.711 942.774V1005.24ZM255.716 1041.42L260.145 1045.84V1066.03L255.716 1061.61V1041.42ZM260.145 1002.12V1006.15L255.716 1001.74V997.698L260.145 1002.12ZM260.145 948.563V952.677L249.302 941.783V937.67L260.145 948.563ZM255.716 943.002V916.873L260.145 921.291V947.421L255.716 943.002ZM260.145 953.743V995.794L255.716 991.375V949.325L260.145 953.743ZM255.716 1002.73L260.145 1007.14V1044.78L255.716 1040.36V1002.73ZM260.908 1046.68L266.711 1052.47V1072.66L260.908 1066.87V1046.68ZM260.908 1045.54V1007.91L266.711 1013.7V1051.33L260.908 1045.54ZM260.908 1006.84V1000.52L266.711 1006.31V1012.63L260.908 1006.84ZM260.145 920.301L255.716 915.883V898.819L260.145 903.237V920.301ZM254.953 915.045L249.302 909.408V883.812L254.953 889.449V915.045ZM249.302 882.745V876.042L254.953 881.679V888.383L249.302 882.745ZM249.302 874.975V854.94L254.953 860.578V880.612L249.302 874.975ZM249.302 853.874V812.509L254.953 818.146V859.511L249.302 853.874ZM249.302 811.443V804.434L254.953 810.072V817.08L249.302 811.443ZM249.302 803.368V770.764L254.953 776.401V809.005L249.302 803.368ZM254.953 916.188V942.317L249.302 936.679V910.55L254.953 916.188ZM254.953 948.563V990.614L249.302 984.976V942.926L254.953 948.563ZM254.953 991.68L260.145 996.86V1000.97L249.302 990.08V985.967L254.953 991.68ZM254.953 996.86V1039.6L249.302 1033.96V991.223L254.953 996.86ZM254.953 1040.66V1067.4L249.302 1061.76V1035.03L254.953 1040.66ZM255.716 1062.75L260.145 1067.17V1072.66L255.716 1068.24V1062.75ZM260.908 1067.93L266.711 1073.72V1099.24L260.908 1093.45V1067.93ZM266.711 941.783L260.908 947.497V941.174L266.711 935.384V941.783ZM260.908 902.856V895.391L266.711 901.18V908.646L260.908 902.856ZM260.145 902.095L255.716 897.676V890.211L260.145 894.629V902.095ZM255.716 889.144V881.374V860.273V818.908L260.145 823.327V893.563L255.716 889.144ZM255.716 817.842V809.767V777.163L260.145 781.581V822.26L255.716 817.842ZM260.145 780.514L255.716 776.096V770.611L260.145 775.03V780.514ZM255.716 742.654V734.655L260.145 739.074V747.072L255.716 742.654ZM255.716 733.589V714.62L260.145 719.039V738.007L255.716 733.589ZM260.908 690.853V653.221L266.711 659.01V696.642L260.908 690.853ZM266.711 697.709V717.896L260.908 712.107V691.919L266.711 697.709ZM260.908 652.154V645.832L266.711 651.621V657.944L260.908 652.154ZM254.953 636.995L260.145 642.175V646.289L249.302 635.395V631.282L254.953 636.995ZM255.716 642.937L260.145 647.355V651.393L255.716 646.974V642.937ZM260.145 641.109L255.716 636.69V594.64L260.145 599.058V641.109ZM254.953 635.928L249.302 630.291V588.165L254.953 593.802V635.928ZM254.953 642.175V684.911L249.302 679.274V636.538L254.953 642.175ZM255.716 648.041L260.145 652.459V690.091L255.716 685.673V648.041ZM260.145 691.158V711.345L255.716 706.926V686.739L260.145 691.158ZM255.716 708.069L260.145 712.487V717.972L255.716 713.554V708.069ZM260.908 713.249L266.711 719.039V744.558L260.908 738.769V713.249ZM266.711 650.555L260.908 644.765V593.878L266.711 588.089V650.555ZM254.953 685.977V712.716L249.302 707.079V680.34L254.953 685.977ZM254.953 713.859V741.892L249.302 736.255V708.221L254.953 713.859ZM249.302 1092.01L254.953 1097.64V1114.71L249.302 1109.07V1092.01ZM249.302 1090.94V1062.91L254.953 1068.54V1096.58L249.302 1090.94ZM255.716 1089.34L260.145 1093.76V1101.76L255.716 1097.34V1089.34ZM260.908 1094.52L266.711 1100.31V1108.31L260.908 1102.52V1094.52ZM260.908 894.324V824.088L266.711 829.878V900.114L260.908 894.324ZM260.908 823.022V775.791L266.711 781.581V828.811L260.908 823.022ZM260.908 747.834V739.835L266.711 745.625V753.624L260.908 747.834ZM260.145 565.464V592.735L255.716 588.317V561.045L260.145 565.464ZM254.953 560.284V587.632L249.302 581.994V554.57L254.953 560.284ZM248.539 748.215H224.411V725.742H248.539V748.215ZM231.13 670.437H224.411V607.285H231.13V670.437ZM223.648 670.437H214.486V607.285H223.648V670.437ZM214.486 671.199H231.13V724.981H214.486V671.199ZM199.749 670.437H190.587V607.285H199.749V670.437ZM189.824 670.437H183.105V607.285H189.824V670.437ZM183.105 671.199H199.749V724.981H183.105V671.199ZM189.824 748.215H165.849V725.742H189.824V748.215ZM165.085 554.57V581.918L159.435 587.555V560.284L165.085 554.57ZM158.672 561.045V588.393L154.243 592.812V565.464L158.672 561.045ZM153.48 586.489V592.812L147.753 587.098L147.677 587.174V580.776L153.48 586.489ZM147.677 1134.51V1109.38L153.48 1103.59V1128.72L147.677 1134.51ZM154.243 1127.96V1102.82L158.672 1098.41V1115.47V1123.54L154.243 1127.96ZM159.435 1122.78V1115.77L165.085 1110.14V1117.15L159.435 1122.78ZM165.849 931.499H189.976V953.972H165.849V931.499ZM183.181 1009.28H189.9V1072.43H183.181V1009.28ZM190.74 1009.28H199.902V1072.43H190.74V1009.28ZM199.826 1008.52H183.181V954.734H199.826V1008.52ZM214.638 1009.28H223.801V1072.43H214.638V1009.28ZM224.488 1009.28H231.207V1072.43H224.488V1009.28ZM231.283 1008.52H214.638V954.734H231.283V1008.52ZM224.488 931.499H248.463V953.972H224.488V931.499ZM249.302 1117.15V1110.14L254.953 1115.77V1122.78L249.302 1117.15ZM255.716 1123.54V1115.47V1098.41L260.145 1102.82V1127.96L255.716 1123.54ZM260.908 1128.72V1103.59L266.711 1109.38V1134.51L260.908 1128.72Z" fill="#D2AD75"/>
<path d="M144.317 579.633L138.514 585.422V542.991H137.75V564.397L133.322 559.979V542.991H132.558V559.217L126.908 553.58V542.991H126.145V724.981H112.325V542.991H111.561V724.981H109.576V542.991H108.813V606.524H102.094V542.991H101.33V606.524H92.1676V542.991H91.4041V724.981H78.1951V542.991H77.4315V606.524H68.2692V542.991H67.5057V606.524H60.7866V542.991H60.0231V724.981H57.8852V542.991H57.1217V724.981H43.4545V542.991H42.691V553.504L37.0409 559.217V542.991H36.2774V559.979L31.8489 564.397V542.991H31.0854V585.422L25.2826 579.633V542.991H24.519V1136.8H25.2826V1135.58L31.0854 1129.79V1136.8H31.8489V1129.03L36.2774 1124.61V1136.8H37.0409V1123.85L42.691 1118.21V1136.8H43.4545V954.734H57.2744V1136.72H58.0379V954.734H60.0231V1136.72H60.7866V1073.19H67.5057V1136.72H68.2692V1073.19H77.4315V1136.72H78.1951V954.734H91.4041V1136.72H92.1676V1073.19H101.33V1136.72H102.094V1073.19H108.813V1136.72H109.576V954.734H111.714V1136.72H112.477V954.734H126.145V1136.8H126.908V1118.21L132.558 1123.85V1136.8H133.322V1124.61L137.75 1129.03V1136.8H138.514V1129.79L144.317 1135.58V1136.8H145.08V542.991H144.317V579.633ZM144.317 580.699V587.098L144.24 587.022L138.514 592.735V586.413L144.317 580.699ZM92.244 931.499H101.406V953.972H92.244V931.499ZM68.3456 931.499H77.5079V953.972H68.3456V931.499ZM42.691 1109.07L37.0409 1114.71V1097.64L42.691 1092.01V1109.07ZM42.691 1090.94L37.0409 1096.58V1068.54L42.691 1062.91V1090.94ZM25.2826 588.089L31.0854 593.878V644.765L25.2826 650.555V588.089ZM42.691 582.985V587.098L31.8489 597.992V593.878L42.691 582.985ZM42.691 941.783L31.8489 952.677V948.563L42.691 937.67V941.783ZM37.0409 991.68L42.691 986.043V990.156L31.8489 1001.05V996.936L37.0409 991.68ZM36.2774 1088.27L31.8489 1092.69V1073.72L36.2774 1069.31V1088.27ZM31.8489 1072.66V1067.17L36.2774 1062.75V1068.24L31.8489 1072.66ZM36.2774 1061.69L31.8489 1066.11V1045.92L36.2774 1041.5V1061.69ZM31.8489 1044.78V1007.14L36.2774 1002.73V1040.36L31.8489 1044.78ZM31.8489 599.058L36.2774 594.64V636.69L31.8489 641.109V599.058ZM31.8489 642.175L37.0409 636.995L42.691 631.358V635.471L31.8489 646.365V642.175ZM37.0409 642.175L42.691 636.538V679.274L37.0409 684.911V642.175ZM42.691 630.291L37.0409 635.928V593.878L42.691 588.241V630.291ZM31.8489 647.355L36.2774 642.937V646.974L31.8489 651.393V647.355ZM36.2774 648.041V685.673L31.8489 690.091V652.459L36.2774 648.041ZM36.2774 686.739V707.003L31.8489 711.421V691.234L36.2774 686.739ZM36.2774 708.069V713.554L31.8489 717.972V712.487L36.2774 708.069ZM31.8489 719.039L36.2774 714.62V733.589L31.8489 738.007V719.039ZM36.2774 734.655V742.654L31.8489 747.072V739.074L36.2774 734.655ZM36.2774 743.72V769.545L31.8489 773.963V748.139L36.2774 743.72ZM42.691 769.697L37.0409 775.334V742.959L42.691 737.321V769.697ZM36.2774 770.611V776.096L31.8489 780.514V775.03L36.2774 770.611ZM31.8489 781.581L36.2774 777.163V809.767V817.842L31.8489 822.26V781.581ZM37.0409 889.449L42.691 883.812V909.408L37.0409 915.045V889.449ZM42.691 853.874L37.0409 859.511V818.146L42.691 812.509V853.874ZM37.0409 860.578L42.691 854.94V874.975L37.0409 880.612V860.578ZM37.0409 881.679L42.691 876.042V882.745L37.0409 888.383V881.679ZM42.691 811.443L37.0409 817.08V810.072L42.691 804.434V811.443ZM36.2774 818.908V860.273V881.374V889.144L31.8489 893.563V823.327L36.2774 818.908ZM36.2774 890.211V897.676L31.8489 902.095V894.629L36.2774 890.211ZM36.2774 898.743V915.807L31.8489 920.225V903.161L36.2774 898.743ZM31.8489 947.497V921.368L36.2774 916.949V943.078L31.8489 947.497ZM31.0854 940.107L25.2826 934.318V909.712L31.0854 903.923V940.107ZM31.8489 1002.12L36.2774 997.698V1001.74L31.8489 1006.15V1002.12ZM37.0409 996.86L42.691 991.223V1033.96L37.0409 1039.6V996.86ZM31.8489 995.794V953.743L36.2774 949.325V991.375L31.8489 995.794ZM42.691 936.603L37.0409 942.24V916.111L42.691 910.474V936.603ZM42.691 803.368L37.0409 809.005V776.401L42.691 770.764V803.368ZM42.691 736.255L37.0409 741.892V713.859L42.691 708.221V736.255ZM42.691 707.079L37.0409 712.716V685.977L42.691 680.34V707.079ZM25.2826 651.621L31.0854 645.832V652.154L25.2826 657.944V651.621ZM25.2826 659.01L31.0854 653.221V690.853L25.2826 696.642V659.01ZM25.2826 697.709L31.0854 691.919V712.107L25.2826 717.896V697.709ZM25.2826 719.039L31.0854 713.249V738.769L25.2826 744.558V719.039ZM25.2826 745.625L31.0854 739.835V747.834L25.2826 753.624V745.625ZM25.2826 754.69L31.0854 748.901V774.725L25.2826 780.514V754.69ZM25.2826 781.581L31.0854 775.791V823.022L25.2826 828.811V781.581ZM25.2826 829.878L31.0854 824.088V894.324L25.2826 900.114V829.878ZM25.2826 901.18L31.0854 895.391V902.856L25.2826 908.646V901.18ZM31.0854 941.174V947.497L25.3589 941.783L25.2826 941.86V935.461L31.0854 941.174ZM25.2826 942.774L31.0854 948.563V999.45L25.2826 1005.24V942.774ZM25.2826 1006.31L31.0854 1000.52V1006.84L25.2826 1012.63V1006.31ZM25.2826 1013.7L31.0854 1007.91V1045.54L25.2826 1051.33V1013.7ZM25.2826 1052.39L31.0854 1046.6V1066.79L25.2826 1072.58V1052.39ZM25.2826 1073.72L31.0854 1067.93V1093.45L25.2826 1099.24V1073.72ZM25.2826 1100.31L31.0854 1094.52V1102.52L25.2826 1108.31V1100.31ZM31.8489 1093.76L36.2774 1089.34V1097.34L31.8489 1101.76V1093.76ZM42.691 1061.76L37.0409 1067.4V1040.66L42.691 1035.03V1061.76ZM42.691 984.976L37.0409 990.614V948.563L42.691 942.926V984.976ZM43.4545 748.977H57.0453V930.738H43.4545V748.977ZM57.8089 748.977H59.794V930.738H57.8089V748.977ZM77.3552 748.215H68.1929V725.742H77.3552V748.215ZM101.254 748.215H92.0913V725.742H101.254V748.215ZM91.9386 867.586H101.101V930.738H91.9386V867.586ZM60.5576 803.673H67.2766V866.824H60.5576V803.673ZM68.0401 803.673H77.2025V866.824H68.0401V803.673ZM77.2025 930.738H68.0401V867.586H77.2025V930.738ZM77.966 748.977H91.175V930.738H77.966V748.977ZM91.9386 803.673H101.101V866.824H91.9386V803.673ZM101.864 803.673H108.583V866.824H101.864V803.673ZM108.583 802.911H91.9386V749.053H108.583V802.911ZM91.3278 748.215H78.1187V725.742H91.3278V748.215ZM77.2025 802.911H60.5576V749.053H77.2025V802.911ZM60.5576 867.586H67.2766V930.738H60.5576V867.586ZM78.1951 931.499H91.4041V953.972H78.1951V931.499ZM101.864 867.586H108.583V930.738H101.864V867.586ZM109.347 748.977H111.485V930.738H109.347V748.977ZM112.325 748.977H126.145V930.738H112.325V748.977ZM137.75 593.878V597.992L126.908 587.098V582.985L137.75 593.878ZM137.75 773.963L133.322 769.545V743.72L137.75 748.139V773.963ZM138.514 748.901L144.317 754.69V780.514L138.514 774.725V748.901ZM133.322 1069.31L137.75 1073.72V1092.69L133.322 1088.27V1069.31ZM132.558 775.334L126.908 769.697V737.321L132.558 742.959V775.334ZM144.317 934.318L138.514 940.107V903.999L144.317 909.789V934.318ZM144.317 1005.24L138.514 999.45V948.563L144.317 942.774V1005.24ZM133.322 1041.42L137.75 1045.84V1066.03L133.322 1061.61V1041.42ZM137.75 1002.12V1006.15L133.322 1001.74V997.698L137.75 1002.12ZM137.75 948.563V952.677L126.908 941.783V937.67L137.75 948.563ZM133.322 943.002V916.873L137.75 921.291V947.421L133.322 943.002ZM137.75 953.743V995.794L133.322 991.375V949.325L137.75 953.743ZM133.322 1002.73L137.75 1007.14V1044.78L133.322 1040.36V1002.73ZM138.514 1046.68L144.317 1052.47V1072.66L138.514 1066.87V1046.68ZM138.514 1045.54V1007.91L144.317 1013.7V1051.33L138.514 1045.54ZM138.514 1006.84V1000.52L144.317 1006.31V1012.63L138.514 1006.84ZM137.75 920.301L133.322 915.883V898.819L137.75 903.237V920.301ZM132.558 915.045L126.908 909.408V883.812L132.558 889.449V915.045ZM126.908 882.745V876.042L132.558 881.679V888.383L126.908 882.745ZM126.908 874.975V854.94L132.558 860.578V880.612L126.908 874.975ZM126.908 853.874V812.509L132.558 818.146V859.511L126.908 853.874ZM126.908 811.443V804.434L132.558 810.072V817.08L126.908 811.443ZM126.908 803.368V770.764L132.558 776.401V809.005L126.908 803.368ZM132.558 916.188V942.317L126.908 936.679V910.55L132.558 916.188ZM132.558 948.563V990.614L126.908 984.976V942.926L132.558 948.563ZM132.558 991.68L137.75 996.86V1000.97L126.908 990.156V986.043L132.558 991.68ZM132.558 996.86V1039.6L126.908 1033.96V991.223L132.558 996.86ZM132.558 1040.66V1067.4L126.908 1061.76V1035.03L132.558 1040.66ZM133.322 1062.75L137.75 1067.17V1072.66L133.322 1068.24V1062.75ZM138.514 1067.93L144.317 1073.72V1099.24L138.514 1093.45V1067.93ZM144.317 941.783L138.514 947.497V941.174L144.317 935.384V941.783ZM138.514 902.856V895.391L144.317 901.18V908.646L138.514 902.856ZM137.75 902.095L133.322 897.676V890.211L137.75 894.629V902.095ZM133.322 889.144V881.374V860.273V818.908L137.75 823.327V893.563L133.322 889.144ZM133.322 817.842V809.767V777.163L137.75 781.581V822.26L133.322 817.842ZM137.75 780.514L133.322 776.096V770.611L137.75 775.03V780.514ZM133.322 742.654V734.655L137.75 739.074V747.072L133.322 742.654ZM133.322 733.589V714.62L137.75 719.039V738.007L133.322 733.589ZM138.514 690.853V653.221L144.317 659.01V696.642L138.514 690.853ZM144.317 697.709V717.896L138.514 712.107V691.919L144.317 697.709ZM138.514 652.154V645.832L144.317 651.621V657.944L138.514 652.154ZM132.558 636.995L137.75 642.175V646.289L126.908 635.471V631.358L132.558 636.995ZM133.322 642.937L137.75 647.355V651.393L133.322 646.974V642.937ZM137.75 641.109L133.322 636.69V594.64L137.75 599.058V641.109ZM132.558 635.928L126.908 630.291V588.165L132.558 593.802V635.928ZM132.558 642.175V684.911L126.908 679.274V636.538L132.558 642.175ZM133.322 648.041L137.75 652.459V690.091L133.322 685.673V648.041ZM137.75 691.158V711.345L133.322 706.926V686.739L137.75 691.158ZM133.322 708.069L137.75 712.487V717.972L133.322 713.554V708.069ZM138.514 713.249L144.317 719.039V744.558L138.514 738.769V713.249ZM144.317 650.555L138.514 644.765V593.878L144.317 588.089V650.555ZM132.558 685.977V712.716L126.908 707.079V680.34L132.558 685.977ZM132.558 713.859V741.892L126.908 736.255V708.221L132.558 713.859ZM126.908 1092.01L132.558 1097.64V1114.71L126.908 1109.07V1092.01ZM126.908 1090.94V1062.91L132.558 1068.54V1096.58L126.908 1090.94ZM133.322 1089.34L137.75 1093.76V1101.76L133.322 1097.34V1089.34ZM138.514 1094.52L144.317 1100.31V1108.31L138.514 1102.52V1094.52ZM138.514 894.324V824.088L144.317 829.878V900.114L138.514 894.324ZM138.514 823.022V775.791L144.317 781.581V828.811L138.514 823.022ZM138.514 747.834V739.835L144.317 745.625V753.624L138.514 747.834ZM137.75 565.464V592.735L133.322 588.317V561.045L137.75 565.464ZM132.558 560.284V587.632L126.908 581.994V554.57L132.558 560.284ZM126.145 748.215H102.017V725.742H126.145V748.215ZM108.736 670.437H102.017V607.285H108.736V670.437ZM101.254 670.437H92.0913V607.285H101.254V670.437ZM92.0913 671.199H108.736V724.981H92.0913V671.199ZM77.3552 670.437H68.1929V607.285H77.3552V670.437ZM67.4293 670.437H60.7103V607.285H67.4293V670.437ZM60.7103 671.199H77.3552V724.981H60.7103V671.199ZM67.4293 748.215H43.4545V725.742H67.4293V748.215ZM42.691 554.57V581.918L37.0409 587.555V560.284L42.691 554.57ZM36.2774 561.045V588.393L31.8489 592.812V565.464L36.2774 561.045ZM31.0854 586.489V592.812L25.3589 587.098L25.2826 587.174V580.776L31.0854 586.489ZM25.2826 1134.51V1109.38L31.0854 1103.59V1128.72L25.2826 1134.51ZM31.8489 1127.96V1102.82L36.2774 1098.41V1115.47V1123.54L31.8489 1127.96ZM37.0409 1122.78V1115.77L42.691 1110.14V1117.15L37.0409 1122.78ZM43.4545 931.499H67.582V953.972H43.4545V931.499ZM60.7866 1009.28H67.5057V1072.43H60.7866V1009.28ZM68.3456 1009.28H77.5079V1072.43H68.3456V1009.28ZM77.4315 1008.52H60.7866V954.734H77.4315V1008.52ZM92.244 1009.28H101.406V1072.43H92.244V1009.28ZM102.094 1009.28H108.813V1072.43H102.094V1009.28ZM108.889 1008.52H92.244V954.734H108.889V1008.52ZM102.094 931.499H126.145V953.972H102.17V931.499H102.094ZM126.908 1117.15V1110.14L132.558 1115.77V1122.78L126.908 1117.15ZM133.322 1123.54V1115.47V1098.41L137.75 1102.82V1127.96L133.322 1123.54ZM138.514 1128.72V1103.59L144.317 1109.38V1134.51L138.514 1128.72Z" fill="#D2AD75"/>
<path d="M21.9237 -14.1745L16.1205 -8.38498V-50.8162H15.357V-29.4101L10.9283 -33.8285V-50.8162H10.1647V-34.5902L4.5143 -40.2274V-50.8162H3.75073V542.992H4.5143V524.404L10.1647 530.042V542.992H10.9283V530.803L15.357 535.222V542.992H16.1205V535.983L21.9237 541.773V542.992H22.6872V-50.8162H21.9237V-14.1745ZM21.9237 -13.108V-6.70906L21.8473 -6.78524L16.1205 -1.07188V-7.39466L21.9237 -13.108ZM15.357 0.0707893V4.1844L4.5143 -6.70906V-10.8227L15.357 0.0707893ZM15.357 180.156L10.9283 175.737V149.913L15.357 154.331V180.156ZM16.1205 155.093L21.9237 160.883V186.707L16.1205 180.918V155.093ZM10.9283 475.498L15.357 479.916V498.885L10.9283 494.466V475.498ZM10.1647 223.273L4.5143 217.635V210.627L10.1647 216.264V223.273ZM10.1647 294.575L4.5143 288.938V282.234L10.1647 287.872V294.575ZM4.5143 281.168V261.133L10.1647 266.77V286.805L4.5143 281.168ZM4.5143 260.067V218.702L10.1647 224.339V265.704L4.5143 260.067ZM10.1647 295.642V321.237L4.5143 315.6V290.005L10.1647 295.642ZM10.9283 304.935L15.357 309.354V326.494L10.9283 322.075V304.935ZM21.9237 340.511L16.1205 346.3V310.192L21.9237 315.981V340.511ZM21.9237 411.432L16.1205 405.643V354.756L21.9237 348.966V411.432ZM16.1205 451.731V414.099L21.9237 419.888V457.52L16.1205 451.731ZM21.9237 458.587V478.85L16.1205 473.06V452.873L21.9237 458.587ZM16.1205 413.032V406.709L21.9237 412.499V418.822L16.1205 413.032ZM15.357 401.986L10.9283 397.568V355.518L15.357 359.936V401.986ZM10.1647 396.806L4.5143 391.169V349.119L10.1647 354.756V396.806ZM10.1647 397.873L15.357 403.053V407.166L4.5143 396.273V392.159L10.1647 397.873ZM10.9283 403.815L15.357 408.233V412.27L10.9283 407.852V403.815ZM15.357 327.56V353.689L10.9283 349.271V323.142L15.357 327.56ZM15.357 354.756V358.869L4.5143 347.976V343.862L15.357 354.756ZM10.1647 403.053V445.789L4.5143 440.151V397.416L10.1647 403.053ZM10.9283 408.918L15.357 413.337V450.969L10.9283 446.55V408.918ZM15.357 452.111V472.299L10.9283 467.88V447.617L15.357 452.111ZM10.9283 468.947L15.357 473.365V478.85L10.9283 474.432V468.947ZM16.1205 474.127L21.9237 479.916V505.436L16.1205 499.647V474.127ZM21.9237 347.976L16.1205 353.689V347.367L21.9237 341.577V347.976ZM16.1205 309.049V301.584L21.9237 307.373V314.839L16.1205 309.049ZM15.357 308.287L10.9283 303.869V296.403L15.357 300.822V308.287ZM10.9283 295.337V287.567V266.465V225.101L15.357 229.519V299.755L10.9283 295.337ZM10.9283 224.034V215.959V183.355L15.357 187.774V228.453L10.9283 224.034ZM15.357 186.707L10.9283 182.289V176.804L15.357 181.222V186.707ZM10.1647 181.527L4.5143 175.89V143.514L10.1647 149.151V181.527ZM10.9283 148.847V140.848L15.357 145.266V153.265L10.9283 148.847ZM10.9283 139.781V120.813L15.357 125.231V144.2L10.9283 139.781ZM16.1205 97.0455V59.4135L21.9237 65.203V102.835L16.1205 97.0455ZM21.9237 103.902V124.089L16.1205 118.299V98.112L21.9237 103.902ZM16.1205 58.347V52.0242L21.9237 57.8138V64.1366L16.1205 58.347ZM10.1647 43.1876L15.357 48.3677V52.4813L4.5143 41.5878V37.4742L10.1647 43.1876ZM10.9283 49.1295L15.357 53.5478V57.5852L10.9283 53.1669V49.1295ZM15.357 47.3012L10.9283 42.8829V0.832569L15.357 5.2509V47.3012ZM10.1647 42.1211L4.5143 36.4839V-5.64257L10.1647 -0.00539398V42.1211ZM10.1647 48.3677V91.1036L4.5143 85.4664V42.7305L10.1647 48.3677ZM10.9283 54.2334L15.357 58.6517V96.2837L10.9283 91.8654V54.2334ZM15.357 97.3502V117.537L10.9283 113.119V92.9319L15.357 97.3502ZM10.9283 114.262L15.357 118.68V124.165L10.9283 119.747V114.262ZM16.1205 119.442L21.9237 125.231V150.751L16.1205 144.961V119.442ZM21.9237 56.7473L16.1205 50.9577V0.0707893L21.9237 -5.71875V56.7473ZM10.1647 92.1701V118.909L4.5143 113.271V86.5329L10.1647 92.1701ZM10.1647 120.051V148.085L4.5143 142.448V114.414L10.1647 120.051ZM10.1647 182.593V215.198L4.5143 209.56V176.956L10.1647 182.593ZM10.1647 322.38V348.509L4.5143 342.872V316.743L10.1647 322.38ZM10.1647 446.855V473.594L4.5143 467.956V441.218L10.1647 446.855ZM4.5143 498.199L10.1647 503.836V520.9L4.5143 515.263V498.199ZM4.5143 497.133V469.099L10.1647 474.736V502.77L4.5143 497.133ZM10.9283 495.533L15.357 499.951V507.95L10.9283 503.532V495.533ZM16.1205 500.713L21.9237 506.503V514.501L16.1205 508.712V500.713ZM16.1205 300.517V230.281L21.9237 236.07V306.307L16.1205 300.517ZM16.1205 229.214V181.984L21.9237 187.774V235.004L16.1205 229.214ZM16.1205 154.027V146.028L21.9237 151.818V159.816L16.1205 154.027ZM15.357 -28.3436V-1.07188L10.9283 -5.49022V-32.762L15.357 -28.3436ZM10.1647 -33.5237V-6.17581L4.5143 -11.813V-39.2371L10.1647 -33.5237ZM4.5143 523.338V516.33L10.1647 521.967V528.975L4.5143 523.338ZM10.9283 529.737V521.662V504.598L15.357 509.016V534.155L10.9283 529.737ZM16.1205 534.917V509.778L21.9237 515.568V540.707L16.1205 534.917Z" fill="#D2AD75"/>
<path d="M389.103 -14.175L383.3 -8.38547V-50.8167H382.537V-29.4106L378.109 -33.8289V-50.8167H377.345V-34.5907L371.695 -40.2279V-50.8167H370.931V131.173H357.188V-50.8167H356.424V131.173H354.439V-50.8167H353.676V12.7159H346.957V-50.8167H346.193V12.7159H337.031V-50.8167H336.267V131.173H323.058V-50.8167H322.295V12.7159H313.133V-50.8167H312.369V12.7159H305.574V-50.8167H304.81V131.173H302.672V-50.8167H301.909V131.173H288.242V-50.8167H287.478V-40.3041L281.828 -34.6669V-50.8167H281.064V-33.8289L276.636 -29.4106V-50.8167H275.872V-8.38547L270.07 -14.175V-50.8167H269.306V542.991H270.07V541.773L275.872 535.983V542.991H276.636V535.221L281.064 530.803V542.991H281.828V530.041L287.478 524.404V542.991H288.242V360.926H302.214V542.915H302.978V360.926H304.963V542.915H305.726V479.383H312.445V542.915H313.209V479.383H322.371V542.915H323.135V360.926H336.344V542.915H337.107V479.383H346.27V542.915H347.033V479.383H353.752V542.915H354.516V360.926H356.653V542.915H357.417V360.926H370.931V542.991H371.695V524.404L377.345 530.041V542.991H378.109V530.803L382.537 535.221V542.991H383.3V535.983L389.103 541.773V542.991H389.867V-50.8167H389.103V-14.175ZM389.103 -13.1085V-6.70955L389.027 -6.78573L383.3 -1.07237V-7.39515L389.103 -13.1085ZM337.107 337.691H346.27V360.164H337.107V337.691ZM313.209 337.691H322.371V360.164H313.209V337.691ZM287.478 515.263L281.828 520.9V503.836L287.478 498.199V515.263ZM287.478 497.132L281.828 502.769V474.736L287.478 469.099V497.132ZM270.07 -5.71923L275.872 0.0703011V50.9573L270.07 56.7468V-5.71923ZM287.478 -10.8232V-6.70955L276.636 4.18391V0.0703011L287.478 -10.8232ZM287.478 347.976L276.636 358.869V354.755L287.478 343.862V347.976ZM281.828 397.872L287.478 392.159V396.272L276.636 407.166V403.052L281.828 397.872ZM281.064 494.466L276.636 498.884V479.916L281.064 475.498V494.466ZM276.636 478.849V473.365L281.064 468.946V474.431L276.636 478.849ZM281.064 467.88L276.636 472.298V452.111L281.064 447.693V467.88ZM276.636 450.968V413.336L281.064 408.918V446.55L276.636 450.968ZM276.636 5.25041L281.064 0.832081V42.8824L276.636 47.3007V5.25041ZM276.636 48.3672L281.828 43.1871L287.478 37.5499V41.6635L276.636 52.557V48.3672ZM281.828 48.3672L287.478 42.73V85.4659L281.828 91.1031V48.3672ZM287.478 36.4072L281.828 42.0444V-0.00588226L287.478 -5.64305V36.4072ZM276.636 53.5473L281.064 49.129V53.1664L276.636 57.5847V53.5473ZM281.064 54.2329V91.8649L276.636 96.2832V58.6512L281.064 54.2329ZM281.064 92.9314V113.195L276.636 117.613V97.4259L281.064 92.9314ZM281.064 114.261V119.746L276.636 124.164V118.68L281.064 114.261ZM276.636 125.231L281.064 120.813V139.781L276.636 144.199V125.231ZM281.064 140.847V148.846L276.636 153.264V145.266L281.064 140.847ZM281.064 149.913V175.737L276.636 180.155V154.331L281.064 149.913ZM287.478 175.889L281.828 181.526V149.151L287.478 143.514V175.889ZM281.064 176.803V182.288L276.636 186.707V181.222L281.064 176.803ZM276.636 187.773L281.064 183.355V215.959V224.034L276.636 228.452V187.773ZM281.828 295.641L287.478 290.004V315.6L281.828 321.237V295.641ZM287.478 260.066L281.828 265.703V224.339L287.478 218.701V260.066ZM281.828 266.77L287.478 261.133V281.167L281.828 286.805V266.77ZM281.828 287.871L287.478 282.234V288.938L281.828 294.575V287.871ZM287.478 217.635L281.828 223.272V216.264L287.478 210.626V217.635ZM281.064 225.1V266.465V287.566V295.336L276.636 299.755V229.519L281.064 225.1ZM281.064 296.403V303.868L276.636 308.287V300.821L281.064 296.403ZM281.064 304.935V321.999L276.636 326.417V309.353L281.064 304.935ZM276.636 353.689V327.56L281.064 323.141V349.271L276.636 353.689ZM275.872 346.3L270.07 340.51V315.905L275.872 310.115V346.3ZM276.636 408.309L281.064 403.89V407.928L276.636 412.346V408.309ZM281.828 403.052L287.478 397.415V440.151L281.828 445.788V403.052ZM276.636 401.986V359.936L281.064 355.517V397.567L276.636 401.986ZM287.478 342.795L281.828 348.433V322.304L287.478 316.666V342.795ZM287.478 209.56L281.828 215.197V182.593L287.478 176.956V209.56ZM287.478 142.447L281.828 148.084V120.051L287.478 114.414V142.447ZM287.478 113.271L281.828 118.908V92.1696L287.478 86.5324V113.271ZM270.07 57.8133L275.872 52.0237V58.3465L270.07 64.1361V57.8133ZM270.07 65.2026L275.872 59.413V97.045L270.07 102.835V65.2026ZM270.07 103.901L275.872 98.1115V118.299L270.07 124.088V103.901ZM270.07 125.231L275.872 119.441V144.961L270.07 150.751V125.231ZM270.07 151.817L275.872 146.027V154.026L270.07 159.816V151.817ZM270.07 160.882L275.872 155.093V180.917L270.07 186.707V160.882ZM270.07 187.773L275.872 181.984V229.214L270.07 235.003V187.773ZM270.07 236.07L275.872 230.28V300.517L270.07 306.306V236.07ZM270.07 307.373L275.872 301.583V309.049L270.07 314.838V307.373ZM275.872 347.366V353.689L270.146 347.976L270.07 348.052V341.653L275.872 347.366ZM270.07 348.966L275.872 354.755V405.642L270.07 411.432V348.966ZM270.07 412.498L275.872 406.709V413.032L270.07 418.821V412.498ZM270.07 419.888L275.872 414.098V451.73L270.07 457.52V419.888ZM270.07 458.586L275.872 452.797V472.984L270.07 478.773V458.586ZM270.07 479.916L275.872 474.126V499.646L270.07 505.436V479.916ZM270.07 506.502L275.872 500.713V508.711L270.07 514.501V506.502ZM276.636 499.951L281.064 495.532V503.531L276.636 507.949V499.951ZM287.478 467.956L281.828 473.593V446.855L287.478 441.217V467.956ZM287.478 391.169L281.828 396.806V354.755L287.478 349.118V391.169ZM288.242 155.169H301.909V336.93H288.242V155.169ZM302.672 155.169H304.657V336.93H302.672V155.169ZM322.218 154.407H313.056V131.935H322.218V154.407ZM346.117 154.407H336.955V131.935H346.117V154.407ZM336.878 273.778H346.04V336.93H336.878V273.778ZM305.421 209.865H312.14V273.016H305.421V209.865ZM312.98 209.865H322.142V273.016H312.98V209.865ZM322.066 336.93H312.903V273.778H322.066V336.93ZM322.829 155.169H336.115V336.93H322.906V155.169H322.829ZM336.878 209.865H346.04V273.016H336.878V209.865ZM346.728 209.865H353.447V273.016H346.728V209.865ZM353.523 209.103H336.878V155.245H353.523V209.103ZM336.267 154.407H323.058V131.935H336.267V154.407ZM322.066 209.103H305.421V155.245H322.066V209.103ZM305.421 273.778H312.14V336.93H305.421V273.778ZM323.135 337.691H336.344V360.164H323.135V337.691ZM346.728 273.778H353.447V336.93H346.728V273.778ZM354.287 155.169H356.424V336.93H354.287V155.169ZM357.188 155.169H370.931V336.93H357.188V155.169ZM382.537 0.0703011V4.18391L371.695 -6.70955V-10.8232L382.537 0.0703011ZM382.537 180.155L378.109 175.737V149.913L382.537 154.331V180.155ZM383.3 155.093L389.103 160.882V186.707L383.3 180.917V155.093ZM378.109 475.498L382.537 479.916V498.884L378.109 494.466V475.498ZM377.345 181.526L371.695 175.889V143.514L377.345 149.151V181.526ZM389.103 340.51L383.3 346.3V310.191L389.103 315.981V340.51ZM389.103 411.432L383.3 405.642V354.755L389.103 348.966V411.432ZM378.109 447.616L382.537 452.035V472.222L378.109 467.804V447.616ZM382.537 408.309V412.346L378.109 407.928V403.89L382.537 408.309ZM382.537 354.755V358.869L371.695 347.976V343.862L382.537 354.755ZM378.109 349.194V323.065L382.537 327.484V353.613L378.109 349.194ZM382.537 359.936V401.986L378.109 397.567V355.517L382.537 359.936ZM378.109 408.918L382.537 413.336V450.968L378.109 446.55V408.918ZM383.3 452.873L389.103 458.662V478.849L383.3 473.06V452.873ZM383.3 451.73V414.098L389.103 419.888V457.52L383.3 451.73ZM383.3 413.032V406.709L389.103 412.498V418.821L383.3 413.032ZM382.537 326.493L378.109 322.075V305.011L382.537 309.429V326.493ZM377.345 321.237L371.695 315.6V290.004L377.345 295.641V321.237ZM371.695 288.938V282.234L377.345 287.871V294.575L371.695 288.938ZM371.695 281.167V261.133L377.345 266.77V286.805L371.695 281.167ZM371.695 260.066V218.701L377.345 224.339V265.703L371.695 260.066ZM371.695 217.635V210.626L377.345 216.264V223.272L371.695 217.635ZM371.695 209.56V176.956L377.345 182.593V215.197L371.695 209.56ZM377.345 322.38V348.509L371.695 342.872V316.743L377.345 322.38ZM377.345 354.755V396.806L371.695 391.169V349.118L377.345 354.755ZM377.345 397.872L382.537 403.052V407.166L371.695 396.272V392.159L377.345 397.872ZM377.345 403.052V445.788L371.695 440.151V397.415L377.345 403.052ZM377.345 446.855V473.593L371.695 467.956V441.217L377.345 446.855ZM378.109 468.946L382.537 473.365V478.849L378.109 474.431V468.946ZM383.3 474.126L389.103 479.916V505.436L383.3 499.646V474.126ZM389.103 347.976L383.3 353.689V347.366L389.103 341.577V347.976ZM383.3 309.049V301.583L389.103 307.373V314.838L383.3 309.049ZM382.537 308.287L378.109 303.868V296.403L382.537 300.821V308.287ZM378.109 295.336V287.566V266.465V225.1L382.537 229.519V299.755L378.109 295.336ZM378.109 224.034V215.959V183.355L382.537 187.773V228.452L378.109 224.034ZM382.537 186.707L378.109 182.288V176.803L382.537 181.222V186.707ZM378.109 148.846V140.847L382.537 145.266V153.264L378.109 148.846ZM378.109 139.781V120.813L382.537 125.231V144.199L378.109 139.781ZM383.3 97.045V59.413L389.103 65.2026V102.835L383.3 97.045ZM389.103 103.901V124.088L383.3 118.299V98.1115L389.103 103.901ZM383.3 58.3465V52.0237L389.103 57.8133V64.1361L383.3 58.3465ZM377.345 43.1871L382.537 48.3672V52.4808L371.695 41.5873V37.4737L377.345 43.1871ZM378.109 49.129L382.537 53.5473V57.5847L378.109 53.1664V49.129ZM382.537 47.3007L378.109 42.8824V0.832081L382.537 5.25041V47.3007ZM377.345 42.1206L371.695 36.4834V-5.64305L377.345 -0.00588226V42.1206ZM377.345 48.3672V91.1031L371.695 85.4659V42.73L377.345 48.3672ZM378.109 54.2329L382.537 58.6512V96.2832L378.109 91.8649V54.2329ZM382.537 97.3497V117.537L378.109 113.119V92.9314L382.537 97.3497ZM378.109 114.261L382.537 118.68V124.164L378.109 119.746V114.261ZM383.3 119.441L389.103 125.231V150.751L383.3 144.961V119.441ZM389.103 56.7468L383.3 50.9573V0.0703011L389.103 -5.71923V56.7468ZM377.345 92.1696V118.908L371.695 113.271V86.5324L377.345 92.1696ZM377.345 120.051V148.084L371.695 142.447V114.414L377.345 120.051ZM371.695 498.199L377.345 503.836V520.9L371.695 515.263V498.199ZM371.695 497.132V469.099L377.345 474.736V502.769L371.695 497.132ZM378.109 495.532L382.537 499.951V507.949L378.109 503.531V495.532ZM383.3 500.713L389.103 506.502V514.501L383.3 508.711V500.713ZM383.3 300.517V230.28L389.103 236.07V306.306L383.3 300.517ZM383.3 229.214V181.984L389.103 187.773V235.003L383.3 229.214ZM383.3 154.026V146.027L389.103 151.817V159.816L383.3 154.026ZM382.537 -28.3441V-1.07237L378.109 -5.4907V-32.7624L382.537 -28.3441ZM377.345 -33.5242V-6.1763L371.695 -11.8135V-39.2376L377.345 -33.5242ZM370.931 154.407H346.957V131.935H370.931V154.407ZM353.676 76.6293H346.957V13.4776H353.676V76.6293ZM346.117 76.6293H336.955V13.4776H346.117V76.6293ZM337.031 77.391H353.676V131.173H337.031V77.391ZM322.218 76.6293H313.056V13.4776H322.218V76.6293ZM312.369 76.6293H305.574V13.4776H312.293V76.6293H312.369ZM305.574 77.391H322.218V131.173H305.574V77.391ZM312.369 154.407H288.242V131.935H312.369V154.407ZM287.478 -39.2376V-11.8897L281.828 -6.25248V-33.5242L287.478 -39.2376ZM281.064 -32.7624V-5.41452L276.636 -0.996197V-28.3441L281.064 -32.7624ZM275.872 -7.31897V-0.996197L270.146 -6.70955L270.07 -6.63337V-13.0323L275.872 -7.31897ZM270.07 540.706V515.567L275.872 509.778V534.917L270.07 540.706ZM276.636 534.155V509.016L281.064 504.598V521.662V529.736L276.636 534.155ZM281.828 528.975V521.966L287.478 516.329V523.337L281.828 528.975ZM288.242 337.691H312.445V360.164H288.242V337.691ZM305.726 415.469H312.445V478.621H305.726V415.469ZM313.209 415.469H322.371V478.621H313.209V415.469ZM322.371 414.707H305.726V360.926H322.371V414.707ZM337.107 415.469H346.27V478.621H337.107V415.469ZM347.033 415.469H353.752V478.621H347.033V415.469ZM353.752 414.707H337.107V360.926H353.752V414.707ZM347.033 337.691H370.931V360.164H347.033V337.691ZM371.695 523.337V516.329L377.345 521.966V528.975L371.695 523.337ZM378.109 529.736V521.662V504.598L382.537 509.016V534.155L378.109 529.736ZM383.3 534.917V509.778L389.103 515.567V540.706L383.3 534.917Z" fill="#D2AD75"/>
<path d="M266.711 -14.175L260.908 -8.38547V-50.8167H260.145V-29.4106L255.716 -33.8289V-50.8167H254.953V-34.5907L249.302 -40.2279V-50.8167H248.539V131.173H234.719V-50.8167H233.956V131.173H231.97V-50.8167H231.207V12.7159H224.488V-50.8167H223.724V12.7159H214.562V-50.8167H213.798V131.173H200.589V-50.8167H199.826V12.7159H190.663V-50.8167H189.9V12.7159H183.181V-50.8167H182.417V131.173H180.279V-50.8167H179.516V131.173H165.849V-50.8167H165.085V-40.3041L159.435 -34.6669V-50.8167H158.672V-33.8289L154.243 -29.4106V-50.8167H153.48V-8.38547L147.677 -14.175V-50.8167H146.913V542.991H147.677V541.773L153.48 535.983V542.991H154.243V535.221L158.672 530.803V542.991H159.435V530.041L165.085 524.404V542.991H165.849V360.926H179.669V542.915H180.432V360.926H182.417V542.915H183.181V479.383H189.9V542.915H190.663V479.383H199.826V542.915H200.589V360.926H213.798V542.915H214.562V479.383H223.724V542.915H224.488V479.383H231.207V542.915H231.97V360.926H234.108V542.915H234.872V360.926H248.463V542.991H249.226V524.404L254.876 530.041V542.991H255.64V530.803L260.068 535.221V542.991H260.832V535.983L266.634 541.773V542.991H267.398V-50.8167H266.634V-14.175H266.711ZM266.711 -13.1085V-6.70955L266.634 -6.78573L260.908 -1.07237V-7.39515L266.711 -13.1085ZM214.638 337.691H223.801V360.164H214.638V337.691ZM190.74 337.691H199.902V360.164H190.74V337.691ZM165.085 515.263L159.435 520.9V503.836L165.085 498.199V515.263ZM165.085 497.132L159.435 502.769V474.736L165.085 469.099V497.132ZM147.677 -5.71923L153.48 0.0703011V50.9573L147.677 56.7468V-5.71923ZM165.085 -10.8232V-6.70955L154.243 4.18391V0.0703011L165.085 -10.8232ZM165.085 347.976L154.243 358.869V354.755L165.085 343.862V347.976ZM159.435 397.872L165.085 392.159V396.272L154.243 407.166V403.052L159.435 397.872ZM158.672 494.466L154.243 498.884V479.916L158.672 475.498V494.466ZM154.243 478.849V473.365L158.672 468.946V474.431L154.243 478.849ZM158.672 467.88L154.243 472.298V452.111L158.672 447.693V467.88ZM154.243 450.968V413.336L158.672 408.918V446.55L154.243 450.968ZM154.243 5.25041L158.672 0.832081V42.8824L154.243 47.3007V5.25041ZM154.243 48.3672L159.435 43.1871L165.085 37.5499V41.6635L154.243 52.557V48.3672ZM159.435 48.3672L165.085 42.73V85.4659L159.435 91.1031V48.3672ZM165.085 36.4072L159.435 42.0444V-0.00588226L165.085 -5.64305V36.4072ZM154.243 53.5473L158.672 49.129V53.1664L154.243 57.5847V53.5473ZM158.672 54.2329V91.8649L154.243 96.2832V58.6512L158.672 54.2329ZM158.672 92.9314V113.119L154.243 117.537V97.3497L158.672 92.9314ZM158.672 114.261V119.746L154.243 124.164V118.68L158.672 114.261ZM154.243 125.231L158.672 120.813V139.781L154.243 144.199V125.231ZM158.672 140.847V148.846L154.243 153.264V145.266L158.672 140.847ZM158.672 149.913V175.737L154.243 180.155V154.331L158.672 149.913ZM165.085 175.889L159.435 181.526V149.151L165.085 143.514V175.889ZM158.672 176.803V182.288L154.243 186.707V181.222L158.672 176.803ZM154.243 187.773L158.672 183.355V215.959V224.034L154.243 228.452V187.773ZM159.435 295.641L165.085 290.004V315.6L159.435 321.237V295.641ZM165.085 260.066L159.435 265.703V224.339L165.085 218.701V260.066ZM159.435 266.77L165.085 261.133V281.167L159.435 286.805V266.77ZM159.435 287.871L165.085 282.234V288.938L159.435 294.575V287.871ZM165.085 217.635L159.435 223.272V216.264L165.085 210.626V217.635ZM158.672 225.1V266.465V287.566V295.336L154.243 299.755V229.519L158.672 225.1ZM158.672 296.403V303.868L154.243 308.287V300.821L158.672 296.403ZM158.672 304.935V321.999L154.243 326.417V309.353L158.672 304.935ZM154.243 353.689V327.56L158.672 323.141V349.271L154.243 353.689ZM153.48 346.3L147.677 340.51V315.905L153.48 310.115V346.3ZM154.243 408.309L158.672 403.89V407.928L154.243 412.346V408.309ZM159.435 403.052L165.085 397.415V440.151L159.435 445.788V403.052ZM154.243 401.986V359.936L158.672 355.517V397.567L154.243 401.986ZM165.085 342.795L159.435 348.433V322.304L165.085 316.666V342.795ZM165.085 209.56L159.435 215.197V182.593L165.085 176.956V209.56ZM165.085 142.447L159.435 148.084V120.051L165.085 114.414V142.447ZM165.085 113.271L159.435 118.908V92.1696L165.085 86.5324V113.271ZM147.677 57.8133L153.48 52.0237V58.3465L147.677 64.1361V57.8133ZM147.677 65.2026L153.48 59.413V97.045L147.677 102.835V65.2026ZM147.677 103.901L153.48 98.1115V118.299L147.677 124.088V103.901ZM147.677 125.231L153.48 119.441V144.961L147.677 150.751V125.231ZM147.677 151.817L153.48 146.027V154.026L147.677 159.816V151.817ZM147.677 160.882L153.48 155.093V180.917L147.677 186.707V160.882ZM147.677 187.773L153.48 181.984V229.214L147.677 235.003V187.773ZM147.677 236.07L153.48 230.28V300.517L147.677 306.306V236.07ZM147.677 307.373L153.48 301.583V309.049L147.677 314.838V307.373ZM153.48 347.366V353.689L147.753 347.976L147.677 348.052V341.653L153.48 347.366ZM147.677 348.966L153.48 354.755V405.642L147.677 411.432V348.966ZM147.677 412.498L153.48 406.709V413.032L147.677 418.821V412.498ZM147.677 419.888L153.48 414.098V451.73L147.677 457.52V419.888ZM147.677 458.586L153.48 452.797V472.984L147.677 478.773V458.586ZM147.677 479.916L153.48 474.126V499.646L147.677 505.436V479.916ZM147.677 506.502L153.48 500.713V508.711L147.677 514.501V506.502ZM154.243 499.951L158.672 495.532V503.531L154.243 507.949V499.951ZM165.085 467.956L159.435 473.593V446.855L165.085 441.217V467.956ZM165.085 391.169L159.435 396.806V354.755L165.085 349.118V391.169ZM165.849 155.169H179.44V336.93H165.849V155.169ZM180.203 155.169H182.188V336.93H180.203V155.169ZM199.749 154.407H190.587V131.935H199.749V154.407ZM223.648 154.407H214.486V131.935H223.648V154.407ZM214.333 273.778H223.495V336.93H214.333V273.778ZM182.952 209.865H189.671V273.016H182.952V209.865ZM190.434 209.865H199.597V273.016H190.434V209.865ZM199.597 336.93H190.434V273.778H199.597V336.93ZM200.36 155.169H213.569V336.93H200.36V155.169ZM214.333 209.865H223.495V273.016H214.333V209.865ZM224.259 209.865H230.978V273.016H224.259V209.865ZM230.978 209.103H214.333V155.245H230.978V209.103ZM213.722 154.407H200.513V131.935H213.722V154.407ZM199.597 209.103H182.952V155.245H199.597V209.103ZM182.952 273.778H189.671V336.93H182.952V273.778ZM200.589 337.691H213.798V360.164H200.589V337.691ZM224.259 273.778H230.978V336.93H224.259V273.778ZM231.741 155.169H233.879V336.93H231.741V155.169ZM234.719 155.169H248.539V336.93H234.719V155.169ZM260.145 0.0703011V4.18391L249.302 -6.70955V-10.8232L260.145 0.0703011ZM260.145 180.155L255.716 175.737V149.913L260.145 154.331V180.155ZM260.908 155.093L266.711 160.882V186.707L260.908 180.917V155.093ZM255.716 475.498L260.145 479.916V498.884L255.716 494.466V475.498ZM254.953 181.526L249.302 175.889V143.514L254.953 149.151V181.526ZM266.711 340.51L260.908 346.3V310.191L266.711 315.981V340.51ZM266.711 411.432L260.908 405.642V354.755L266.711 348.966V411.432ZM255.716 447.616L260.145 452.035V472.222L255.716 467.804V447.616ZM260.145 408.309V412.346L255.716 407.928V403.89L260.145 408.309ZM260.145 354.755V358.869L249.302 347.976V343.862L260.145 354.755ZM255.716 349.194V323.065L260.145 327.484V353.613L255.716 349.194ZM260.145 359.936V401.986L255.716 397.567V355.517L260.145 359.936ZM255.716 408.918L260.145 413.336V450.968L255.716 446.55V408.918ZM260.908 452.873L266.711 458.662V478.849L260.908 473.06V452.873ZM260.908 451.73V414.098L266.711 419.888V457.52L260.908 451.73ZM260.908 413.032V406.709L266.711 412.498V418.821L260.908 413.032ZM260.145 326.493L255.716 322.075V305.011L260.145 309.429V326.493ZM254.953 321.237L249.302 315.6V290.004L254.953 295.641V321.237ZM249.302 288.938V282.234L254.953 287.871V294.575L249.302 288.938ZM249.302 281.167V261.133L254.953 266.77V286.805L249.302 281.167ZM249.302 260.066V218.701L254.953 224.339V265.703L249.302 260.066ZM249.302 217.635V210.626L254.953 216.264V223.272L249.302 217.635ZM249.302 209.56V176.956L254.953 182.593V215.197L249.302 209.56ZM254.953 322.38V348.509L249.302 342.872V316.743L254.953 322.38ZM254.953 354.755V396.806L249.302 391.169V349.118L254.953 354.755ZM254.953 397.872L260.145 403.052V407.166L249.302 396.272V392.159L254.953 397.872ZM254.953 403.052V445.788L249.302 440.151V397.415L254.953 403.052ZM254.953 446.855V473.593L249.302 467.956V441.217L254.953 446.855ZM255.716 468.946L260.145 473.365V478.849L255.716 474.431V468.946ZM260.908 474.126L266.711 479.916V505.436L260.908 499.646V474.126ZM266.711 347.976L260.908 353.689V347.366L266.711 341.577V347.976ZM260.908 309.049V301.583L266.711 307.373V314.838L260.908 309.049ZM260.145 308.287L255.716 303.868V296.403L260.145 300.821V308.287ZM255.716 295.336V287.566V266.465V225.1L260.145 229.519V299.755L255.716 295.336ZM255.716 224.034V215.959V183.355L260.145 187.773V228.452L255.716 224.034ZM260.145 186.707L255.716 182.288V176.803L260.145 181.222V186.707ZM255.716 148.846V140.847L260.145 145.266V153.264L255.716 148.846ZM255.716 139.781V120.813L260.145 125.231V144.199L255.716 139.781ZM260.908 97.045V59.413L266.711 65.2026V102.835L260.908 97.045ZM266.711 103.901V124.088L260.908 118.299V98.1115L266.711 103.901ZM260.908 58.3465V52.0237L266.711 57.8133V64.1361L260.908 58.3465ZM254.953 43.1871L260.145 48.3672V52.4808L249.302 41.5873V37.4737L254.953 43.1871ZM255.716 49.129L260.145 53.5473V57.5847L255.716 53.1664V49.129ZM260.145 47.3007L255.716 42.8824V0.832081L260.145 5.25041V47.3007ZM254.953 42.1206L249.302 36.4834V-5.64305L254.953 -0.00588226V42.1206ZM254.953 48.3672V91.1031L249.302 85.4659V42.73L254.953 48.3672ZM255.716 54.2329L260.145 58.6512V96.2832L255.716 91.8649V54.2329ZM260.145 97.3497V117.537L255.716 113.119V92.9314L260.145 97.3497ZM255.716 114.261L260.145 118.68V124.164L255.716 119.746V114.261ZM260.908 119.441L266.711 125.231V150.751L260.908 144.961V119.441ZM266.711 56.7468L260.908 50.9573V0.0703011L266.711 -5.71923V56.7468ZM254.953 92.1696V118.908L249.302 113.271V86.5324L254.953 92.1696ZM254.953 120.051V148.084L249.302 142.447V114.414L254.953 120.051ZM249.302 498.199L254.953 503.836V520.9L249.302 515.263V498.199ZM249.302 497.132V469.099L254.953 474.736V502.769L249.302 497.132ZM255.716 495.532L260.145 499.951V507.949L255.716 503.531V495.532ZM260.908 500.713L266.711 506.502V514.501L260.908 508.711V500.713ZM260.908 300.517V230.28L266.711 236.07V306.306L260.908 300.517ZM260.908 229.214V181.984L266.711 187.773V235.003L260.908 229.214ZM260.908 154.026V146.027L266.711 151.817V159.816L260.908 154.026ZM260.145 -28.3441V-1.07237L255.716 -5.4907V-32.7624L260.145 -28.3441ZM254.953 -33.5242V-6.1763L249.302 -11.8135V-39.2376L254.953 -33.5242ZM248.539 154.407H224.411V131.935H248.539V154.407ZM231.13 76.6293H224.411V13.4776H231.13V76.6293ZM223.648 76.6293H214.486V13.4776H223.648V76.6293ZM214.486 77.391H231.13V131.173H214.486V77.391ZM199.749 76.6293H190.587V13.4776H199.749V76.6293ZM189.824 76.6293H183.105V13.4776H189.824V76.6293ZM183.105 77.391H199.749V131.173H183.105V77.391ZM189.824 154.407H165.849V131.935H189.824V154.407ZM165.085 -39.2376V-11.8897L159.435 -6.25248V-33.5242L165.085 -39.2376ZM158.672 -32.7624V-5.41452L154.243 -0.996197V-28.3441L158.672 -32.7624ZM153.48 -7.31897V-0.996197L147.753 -6.70955L147.677 -6.63337V-13.0323L153.48 -7.31897ZM147.677 540.706V515.567L153.48 509.778V534.917L147.677 540.706ZM154.243 534.155V509.016L158.672 504.598V521.662V529.736L154.243 534.155ZM159.435 528.975V521.966L165.085 516.329V523.337L159.435 528.975ZM165.849 337.691H189.976V360.164H165.849V337.691ZM183.181 415.469H189.9V478.621H183.181V415.469ZM190.74 415.469H199.902V478.621H190.74V415.469ZM199.826 414.707H183.181V360.926H199.826V414.707ZM214.638 415.469H223.801V478.621H214.638V415.469ZM224.488 415.469H231.207V478.621H224.488V415.469ZM231.283 414.707H214.638V360.926H231.283V414.707ZM224.488 337.691H248.463V360.164H224.488V337.691ZM249.302 523.337V516.329L254.953 521.966V528.975L249.302 523.337ZM255.716 529.736V521.662V504.598L260.145 509.016V534.155L255.716 529.736ZM260.908 534.917V509.778L266.711 515.567V540.706L260.908 534.917Z" fill="#D2AD75"/>
<path d="M144.317 -14.175L138.514 -8.38547V-50.8167H137.75V-29.4106L133.322 -33.8289V-50.8167H132.558V-34.5907L126.908 -40.2279V-50.8167H126.145V131.173H112.325V-50.8167H111.561V131.173H109.576V-50.8167H108.813V12.7159H102.094V-50.8167H101.33V12.7159H92.1676V-50.8167H91.4041V131.173H78.1951V-50.8167H77.4315V12.7159H68.2692V-50.8167H67.5057V12.7159H60.7866V-50.8167H60.0231V131.173H57.8852V-50.8167H57.1217V131.173H43.4545V-50.8167H42.691V-40.3041L37.0409 -34.5907V-50.8167H36.2774V-33.8289L31.8489 -29.4106V-50.8167H31.0854V-8.38547L25.2826 -14.175V-50.8167H24.519V542.991H25.2826V541.773L31.0854 535.983V542.991H31.8489V535.221L36.2774 530.803V542.991H37.0409V530.041L42.691 524.404V542.991H43.4545V360.926H57.2744V542.915H58.0379V360.926H60.0231V542.915H60.7866V479.383H67.5057V542.915H68.2692V479.383H77.4315V542.915H78.1951V360.926H91.4041V542.915H92.1676V479.383H101.33V542.915H102.094V479.383H108.813V542.915H109.576V360.926H111.714V542.915H112.477V360.926H126.145V542.991H126.908V524.404L132.558 530.041V542.991H133.322V530.803L137.75 535.221V542.991H138.514V535.983L144.317 541.773V542.991H145.08V-50.8167H144.317V-14.175ZM144.317 -13.1085V-6.70955L144.24 -6.78573L138.514 -1.07237V-7.39515L144.317 -13.1085ZM92.244 337.691H101.406V360.164H92.244V337.691ZM68.3456 337.691H77.5079V360.164H68.3456V337.691ZM42.691 515.263L37.0409 520.9V503.836L42.691 498.199V515.263ZM42.691 497.132L37.0409 502.769V474.736L42.691 469.099V497.132ZM25.2826 -5.71923L31.0854 0.0703011V50.9573L25.2826 56.7468V-5.71923ZM42.691 -10.8232V-6.70955L31.8489 4.18391V0.0703011L42.691 -10.8232ZM42.691 347.976L31.8489 358.869V354.755L42.691 343.862V347.976ZM37.0409 397.872L42.691 392.235V396.349L31.8489 407.242V403.128L37.0409 397.872ZM36.2774 494.466L31.8489 498.884V479.916L36.2774 475.498V494.466ZM31.8489 478.849V473.365L36.2774 468.946V474.431L31.8489 478.849ZM36.2774 467.88L31.8489 472.298V452.111L36.2774 447.693V467.88ZM31.8489 450.968V413.336L36.2774 408.918V446.55L31.8489 450.968ZM31.8489 5.25041L36.2774 0.832081V42.8824L31.8489 47.3007V5.25041ZM31.8489 48.3672L37.0409 43.1871L42.691 37.5499V41.6635L31.8489 52.557V48.3672ZM37.0409 48.3672L42.691 42.73V85.4659L37.0409 91.1031V48.3672ZM42.691 36.4834L37.0409 42.1206V0.0703011L42.691 -5.56688V36.4834ZM31.8489 53.5473L36.2774 49.129V53.1664L31.8489 57.5847V53.5473ZM36.2774 54.2329V91.8649L31.8489 96.2832V58.6512L36.2774 54.2329ZM36.2774 92.9314V113.195L31.8489 117.613V97.4259L36.2774 92.9314ZM36.2774 114.261V119.746L31.8489 124.164V118.68L36.2774 114.261ZM31.8489 125.231L36.2774 120.813V139.781L31.8489 144.199V125.231ZM36.2774 140.847V148.846L31.8489 153.264V145.266L36.2774 140.847ZM36.2774 149.913V175.737L31.8489 180.155V154.331L36.2774 149.913ZM42.691 175.889L37.0409 181.526V149.151L42.691 143.514V175.889ZM36.2774 176.803V182.288L31.8489 186.707V181.222L36.2774 176.803ZM31.8489 187.773L36.2774 183.355V215.959V224.034L31.8489 228.452V187.773ZM37.0409 295.641L42.691 290.004V315.6L37.0409 321.237V295.641ZM42.691 260.066L37.0409 265.703V224.339L42.691 218.701V260.066ZM37.0409 266.77L42.691 261.133V281.167L37.0409 286.805V266.77ZM37.0409 287.871L42.691 282.234V288.938L37.0409 294.575V287.871ZM42.691 217.635L37.0409 223.272V216.264L42.691 210.626V217.635ZM36.2774 225.1V266.465V287.566V295.336L31.8489 299.755V229.519L36.2774 225.1ZM36.2774 296.403V303.868L31.8489 308.287V300.821L36.2774 296.403ZM36.2774 304.935V321.999L31.8489 326.417V309.353L36.2774 304.935ZM31.8489 353.689V327.56L36.2774 323.141V349.271L31.8489 353.689ZM31.0854 346.3L25.2826 340.51V315.905L31.0854 310.115V346.3ZM31.8489 408.309L36.2774 403.89V407.928L31.8489 412.346V408.309ZM37.0409 403.052L42.691 397.415V440.151L37.0409 445.788V403.052ZM31.8489 401.986V359.936L36.2774 355.517V397.567L31.8489 401.986ZM42.691 342.795L37.0409 348.433V322.304L42.691 316.666V342.795ZM42.691 209.56L37.0409 215.197V182.593L42.691 176.956V209.56ZM42.691 142.447L37.0409 148.084V120.051L42.691 114.414V142.447ZM42.691 113.271L37.0409 118.908V92.1696L42.691 86.5324V113.271ZM25.2826 57.8133L31.0854 52.0237V58.3465L25.2826 64.1361V57.8133ZM25.2826 65.2026L31.0854 59.413V97.045L25.2826 102.835V65.2026ZM25.2826 103.901L31.0854 98.1115V118.299L25.2826 124.088V103.901ZM25.2826 125.231L31.0854 119.441V144.961L25.2826 150.751V125.231ZM25.2826 151.817L31.0854 146.027V154.026L25.2826 159.816V151.817ZM25.2826 160.882L31.0854 155.093V180.917L25.2826 186.707V160.882ZM25.2826 187.773L31.0854 181.984V229.214L25.2826 235.003V187.773ZM25.2826 236.07L31.0854 230.28V300.517L25.2826 306.306V236.07ZM25.2826 307.373L31.0854 301.583V309.049L25.2826 314.838V307.373ZM31.0854 347.366V353.689L25.3589 347.976L25.2826 348.052V341.653L31.0854 347.366ZM25.2826 348.966L31.0854 354.755V405.642L25.2826 411.432V348.966ZM25.2826 412.498L31.0854 406.709V413.032L25.2826 418.821V412.498ZM25.2826 419.888L31.0854 414.098V451.73L25.2826 457.52V419.888ZM25.2826 458.586L31.0854 452.797V472.984L25.2826 478.773V458.586ZM25.2826 479.916L31.0854 474.126V499.646L25.2826 505.436V479.916ZM25.2826 506.502L31.0854 500.713V508.711L25.2826 514.501V506.502ZM31.8489 499.951L36.2774 495.532V503.531L31.8489 507.949V499.951ZM42.691 467.956L37.0409 473.593V446.855L42.691 441.217V467.956ZM42.691 391.169L37.0409 396.806V354.755L42.691 349.118V391.169ZM43.4545 155.169H57.0453V336.93H43.4545V155.169ZM57.8089 155.169H59.794V336.93H57.8089V155.169ZM77.3552 154.407H68.1929V131.935H77.3552V154.407ZM101.254 154.407H92.0913V131.935H101.254V154.407ZM91.9386 273.778H101.101V336.93H91.9386V273.778ZM60.5576 209.865H67.2766V273.016H60.5576V209.865ZM68.0401 209.865H77.2025V273.016H68.0401V209.865ZM77.2025 336.93H68.0401V273.778H77.2025V336.93ZM77.966 155.169H91.175V336.93H77.966V155.169ZM91.9386 209.865H101.101V273.016H91.9386V209.865ZM101.864 209.865H108.583V273.016H101.864V209.865ZM108.583 209.103H91.9386V155.245H108.583V209.103ZM91.3278 154.407H78.1187V131.935H91.3278V154.407ZM77.2025 209.103H60.5576V155.245H77.2025V209.103ZM60.5576 273.778H67.2766V336.93H60.5576V273.778ZM78.1951 337.691H91.4041V360.164H78.1951V337.691ZM101.864 273.778H108.583V336.93H101.864V273.778ZM109.347 155.169H111.485V336.93H109.347V155.169ZM112.325 155.169H126.145V336.93H112.325V155.169ZM137.75 0.0703011V4.18391L126.908 -6.70955V-10.8232L137.75 0.0703011ZM137.75 180.155L133.322 175.737V149.913L137.75 154.331V180.155ZM138.514 155.093L144.317 160.882V186.707L138.514 180.917V155.093ZM133.322 475.498L137.75 479.916V498.884L133.322 494.466V475.498ZM132.558 181.526L126.908 175.889V143.514L132.558 149.151V181.526ZM144.317 340.51L138.514 346.3V310.191L144.317 315.981V340.51ZM144.317 411.432L138.514 405.642V354.755L144.317 348.966V411.432ZM133.322 447.616L137.75 452.035V472.222L133.322 467.804V447.616ZM137.75 408.309V412.346L133.322 407.928V403.89L137.75 408.309ZM137.75 354.755V358.869L126.908 347.976V343.862L137.75 354.755ZM133.322 349.194V323.065L137.75 327.484V353.613L133.322 349.194ZM137.75 359.936V401.986L133.322 397.567V355.517L137.75 359.936ZM133.322 408.918L137.75 413.336V450.968L133.322 446.55V408.918ZM138.514 452.873L144.317 458.662V478.849L138.514 473.06V452.873ZM138.514 451.73V414.098L144.317 419.888V457.52L138.514 451.73ZM138.514 413.032V406.709L144.317 412.498V418.821L138.514 413.032ZM137.75 326.493L133.322 322.075V305.011L137.75 309.429V326.493ZM132.558 321.237L126.908 315.6V290.004L132.558 295.641V321.237ZM126.908 288.938V282.234L132.558 287.871V294.575L126.908 288.938ZM126.908 281.167V261.133L132.558 266.77V286.805L126.908 281.167ZM126.908 260.066V218.701L132.558 224.339V265.703L126.908 260.066ZM126.908 217.635V210.626L132.558 216.264V223.272L126.908 217.635ZM126.908 209.56V176.956L132.558 182.593V215.197L126.908 209.56ZM132.558 322.38V348.509L126.908 342.872V316.743L132.558 322.38ZM132.558 354.755V396.806L126.908 391.169V349.118L132.558 354.755ZM132.558 397.872L137.75 403.052V407.166L126.908 396.349V392.235L132.558 397.872ZM132.558 403.052V445.788L126.908 440.151V397.415L132.558 403.052ZM132.558 446.855V473.593L126.908 467.956V441.217L132.558 446.855ZM133.322 468.946L137.75 473.365V478.849L133.322 474.431V468.946ZM138.514 474.126L144.317 479.916V505.436L138.514 499.646V474.126ZM144.317 347.976L138.514 353.689V347.366L144.317 341.577V347.976ZM138.514 309.049V301.583L144.317 307.373V314.838L138.514 309.049ZM137.75 308.287L133.322 303.868V296.403L137.75 300.821V308.287ZM133.322 295.336V287.566V266.465V225.1L137.75 229.519V299.755L133.322 295.336ZM133.322 224.034V215.959V183.355L137.75 187.773V228.452L133.322 224.034ZM137.75 186.707L133.322 182.288V176.803L137.75 181.222V186.707ZM133.322 148.846V140.847L137.75 145.266V153.264L133.322 148.846ZM133.322 139.781V120.813L137.75 125.231V144.199L133.322 139.781ZM138.514 97.045V59.413L144.317 65.2026V102.835L138.514 97.045ZM144.317 103.901V124.088L138.514 118.299V98.1115L144.317 103.901ZM138.514 58.3465V52.0237L144.317 57.8133V64.1361L138.514 58.3465ZM132.558 43.1871L137.75 48.3672V52.4808L126.908 41.6635V37.5499L132.558 43.1871ZM133.322 49.129L137.75 53.5473V57.5847L133.322 53.1664V49.129ZM137.75 47.3007L133.322 42.8824V0.832081L137.75 5.25041V47.3007ZM132.558 42.1206L126.908 36.4834V-5.64305L132.558 -0.00588226V42.1206ZM132.558 48.3672V91.1031L126.908 85.4659V42.73L132.558 48.3672ZM133.322 54.2329L137.75 58.6512V96.2832L133.322 91.8649V54.2329ZM137.75 97.3497V117.537L133.322 113.119V92.9314L137.75 97.3497ZM133.322 114.261L137.75 118.68V124.164L133.322 119.746V114.261ZM138.514 119.441L144.317 125.231V150.751L138.514 144.961V119.441ZM144.317 56.7468L138.514 50.9573V0.0703011L144.317 -5.71923V56.7468ZM132.558 92.1696V118.908L126.908 113.271V86.5324L132.558 92.1696ZM132.558 120.051V148.084L126.908 142.447V114.414L132.558 120.051ZM126.908 498.199L132.558 503.836V520.9L126.908 515.263V498.199ZM126.908 497.132V469.099L132.558 474.736V502.769L126.908 497.132ZM133.322 495.532L137.75 499.951V507.949L133.322 503.531V495.532ZM138.514 500.713L144.317 506.502V514.501L138.514 508.711V500.713ZM138.514 300.517V230.28L144.317 236.07V306.306L138.514 300.517ZM138.514 229.214V181.984L144.317 187.773V235.003L138.514 229.214ZM138.514 154.026V146.027L144.317 151.817V159.816L138.514 154.026ZM137.75 -28.3441V-1.07237L133.322 -5.4907V-32.7624L137.75 -28.3441ZM132.558 -33.5242V-6.1763L126.908 -11.8135V-39.2376L132.558 -33.5242ZM126.145 154.407H102.017V131.935H126.145V154.407ZM108.736 76.6293H102.017V13.4776H108.736V76.6293ZM101.254 76.6293H92.0913V13.4776H101.254V76.6293ZM92.0913 77.391H108.736V131.173H92.0913V77.391ZM77.3552 76.6293H68.1929V13.4776H77.3552V76.6293ZM67.4293 76.6293H60.7103V13.4776H67.4293V76.6293ZM60.7103 77.391H77.3552V131.173H60.7103V77.391ZM67.4293 154.407H43.4545V131.935H67.4293V154.407ZM42.691 -39.2376V-11.8897L37.0409 -6.25248V-33.5242L42.691 -39.2376ZM36.2774 -32.7624V-5.41452L31.8489 -0.996197V-28.3441L36.2774 -32.7624ZM31.0854 -7.31897V-0.996197L25.3589 -6.70955L25.2826 -6.63337V-13.0323L31.0854 -7.31897ZM25.2826 540.706V515.567L31.0854 509.778V534.917L25.2826 540.706ZM31.8489 534.155V509.016L36.2774 504.598V521.662V529.736L31.8489 534.155ZM37.0409 528.975V521.966L42.691 516.329V523.337L37.0409 528.975ZM43.4545 337.691H67.582V360.164H43.4545V337.691ZM60.7866 415.469H67.5057V478.621H60.7866V415.469ZM68.3456 415.469H77.5079V478.621H68.3456V415.469ZM77.4315 414.707H60.7866V360.926H77.4315V414.707ZM92.244 415.469H101.406V478.621H92.244V415.469ZM102.094 415.469H108.813V478.621H102.094V415.469ZM108.889 414.707H92.244V360.926H108.889V414.707ZM102.094 337.691H126.145V360.164H102.17V337.691H102.094ZM126.908 523.337V516.329L132.558 521.966V528.975L126.908 523.337ZM133.322 529.736V521.662V504.598L137.75 509.016V534.155L133.322 529.736ZM138.514 534.917V509.778L144.317 515.567V540.706L138.514 534.917Z" fill="#D2AD75"/>
</g>
</g>
</svg>
