<svg width="37" height="20" viewBox="0 0 37 20" fill="none" xmlns="http://www.w3.org/2000/svg">
<path d="M13.4528 1.69903L2.12475 16.243L2.12475 2.01103L0.10875 2.01103L0.10875 19.123H0.20475L11.5328 4.55503L11.5328 18.811L13.5488 18.811L13.5488 1.69903H13.4528ZM17.6203 3.06703C18.5323 3.06703 19.2763 3.01903 20.1643 2.82703L20.1643 18.811L22.1803 18.811L22.1803 1.53103H22.0843C20.5963 2.49103 19.3243 2.82703 17.6203 2.82703V3.06703ZM34.6899 0.859035L34.6179 0.619035C29.6979 1.81904 26.5059 6.23503 26.5059 11.755C26.5059 15.283 28.3779 19.123 31.5939 19.123C34.8099 19.123 36.6819 15.283 36.6819 11.755C36.6819 8.22703 34.8099 5.58704 31.5939 5.58704C30.3699 5.58704 29.5059 6.23503 28.9539 7.12303C29.6019 4.62703 31.2819 2.08303 34.6899 0.859035ZM31.5939 5.82703C34.4979 5.82703 34.6659 9.37903 34.6659 11.755C34.6659 14.107 34.4979 18.883 31.5939 18.883C28.6899 18.883 28.5219 14.107 28.5219 11.755C28.5219 9.23503 28.8099 5.82703 31.5939 5.82703Z" fill="#D2AD75"/>
</svg>
