<svg width="24" height="24" viewBox="0 0 24 24" fill="none" xmlns="http://www.w3.org/2000/svg">
<path fill-rule="evenodd" clip-rule="evenodd" d="M18.1786 5.41405L17.8221 5.15619L12.0002 0.922607L7.74754 4.01344L6.17821 5.15619L0.353027 9.38666L2.57802 16.2336L4.80313 23.0772H7.74741H12H18.1786H19.1972L21.4222 16.2336L23.6472 9.38666L18.1786 5.41405ZM17.2364 5.96799L18.1786 6.65242L22.2721 9.62547L18.1786 10.3703L13.2192 11.2711L12.1656 2.282L17.2364 5.96799ZM6.75121 5.96799L7.74754 5.24222L11.8506 2.26283L10.6633 11.2997L7.74754 10.7427L1.75376 9.59994L6.75121 5.96799ZM3.50761 15.9471L1.51806 9.81323L7.74741 12.6111L9.88649 13.5692L7.74741 17.5226L5.42057 21.8231L3.50761 15.9471ZM18.1786 22.1096H11.9971H7.74754H5.6117L7.74754 19.805L12.0289 15.199L18.1786 21.9537L18.3187 22.1096H18.1786ZM20.48 15.9471L18.5319 21.9314L18.1786 21.2725L14.082 13.684L18.1786 11.8218L22.4504 9.88009L20.48 15.9471Z" fill="#D2AD75"/>
</svg>
