<svg xmlns="http://www.w3.org/2000/svg" xmlns:xlink="http://www.w3.org/1999/xlink" width="484.65" height="523.27" viewBox="0 0 484.65 523.27"><defs><style>.cls-1,.cls-10,.cls-5,.cls-6{fill:none;}.cls-2{clip-path:url(#clip-path);}.cls-3{fill:#6e8081;}.cls-4{fill:#d7a088;}.cls-5,.cls-6{stroke:#58595b;}.cls-10,.cls-5,.cls-6{stroke-miterlimit:10;}.cls-5{stroke-width:0.93px;}.cls-10,.cls-6{stroke-width:0.47px;}.cls-7{fill:#81c5e2;}.cls-8{fill:#fff;}.cls-9{fill:#808285;}.cls-10{stroke:#d1d3d4;}.cls-11{fill:#546873;}</style><clipPath id="clip-path" transform="translate(0 0)"><rect class="cls-1" width="484.65" height="523.27"/></clipPath></defs><title>546546Asset 1</title><g id="Layer_2" data-name="Layer 2"><g id="Layer_1-2" data-name="Layer 1"><g class="cls-2"><path class="cls-3" d="M403.93,272.76s15.11,25.17,16.31,26.92,8.22,2.16,9.4-4.24,3.5-17.71,3.5-17.71l-23.37-7.15Z" transform="translate(0 0)"/><polygon class="cls-4" points="165.59 195.38 163.11 203.91 156.22 201.91 158.71 193.38 151.21 191.2 146.66 206.85 168.54 213.21 173.09 197.56 165.59 195.38"/><path class="cls-5" d="M1.07,206.27l394.3,115.54M.13,209.51l394.3,115.54M216.74,206.45,87.28,168.83M68.59,57.56,89.76,160.29,36.2,344.55M89.76,160.29l127.69-24.68,32.86-20.48,13.93-14.3,99.53-59.65,16.45-14.51M217.94,135.36,142,396.87" transform="translate(0 0)"/><polyline class="cls-6" points="9.79 273.39 264.93 347.54 297.01 327.69 299.2 317.52 295.64 300.38"/><path class="cls-5" d="M227.38,388.82l54.74-194.89.21-.71c2.27-7.8,3.59-11.73,9.35-14.68s35.06-20.79,35.06-20.79" transform="translate(0 0)"/><polygon class="cls-3" points="284.12 257.12 280.38 269.99 272.23 267.62 275.85 254.72 268.32 252.53 260.5 281.04 325.21 300.01 333.35 272.22 284.12 257.12"/><path class="cls-6" d="M178.77,307.23l-4.09,14.08m-1.28-33.87,16.48,4.79-3.5,12.05-7.61,3-10.18-3m23.71,22.16,7-24.21L193,300.37l-3.18,2.26L186.19,315l8.71,2.53m27.84-34.2,5.7,9.12m-19.24-5.59,42.34,12.3m-46.91-30.22-5.13,17.65M221.16,62.91l18,23.62,11.38-.74m6.55,22.83,17.16,25.88L295,120.44M247.29,117,266,146.44m20.74-13.67,23.14,35.11m-95.78-20.61,4,.83,5.07,7.31,33.73,11.21,1.86-15.4L297,126m-52.77,88.42-27.72-7.9,3.52-11.4-9.77-6.88,6-21.94,4.48-4.25m-18.4-86.3c.26-.11,9.45,20.79,9.45,20.79L219.2,92l-3.09-6.14-4.9-3.67-4.59,1.92m4,29,11.69,19.42m-69,15.32,3.59-7.19,6.87-1.14,7.77-13.61,47.34-15.51,3.58,2L251.1,95l1.58-5.42-2.13-3.75.93-3.19-23.7-26.94M156.63,91l4-.81,3,14.75-3,5.65m20.81-35.34,7.11,31.39-3.76.94-4.1-18.38,2.89-4.48M76.71,97c-.09-.41,104.65-21.75,104.65-21.75l16.07,2.52L213.83,71l21.11-23.29m-84.56,70.09L143.44,83m-41.78,47.66,3.78,19m9.86-22.78,3.29,16.42m-34.08-8.46,76.95-19.76-6.92-34.47M63.19,156.55l-.38-14.5M35.94,177.39l-18.71-9.93m16.45,15.33,16.84,4.89M39.86,173.15l20.31,5.9m-12-14.85,19.53,5.68M21.38,212.17l14.56-34.78,21-22.66L88.69,164m-14,48.31L27.56,198.59m29.63,73.75-14.05-4.09-9.9,12m24-7.87L72,276.64m10.51.86-1.19-3.81,1.16-4-1.84-4.49-19.73-5.73M78,293.2l4.56-15.7,35.15,10.21-4.56,15.7m44.46,12.92,5.15-17.72-1.58-2.11-6.58,2.81-7.31-12.23m-5,17.07,17.36,5m-9.25-32.95-10.18,35m-11.63-61.11-6.88,2.13,7.67,23.94,19.43,5.49m-1.25-29.38L145.33,260l-18.08-5.25,2.22-7.65m-.28-48.71,11.74-5.26m40,43,4.51-15.51,6.79,2m-1.76,6.64,13.22,3.84M175,234.42l12.66,3.68M181,206.56l2.81-9.67M195.6,210.8,174,204.53M105.13,174l-7,24.16-9.52-2.77,7-24.16M77.78,201.49,82.87,203l8.73,13.41-4.34,14.94m38.48-21.11,33.37,9.7m-25.28-37.55L117.09,240" transform="translate(0 0)"/><rect class="cls-3" x="274.41" y="148.84" width="8.63" height="17.81" transform="translate(-28.45 248.39) rotate(-45.95)"/><path class="cls-3" d="M142.47,152.49l-4.32,14.88L131.26,169a8.42,8.42,0,0,1-1.84-5.25c-.21-3.61-4.43-6.1-4.43-6.1l.6-2.08-32.45,6.28L91.65,167l105.11,30.55,17-58.58Z" transform="translate(0 0)"/><path class="cls-7" d="M172.43,168.51c3,.13,7-3,11.79-2.81S197.9,169,198,172.78s-7.29,3.09-10.3,3.16c-5.39.12-10.61,3.73-16.47,2.35s-10.58-2.52-15.82-1.52c-3.43.66-8.57-.29-9.35-3.32s1.17-8,10.3-7.88c7.33.1,10.76,2.72,16.07,2.94" transform="translate(0 0)"/></g><path class="cls-8" d="M157.06,172.91a.64.64,0,0,1-.26.38.83.83,0,0,1-.47.13.85.85,0,0,1-.32-.06.68.68,0,0,1-.24-.16.72.72,0,0,1-.15-.25.92.92,0,0,1-.05-.32v-1.11a.92.92,0,0,1,.05-.31.69.69,0,0,1,.15-.25.71.71,0,0,1,.24-.17.83.83,0,0,1,.33-.06.8.8,0,0,1,.46.13.67.67,0,0,1,.27.37l-.3.12a.43.43,0,0,0-.15-.23.44.44,0,0,0-.29-.09.45.45,0,0,0-.2,0,.43.43,0,0,0-.14.1.45.45,0,0,0-.09.15.54.54,0,0,0,0,.18v1.12a.55.55,0,0,0,0,.18.48.48,0,0,0,.09.15.41.41,0,0,0,.14.11.45.45,0,0,0,.2,0,.45.45,0,0,0,.28-.09.42.42,0,0,0,.15-.23Z" transform="translate(0 0)"/><path class="cls-8" d="M158.74,173.06a.61.61,0,0,1-.57.36.87.87,0,0,1-.32-.05.5.5,0,0,1-.22-.17.78.78,0,0,1-.12-.3,2.1,2.1,0,0,1,0-.44,2.15,2.15,0,0,1,0-.35,1,1,0,0,1,.1-.31.59.59,0,0,1,.2-.22.69.69,0,0,1,.82.12.85.85,0,0,1,.17.56v.29h-1a1.65,1.65,0,0,0,0,.23.57.57,0,0,0,.06.19.31.31,0,0,0,.12.13.38.38,0,0,0,.2,0,.3.3,0,0,0,.19-.06.54.54,0,0,0,.14-.15Zm-.25-.75a.71.71,0,0,0-.09-.39.29.29,0,0,0-.26-.13.28.28,0,0,0-.27.14.89.89,0,0,0-.08.38Z" transform="translate(0 0)"/><path class="cls-8" d="M159.61,171.7a.5.5,0,0,1,.19-.15.58.58,0,0,1,.24,0,.5.5,0,0,1,.29.08.51.51,0,0,1,.17.21,1,1,0,0,1,.08.31,3.36,3.36,0,0,1,0,.36,2.86,2.86,0,0,1,0,.35,1,1,0,0,1-.08.31.55.55,0,0,1-.18.22.52.52,0,0,1-.31.08.51.51,0,0,1-.4-.19h0v.93h-.31v-2.64h.31v.17h0Zm.33,1.41a.3.3,0,0,0,.19-.05.35.35,0,0,0,.11-.14.68.68,0,0,0,0-.21q0-.12,0-.25t0-.26a.77.77,0,0,0,0-.21.35.35,0,0,0-.1-.15.34.34,0,0,0-.39,0,.39.39,0,0,0-.1.18.92.92,0,0,0,0,.23c0,.08,0,.16,0,.24s0,.14,0,.21a.7.7,0,0,0,0,.2.35.35,0,0,0,.1.15A.28.28,0,0,0,159.94,173.12Z" transform="translate(0 0)"/><path class="cls-8" d="M162.36,173.06a.61.61,0,0,1-.57.36.87.87,0,0,1-.32-.05.5.5,0,0,1-.22-.17.78.78,0,0,1-.12-.3,2.1,2.1,0,0,1,0-.44,2.15,2.15,0,0,1,0-.35,1,1,0,0,1,.1-.31.59.59,0,0,1,.2-.22.69.69,0,0,1,.82.12.85.85,0,0,1,.17.56v.29h-1a1.65,1.65,0,0,0,0,.23.57.57,0,0,0,.06.19.31.31,0,0,0,.12.13.38.38,0,0,0,.2,0,.3.3,0,0,0,.19-.06.54.54,0,0,0,.14-.15Zm-.25-.75a.71.71,0,0,0-.09-.39.29.29,0,0,0-.26-.13.28.28,0,0,0-.27.14.89.89,0,0,0-.08.38Z" transform="translate(0 0)"/><path class="cls-8" d="M163.64,171.57a.6.6,0,0,1,.32.08.55.55,0,0,1,.19.21.82.82,0,0,1,.08.3,3.66,3.66,0,0,1,0,.38,2.36,2.36,0,0,1,0,.25,1,1,0,0,1,0,.22.57.57,0,0,1-.11.2.6.6,0,0,1-.33.2l-.19,0a.64.64,0,0,1-.36-.09.58.58,0,0,1-.21-.23,1,1,0,0,1-.07-.27,3,3,0,0,1,0-.45s0-.09,0-.14v-.15s0-.09,0-.12a.5.5,0,0,1,0-.07,2.4,2.4,0,0,1,.05-.39,1.17,1.17,0,0,1,.11-.29.73.73,0,0,1,.17-.21,1,1,0,0,1,.24-.15l.26-.1.32-.12.1.22-.16.08-.13.05-.11,0-.12.05a.8.8,0,0,0-.34.27.82.82,0,0,0-.12.41h0a.49.49,0,0,1,.2-.15A.59.59,0,0,1,163.64,171.57Zm-.05.28a.31.31,0,0,0-.31.18.61.61,0,0,0-.05.21,2.84,2.84,0,0,0,0,.3q0,.13,0,.22a.54.54,0,0,0,0,.17.35.35,0,0,0,.12.16.36.36,0,0,0,.21.05.33.33,0,0,0,.2-.06.37.37,0,0,0,.13-.19.57.57,0,0,0,0-.15c0-.07,0-.14,0-.23s0-.08,0-.12,0-.08,0-.12v-.11l0-.08a.41.41,0,0,0-.11-.17A.32.32,0,0,0,163.59,171.85Z" transform="translate(0 0)"/><path class="cls-8" d="M165.07,171.7a.5.5,0,0,1,.19-.15.58.58,0,0,1,.24,0,.5.5,0,0,1,.29.08.51.51,0,0,1,.17.21,1,1,0,0,1,.08.31,3.36,3.36,0,0,1,0,.36,2.86,2.86,0,0,1,0,.35,1,1,0,0,1-.08.31.55.55,0,0,1-.18.22.52.52,0,0,1-.31.08.51.51,0,0,1-.4-.19h0v.93h-.31v-2.64h.31v.17h0Zm.33,1.41a.3.3,0,0,0,.19-.05.35.35,0,0,0,.11-.14.68.68,0,0,0,0-.21q0-.12,0-.25t0-.26a.77.77,0,0,0,0-.21.35.35,0,0,0-.1-.15.34.34,0,0,0-.39,0,.39.39,0,0,0-.1.18.92.92,0,0,0,0,.23c0,.08,0,.16,0,.24s0,.14,0,.21a.7.7,0,0,0,0,.2.35.35,0,0,0,.1.15A.28.28,0,0,0,165.4,173.12Z" transform="translate(0 0)"/><path class="cls-8" d="M166.56,172.1a.54.54,0,0,1,.58-.57h.72v1.87h-.31v-.78h-.25a.2.2,0,0,0-.17.1.79.79,0,0,0-.1.25.75.75,0,0,1-.16.35.4.4,0,0,1-.3.1h-.13v-.24h.1a.15.15,0,0,0,.14-.07.85.85,0,0,0,.08-.23,1.2,1.2,0,0,1,.06-.2.34.34,0,0,1,.08-.11.47.47,0,0,1-.27-.18A.53.53,0,0,1,166.56,172.1Zm.63-.3a.34.34,0,0,0-.24.08.3.3,0,0,0-.09.23.24.24,0,0,0,.08.2.36.36,0,0,0,.24.07h.37v-.58Z" transform="translate(0 0)"/><path class="cls-8" d="M169.4,173.4v-.83h-.68v.83h-.31v-1.88h.31v.8h.68v-.8h.31v1.88Z" transform="translate(0 0)"/><path class="cls-8" d="M170.28,173.4v-1.88h.31v.72h.34a.86.86,0,0,1,.3,0,.53.53,0,0,1,.2.12.45.45,0,0,1,.11.18.73.73,0,0,1,0,.22.62.62,0,0,1-.14.43.63.63,0,0,1-.48.16Zm.31-.28h.34a.28.28,0,0,0,.33-.3.38.38,0,0,0,0-.11.22.22,0,0,0-.05-.09.28.28,0,0,0-.1-.06l-.17,0h-.34Zm1.18.28v-1.88h.31v1.88Z" transform="translate(0 0)"/><path class="cls-8" d="M173.8,172.1l-.29.48-.51.83h-.29v-1.87H173v1.34h0l.28-.47.53-.87h.3v1.87h-.32v-1.3Zm-.64-1.35a.25.25,0,0,0,0,.08l.05.08.08.06.1,0,.11,0,.08-.06a.26.26,0,0,0,.05-.08.21.21,0,0,0,0-.08h.25a.7.7,0,0,1,0,.16.46.46,0,0,1-.24.27.54.54,0,0,1-.24,0,.57.57,0,0,1-.25,0,.48.48,0,0,1-.16-.12.47.47,0,0,1-.09-.15.49.49,0,0,1,0-.16Z" transform="translate(0 0)"/><path class="cls-8" d="M176.75,173.4v-1.6h-.69v1.6h-.31v-1.88h1.3v1.88Z" transform="translate(0 0)"/><path class="cls-8" d="M177.94,171.7a.5.5,0,0,1,.19-.15.58.58,0,0,1,.24,0,.5.5,0,0,1,.29.08.51.51,0,0,1,.17.21,1,1,0,0,1,.08.31,3.36,3.36,0,0,1,0,.36,2.86,2.86,0,0,1,0,.35,1,1,0,0,1-.08.31.55.55,0,0,1-.18.22.52.52,0,0,1-.31.08.51.51,0,0,1-.4-.19h0v.93h-.31v-2.64h.31v.17h0Zm.33,1.41a.3.3,0,0,0,.19-.05.35.35,0,0,0,.11-.14.68.68,0,0,0,0-.21q0-.12,0-.25t0-.26a.77.77,0,0,0,0-.21.35.35,0,0,0-.1-.15.34.34,0,0,0-.39,0,.39.39,0,0,0-.1.18.92.92,0,0,0,0,.23c0,.08,0,.16,0,.24s0,.14,0,.21a.7.7,0,0,0,0,.2.35.35,0,0,0,.1.15A.28.28,0,0,0,178.27,173.12Z" transform="translate(0 0)"/><path class="cls-8" d="M180.06,173.78a.56.56,0,0,1-.19.3.49.49,0,0,1-.3.09h-.1v-.27h.09q.18,0,.24-.27l.08-.28-.6-1.83h.33l.23.75.18.63h0l.17-.63.22-.75h.32Z" transform="translate(0 0)"/><path class="cls-8" d="M181.22,173.89h-.29v-.72l.15,0a.4.4,0,0,0,.1-.1.46.46,0,0,0,.06-.14,1.6,1.6,0,0,0,0-.22l0-.34,0-.8h1.16v1.61h.17v.76h-.29v-.49h-1.15Zm1-2.1h-.58l0,.54,0,.26c0,.08,0,.15,0,.22a1.55,1.55,0,0,1,0,.17.58.58,0,0,1-.06.14h.74Z" transform="translate(0 0)"/><path class="cls-9" d="M108.39,180.59a.38.38,0,0,1-.21.07.76.76,0,0,1-.26,0,.6.6,0,0,1-.22-.11.46.46,0,0,1-.13-.16.49.49,0,0,1,0-.2.68.68,0,0,1,0-.21.58.58,0,0,1,.26-.36.65.65,0,0,1,.52,0l.33.1.06-.22a.26.26,0,0,0,0-.22.38.38,0,0,0-.22-.14.54.54,0,0,0-.21,0,.25.25,0,0,0-.17.1l-.1-.1-.09-.1a.52.52,0,0,1,.29-.16.75.75,0,0,1,.36,0,1.1,1.1,0,0,1,.23.1.58.58,0,0,1,.17.15.46.46,0,0,1,.09.2.63.63,0,0,1,0,.27l-.37,1.28-.3-.09,0-.13Zm.21-.67-.35-.1a.4.4,0,0,0-.25,0,.31.31,0,0,0-.13.42.37.37,0,0,0,.22.15.45.45,0,0,0,.27,0,.28.28,0,0,0,.17-.21Z" transform="translate(0 0)"/><path class="cls-9" d="M109.11,181l0-.13,0-.13.18,0a.34.34,0,0,0,.14-.1.81.81,0,0,0,.11-.2,3.78,3.78,0,0,0,.12-.36l.24-.82,1.1.32-.52,1.8-.29-.08.45-1.55-.53-.15-.2.71a2.08,2.08,0,0,1-.14.37.87.87,0,0,1-.16.23.48.48,0,0,1-.2.12A.94.94,0,0,1,109.11,181Z" transform="translate(0 0)"/><path class="cls-9" d="M111,181.51l.11-.37.35.1-.11.37Z" transform="translate(0 0)"/><path class="cls-9" d="M114.2,182.42v-.62l-.81-.23-.32.53-.31-.09,1.47-2.32.27.08v2.75Zm0-1.62,0-.6h0l-.3.52-.38.61.67.19Z" transform="translate(0 0)"/><path class="cls-9" d="M115.4,180.81l.3.09-.22.78.16,0a.22.22,0,0,0,.21,0,.62.62,0,0,0,.17-.22.7.7,0,0,1,.26-.31.45.45,0,0,1,.34,0l.08,0-.07.23-.06,0a.16.16,0,0,0-.17,0,.67.67,0,0,0-.12.18.91.91,0,0,1-.17.25.39.39,0,0,1-.18.1.37.37,0,0,1,.11.17.74.74,0,0,1,0,.3.7.7,0,0,0,0,.25.17.17,0,0,0,.12.11l.07,0-.07.23-.12,0a.58.58,0,0,1-.17-.07.31.31,0,0,1-.1-.11.51.51,0,0,1,0-.17,1.31,1.31,0,0,1,0-.24.64.64,0,0,0,0-.28.23.23,0,0,0-.16-.14l-.16,0-.23.78-.3-.09Z" transform="translate(0 0)"/><path class="cls-9" d="M117.56,183.24a.4.4,0,0,1-.21.07.78.78,0,0,1-.27,0,.6.6,0,0,1-.22-.11.46.46,0,0,1-.13-.16.49.49,0,0,1,0-.2.68.68,0,0,1,0-.21.58.58,0,0,1,.26-.36.66.66,0,0,1,.52,0l.33.1.06-.22a.25.25,0,0,0,0-.22.37.37,0,0,0-.22-.14.55.55,0,0,0-.21,0,.25.25,0,0,0-.17.1l-.09-.1-.09-.1a.52.52,0,0,1,.29-.16.75.75,0,0,1,.36,0,1,1,0,0,1,.23.1.57.57,0,0,1,.17.15.45.45,0,0,1,.09.2.64.64,0,0,1,0,.27l-.37,1.28-.3-.09,0-.13Zm.21-.67-.35-.1a.39.39,0,0,0-.25,0,.31.31,0,0,0-.13.42.37.37,0,0,0,.22.15.45.45,0,0,0,.27,0,.29.29,0,0,0,.17-.21Z" transform="translate(0 0)"/><path class="cls-9" d="M118.38,184.14l-.28-.08.2-.7h.15l.12-.07a.44.44,0,0,0,.09-.12,1.53,1.53,0,0,0,.09-.2l.12-.32.26-.76,1.12.32-.45,1.54.16,0-.21.73-.28-.08.14-.47-1.1-.32Zm1.51-1.75-.55-.16-.18.51-.09.25-.08.2a1.27,1.27,0,0,1-.08.16.54.54,0,0,1-.1.12l.71.2Z" transform="translate(0 0)"/><path class="cls-9" d="M121.6,184.21a.6.6,0,0,1-.64.19.87.87,0,0,1-.29-.14.5.5,0,0,1-.16-.22.8.8,0,0,1,0-.32,2.11,2.11,0,0,1,.08-.43,2.14,2.14,0,0,1,.12-.33,1,1,0,0,1,.18-.27.65.65,0,0,1,1,.19.85.85,0,0,1,0,.58l-.08.28-1-.28a1.56,1.56,0,0,0,0,.23.58.58,0,0,0,0,.2.31.31,0,0,0,.08.15.38.38,0,0,0,.18.1.31.31,0,0,0,.2,0,.58.58,0,0,0,.17-.11Zm0-.79a.71.71,0,0,0,0-.4.29.29,0,0,0-.21-.2.27.27,0,0,0-.3.06.88.88,0,0,0-.19.34Z" transform="translate(0 0)"/><path class="cls-9" d="M123.42,185.08l.34-1.18h0l-.12.13-.12.13-.22.23-.22.23-.19-.06-.11-.53-.08-.42h0l-.34,1.17-.29-.08.52-1.8.28.08.13.66.05.28c0,.09,0,.18.06.27h0l.38-.41.46-.49.28.08-.52,1.8Z" transform="translate(0 0)"/><path class="cls-9" d="M125.71,184.39l-.41.38-.72.65-.28-.08.52-1.8.3.09-.37,1.29h0l.4-.37.75-.69.28.08-.52,1.8-.31-.09.36-1.25Z" transform="translate(0 0)"/><path class="cls-9" d="M126.56,184.63a.54.54,0,0,1,.72-.38l.69.2-.52,1.8-.3-.08.22-.75-.24-.07a.2.2,0,0,0-.19,0,.78.78,0,0,0-.16.21.77.77,0,0,1-.25.29.4.4,0,0,1-.32,0l-.13,0,.07-.23.09,0a.15.15,0,0,0,.16,0,.88.88,0,0,0,.14-.19,1.19,1.19,0,0,1,.12-.18.34.34,0,0,1,.11-.09.47.47,0,0,1-.2-.25A.53.53,0,0,1,126.56,184.63Zm.69-.12a.34.34,0,0,0-.25,0,.29.29,0,0,0-.15.19.24.24,0,0,0,0,.22.36.36,0,0,0,.21.13l.36.1.16-.55Z" transform="translate(0 0)"/><path class="cls-9" d="M129.78,185.66a3.29,3.29,0,0,1-.19.53,1.2,1.2,0,0,1-.21.32.58.58,0,0,1-.25.15,1.11,1.11,0,0,1-.3,0s0-.09,0-.13,0-.09,0-.14l.2,0a.47.47,0,0,0,.17-.11.81.81,0,0,0,.16-.22,2.17,2.17,0,0,0,.14-.38l.43-1.48,1.31.38-.73,2.54-.3-.09.65-2.26-.72-.21Z" transform="translate(0 0)"/><path class="cls-9" d="M132.53,186.35l-.41.38-.72.65-.28-.08.52-1.8.3.09-.37,1.29h0l.4-.37.75-.69.29.08-.52,1.8-.31-.09.36-1.25Z" transform="translate(0 0)"/><path class="cls-9" d="M134,188.12l-.15-.79-.56.59-.33-.1.79-.77-.25-1,.33.1.14.75.52-.56.33.1-.76.74.26,1.07Z" transform="translate(0 0)"/><path class="cls-9" d="M135.6,188.45a.39.39,0,0,1-.21.07.77.77,0,0,1-.26,0,.59.59,0,0,1-.22-.11.45.45,0,0,1-.13-.16.49.49,0,0,1,0-.2.69.69,0,0,1,0-.21.58.58,0,0,1,.26-.36.66.66,0,0,1,.52,0l.33.1.06-.22a.25.25,0,0,0,0-.22.37.37,0,0,0-.22-.14.54.54,0,0,0-.21,0,.25.25,0,0,0-.17.09l-.09-.1-.09-.1a.52.52,0,0,1,.29-.16.75.75,0,0,1,.36,0,1,1,0,0,1,.23.1.59.59,0,0,1,.17.15.44.44,0,0,1,.09.2.63.63,0,0,1,0,.27l-.37,1.28-.29-.08,0-.13Zm.21-.67-.35-.1a.4.4,0,0,0-.25,0,.31.31,0,0,0-.13.42.36.36,0,0,0,.22.15.45.45,0,0,0,.27,0,.28.28,0,0,0,.17-.21Z" transform="translate(0 0)"/><path class="cls-9" d="M137.5,188.3h0a.93.93,0,0,1-.25,0,.86.86,0,0,1-.23,0,.5.5,0,0,1-.34-.25.74.74,0,0,1,0-.51l.16-.54.29.08-.17.58a.32.32,0,0,0,0,.26.31.31,0,0,0,.19.13l.19,0a.62.62,0,0,0,.23,0l.22-.76.29.08-.52,1.8-.3-.08Z" transform="translate(0 0)"/><path class="cls-9" d="M139.37,189.33a.61.61,0,0,1-.64.19.88.88,0,0,1-.29-.14.5.5,0,0,1-.16-.22.8.8,0,0,1,0-.32,2.12,2.12,0,0,1,.08-.43,2.15,2.15,0,0,1,.12-.33,1,1,0,0,1,.18-.27.6.6,0,0,1,.26-.16.69.69,0,0,1,.75.34.85.85,0,0,1,0,.58l-.08.28-1-.28a1.56,1.56,0,0,0,0,.23.58.58,0,0,0,0,.2.31.31,0,0,0,.08.15.37.37,0,0,0,.18.1.31.31,0,0,0,.2,0,.57.57,0,0,0,.17-.11Zm0-.8a.71.71,0,0,0,0-.4.29.29,0,0,0-.21-.2.28.28,0,0,0-.3.06.89.89,0,0,0-.19.34Z" transform="translate(0 0)"/><path class="cls-9" d="M141.23,189.64a.59.59,0,0,1-.12.24.45.45,0,0,1-.19.13.6.6,0,0,1-.23,0,1.08,1.08,0,0,1-.26,0l-.6-.17.52-1.8.62.18a.67.67,0,0,1,.41.27.49.49,0,0,1,0,.4.46.46,0,0,1-.11.2.4.4,0,0,1-.21.11h0a.35.35,0,0,1,.14.22A.56.56,0,0,1,141.23,189.64Zm-.87-.55-.16.54.31.09a.44.44,0,0,0,.28,0,.26.26,0,0,0,.15-.18.27.27,0,0,0,0-.21.36.36,0,0,0-.23-.15Zm.21-.73-.14.49.29.08a.49.49,0,0,0,.26,0c.06,0,.11-.08.14-.18a.23.23,0,0,0,0-.2.4.4,0,0,0-.23-.13Z" transform="translate(0 0)"/><path class="cls-9" d="M142.49,190.43a.39.39,0,0,1-.21.07.78.78,0,0,1-.27,0,.6.6,0,0,1-.22-.11.45.45,0,0,1-.13-.16.49.49,0,0,1,0-.2.68.68,0,0,1,0-.21.58.58,0,0,1,.26-.36.66.66,0,0,1,.52,0l.33.1.06-.22a.25.25,0,0,0,0-.22.37.37,0,0,0-.22-.14.53.53,0,0,0-.21,0,.25.25,0,0,0-.17.09l-.09-.1-.09-.1a.52.52,0,0,1,.29-.16.75.75,0,0,1,.36,0,1.07,1.07,0,0,1,.23.1.6.6,0,0,1,.17.15.44.44,0,0,1,.09.2.63.63,0,0,1,0,.28l-.37,1.28-.29-.08,0-.13Zm.21-.67-.35-.1a.4.4,0,0,0-.25,0,.31.31,0,0,0-.13.42.36.36,0,0,0,.22.15.46.46,0,0,0,.27,0,.28.28,0,0,0,.17-.21Z" transform="translate(0 0)"/><path class="cls-9" d="M133.44,237.72a.44.44,0,0,0-.39.07.84.84,0,0,0-.27.41l-.42-.2a1.15,1.15,0,0,1,.48-.62.9.9,0,0,1,.73-.07,1,1,0,0,1,.61.43.91.91,0,0,1,.05.73,1.4,1.4,0,0,1-.18.39,1.67,1.67,0,0,1-.31.34l-1.57,1.38,1.29.37-.12.42-1.82-.52.12-.41,1.78-1.56a.92.92,0,0,0,.22-.27,1.48,1.48,0,0,0,.12-.27.78.78,0,0,0,0-.19.45.45,0,0,0,0-.18.4.4,0,0,0-.11-.15A.54.54,0,0,0,133.44,237.72Z" transform="translate(0 0)"/><path class="cls-9" d="M134.56,240.42l.11-.39,1.49.43-.11.39Z" transform="translate(0 0)"/><path class="cls-9" d="M138.65,240.89l-.62.56-1.08,1-.42-.12.78-2.69.45.13-.55,1.92h0l.6-.55,1.12-1,.42.12-.78,2.69-.46-.13.54-1.87Zm-.36-2.19a.38.38,0,0,0,0,.12.47.47,0,0,0,0,.13.42.42,0,0,0,.09.12.34.34,0,0,0,.14.08.38.38,0,0,0,.17,0,.4.4,0,0,0,.14,0A.38.38,0,0,0,139,239a.32.32,0,0,0,.06-.11l.36.11a1.07,1.07,0,0,1-.12.21.71.71,0,0,1-.19.18.7.7,0,0,1-.27.1.81.81,0,0,1-.37,0,.84.84,0,0,1-.33-.17.71.71,0,0,1-.18-.23.68.68,0,0,1-.06-.26.72.72,0,0,1,0-.24Z" transform="translate(0 0)"/><path class="cls-9" d="M143.4,244.28l.76-2.64h0l-.51.64-.86,1-.31-.09-.18-1.34-.08-.8h0l-.76,2.64-.45-.13,1.09-3.79.46.13.21,1.61.11,1h0l.63-.78,1-1.24.45.13-1.09,3.79Z" transform="translate(0 0)"/><path class="cls-9" d="M145.41,245.45a.83.83,0,0,1-.39.35.72.72,0,0,1-.47,0l-.14,0,.11-.38.13,0q.25.07.46-.29l.23-.36-.11-2.88.47.13,0,1.17v1h0l.5-.84.63-1,.46.13Z" transform="translate(0 0)"/><path class="cls-9" d="M148.2,243a.75.75,0,0,1,.33-.14.88.88,0,0,1,.36,0,.75.75,0,0,1,.39.23.77.77,0,0,1,.16.37,1.47,1.47,0,0,1,0,.47,5,5,0,0,1-.12.53,4.39,4.39,0,0,1-.17.5,1.52,1.52,0,0,1-.25.41.83.83,0,0,1-.35.24.77.77,0,0,1-.47,0,.76.76,0,0,1-.49-.43h0l-.38,1.33-.44-.13,1.09-3.78.44.13-.07.25h0Zm-.11,2.17a.45.45,0,0,0,.29,0,.53.53,0,0,0,.21-.16,1,1,0,0,0,.16-.28c0-.11.08-.23.12-.36s.07-.25.09-.37a1.18,1.18,0,0,0,0-.32.52.52,0,0,0-.09-.25.43.43,0,0,0-.24-.16.42.42,0,0,0-.33,0,.59.59,0,0,0-.22.21,1.33,1.33,0,0,0-.14.32l-.1.34c0,.1-.05.2-.07.3a1,1,0,0,0,0,.3.52.52,0,0,0,.09.25A.42.42,0,0,0,148.09,245.19Z" transform="translate(0 0)"/><path class="cls-9" d="M151.86,244.7l-.62.57-1.08,1-.42-.12.77-2.69.45.13-.55,1.92h0l.6-.55,1.12-1,.42.12-.77,2.69-.46-.13.54-1.87Z" transform="translate(0 0)"/><path class="cls-9" d="M154.1,247.37l.34-1.19-1-.28-.34,1.19-.44-.13.78-2.69.44.13-.33,1.14,1,.28.33-1.14.44.13-.78,2.69Z" transform="translate(0 0)"/><path class="cls-9" d="M156.92,247.48l.16.15.16.16a.86.86,0,0,1-.42.26,1,1,0,0,1-.54,0,1.11,1.11,0,0,1-.47-.25.81.81,0,0,1-.23-.38,1.3,1.3,0,0,1,0-.5,3.81,3.81,0,0,1,.13-.6,1.75,1.75,0,0,1,.52-.89.9.9,0,0,1,.87-.14,1,1,0,0,1,.46.28.9.9,0,0,1,.21.45l-.42.12a.5.5,0,0,0-.12-.27.52.52,0,0,0-.26-.16.58.58,0,0,0-.31,0,.5.5,0,0,0-.23.14.94.94,0,0,0-.17.26,3,3,0,0,0-.13.36,3.3,3.3,0,0,0-.09.39,1.16,1.16,0,0,0,0,.35.58.58,0,0,0,.11.28.49.49,0,0,0,.27.17.48.48,0,0,0,.3,0A.61.61,0,0,0,156.92,247.48Z" transform="translate(0 0)"/><path class="cls-9" d="M158.46,245.71l.44.13-.34,1.16.25.07a.34.34,0,0,0,.31-.06.93.93,0,0,0,.25-.32,1.06,1.06,0,0,1,.39-.47.67.67,0,0,1,.51,0l.12,0-.1.35-.09,0a.24.24,0,0,0-.25,0,1,1,0,0,0-.18.27,1.31,1.31,0,0,1-.26.37.58.58,0,0,1-.26.14.56.56,0,0,1,.16.25,1.13,1.13,0,0,1,0,.45,1,1,0,0,0,0,.38.25.25,0,0,0,.19.16l.11,0-.1.35-.17-.05a.84.84,0,0,1-.25-.11.48.48,0,0,1-.15-.17.75.75,0,0,1-.07-.25,1.9,1.9,0,0,1,0-.36,1,1,0,0,0,0-.41.34.34,0,0,0-.24-.21l-.25-.07-.34,1.17-.44-.13Z" transform="translate(0 0)"/><path class="cls-9" d="M162.47,247.76l-.62.56-1.08,1-.42-.12.78-2.69.45.13-.55,1.92h0l.6-.55,1.12-1,.42.12-.78,2.69-.46-.13.54-1.87Z" transform="translate(0 0)"/><path class="cls-9" d="M165.44,248.62l-.62.57-1.08,1-.42-.12.77-2.69.45.13L164,249.4h0l.6-.55,1.12-1,.42.12-.77,2.69-.46-.13.54-1.87Zm-.36-2.19a.35.35,0,0,0,0,.12.41.41,0,0,0,0,.13.41.41,0,0,0,.09.12.35.35,0,0,0,.14.08.41.41,0,0,0,.17,0,.4.4,0,0,0,.14,0,.37.37,0,0,0,.11-.09.32.32,0,0,0,.06-.11l.36.1a1.11,1.11,0,0,1-.12.21.72.72,0,0,1-.19.18.7.7,0,0,1-.27.1.81.81,0,0,1-.37,0,.83.83,0,0,1-.33-.17.71.71,0,0,1-.18-.23.69.69,0,0,1-.07-.26.75.75,0,0,1,0-.24Z" transform="translate(0 0)"/><path class="cls-9" d="M169.13,251.71l.66-2.3-1-.28-.66,2.3-.44-.13.78-2.69,1.87.54-.78,2.69Z" transform="translate(0 0)"/><path class="cls-9" d="M171.55,249.76a.76.76,0,0,1,.33-.14.87.87,0,0,1,.36,0,.75.75,0,0,1,.39.23.77.77,0,0,1,.16.37,1.48,1.48,0,0,1,0,.47,5.34,5.34,0,0,1-.12.53,4.42,4.42,0,0,1-.17.5,1.51,1.51,0,0,1-.25.41.84.84,0,0,1-.35.24.76.76,0,0,1-.47,0,.76.76,0,0,1-.49-.43h0l-.38,1.33-.44-.13,1.09-3.78.44.13-.07.25h0Zm-.11,2.17a.44.44,0,0,0,.29,0,.52.52,0,0,0,.21-.16,1,1,0,0,0,.16-.28,3.67,3.67,0,0,0,.12-.35c0-.13.07-.25.09-.37a1.16,1.16,0,0,0,0-.32.52.52,0,0,0-.09-.25.52.52,0,0,0-.57-.14.6.6,0,0,0-.22.21,1.38,1.38,0,0,0-.14.32l-.1.34c0,.1-.05.2-.07.3a1.06,1.06,0,0,0,0,.3.52.52,0,0,0,.09.25A.43.43,0,0,0,171.44,251.93Z" transform="translate(0 0)"/><path class="cls-9" d="M173.11,252.85l.16-.55.52.15-.16.55Z" transform="translate(0 0)"/><path class="cls-9" d="M353.54,386.07a.82.82,0,0,1,.07.52.72.72,0,0,1-.26.4l-.11.09-.25-.3.1-.09c.14-.11.14-.29,0-.54l-.17-.39-2.44-1.53.37-.31,1,.64.81.56h0l-.41-.89-.46-1.07.37-.3Z" transform="translate(0 0)"/><path class="cls-9" d="M354.24,384.87l-.18-.09-.18-.09a1.55,1.55,0,0,0,.09-.27.5.5,0,0,0,0-.25,1.16,1.16,0,0,0-.16-.31q-.12-.18-.35-.45l-.81-1,1.32-1.1,1.79,2.16-.35.29-1.54-1.85-.64.53.7.85a3,3,0,0,1,.34.48,1.25,1.25,0,0,1,.14.4.71.71,0,0,1,0,.35A1.34,1.34,0,0,1,354.24,384.87Z" transform="translate(0 0)"/><path class="cls-9" d="M356.48,382.9l-.37-.44.41-.34.37.44Z" transform="translate(0 0)"/><path class="cls-9" d="M356.27,377.94l.37-.3,1.12,1.35.27-.22a.43.43,0,0,0,.16-.41,1.53,1.53,0,0,0-.23-.57,1.43,1.43,0,0,1-.28-.76.73.73,0,0,1,.3-.53l.09-.07.26.32-.07.06a.39.39,0,0,0-.12.15.31.31,0,0,0,0,.17.77.77,0,0,0,.08.21l.15.26a1.91,1.91,0,0,1,.26.59.28.28,0,1,0,.36.43,1.77,1.77,0,0,1,.58.37,1.66,1.66,0,0,0,.43.29.3.3,0,0,0,.34-.06l.09-.08.26.31-.13.11a.9.9,0,0,1-.28.16.57.57,0,0,1-.29,0,1.09,1.09,0,0,1-.32-.13,2.67,2.67,0,0,1-.38-.29,1.58,1.58,0,0,0-.53-.32.44.44,0,0,0-.43.08l-.27.22,1.13,1.36-.37.3Z" transform="translate(0 0)"/><path class="cls-9" d="M362.05,378a.57.57,0,0,1-.09.32,1.13,1.13,0,0,1-.26.3.89.89,0,0,1-.32.18.67.67,0,0,1-.31,0,.75.75,0,0,1-.28-.11,1,1,0,0,1-.24-.21.87.87,0,0,1-.22-.62,1,1,0,0,1,.41-.66l.4-.33-.22-.27a.37.37,0,0,0-.29-.15.57.57,0,0,0-.36.16.82.82,0,0,0-.2.24.37.37,0,0,0,0,.29l-.21,0-.21,0a.77.77,0,0,1,0-.49,1.09,1.09,0,0,1,.32-.43,1.51,1.51,0,0,1,.31-.21.83.83,0,0,1,.32-.09.66.66,0,0,1,.33.06,1,1,0,0,1,.32.26l1.28,1.53-.35.29-.13-.16Zm-.65-.82-.42.35a.59.59,0,0,0-.21.31.4.4,0,0,0,.11.35.39.39,0,0,0,.29.15.53.53,0,0,0,.37-.15.67.67,0,0,0,.23-.33.43.43,0,0,0-.12-.39Z" transform="translate(0 0)"/><path class="cls-9" d="M361.9,375.09a.75.75,0,0,1,.07-.36.85.85,0,0,1,.23-.28.73.73,0,0,1,.41-.19.77.77,0,0,1,.39.08,1.43,1.43,0,0,1,.38.28,4.76,4.76,0,0,1,.37.4,4,4,0,0,1,.31.42,1.47,1.47,0,0,1,.2.44.82.82,0,0,1,0,.43.82.82,0,0,1-.9.55h0l.88,1.06-.35.29-2.52-3,.35-.29.17.2h0Zm1.73,1.31a.44.44,0,0,0,.16-.24.52.52,0,0,0,0-.26,1.05,1.05,0,0,0-.14-.28,3.56,3.56,0,0,0-.22-.3l-.26-.29a1.15,1.15,0,0,0-.26-.2.54.54,0,0,0-.26-.07.43.43,0,0,0-.27.11.44.44,0,0,0-.17.28.6.6,0,0,0,.05.3,1.36,1.36,0,0,0,.18.3l.22.27.21.23a1.06,1.06,0,0,0,.24.18.52.52,0,0,0,.26.07A.42.42,0,0,0,363.63,376.39Z" transform="translate(0 0)"/><path class="cls-9" d="M364.35,372.8a.9.9,0,0,1,.44-.22.8.8,0,0,1,.42.06,1.2,1.2,0,0,1,.38.27,5.36,5.36,0,0,1,.38.41,3.55,3.55,0,0,1,.23.3,1.5,1.5,0,0,1,.15.3.85.85,0,0,1,0,.63.87.87,0,0,1-.14.25,1.4,1.4,0,0,1-.2.21,1,1,0,0,1-.5.23.86.86,0,0,1-.46-.07,1.45,1.45,0,0,1-.35-.24,4.76,4.76,0,0,1-.45-.49l-.13-.16-.13-.18-.11-.14-.05-.08a3.67,3.67,0,0,1-.31-.5,1.75,1.75,0,0,1-.15-.44,1.08,1.08,0,0,1,0-.4,1.5,1.5,0,0,1,.14-.4c.06-.12.13-.24.2-.36l.25-.45.33.16-.11.24-.09.18L364,372l-.09.17a1.05,1.05,0,0,0,.12,1.21h0a.75.75,0,0,1,.09-.37A.87.87,0,0,1,364.35,372.8Zm.2.37a.47.47,0,0,0-.18.5,1,1,0,0,0,.14.3,4.28,4.28,0,0,0,.27.35l.21.25a.81.81,0,0,0,.2.16.53.53,0,0,0,.29.07.54.54,0,0,0,.29-.14.51.51,0,0,0,.17-.27.55.55,0,0,0,0-.34.85.85,0,0,0-.12-.2l-.22-.27-.12-.13-.13-.13-.12-.11-.09-.07a.6.6,0,0,0-.29-.08A.48.48,0,0,0,364.55,373.17Z" transform="translate(0 0)"/><path class="cls-9" d="M367.41,373.8l-1.79-2.15.36-.3.69.83.39-.33a1.31,1.31,0,0,1,.39-.23.8.8,0,0,1,.34,0,.64.64,0,0,1,.3.1,1.11,1.11,0,0,1,.25.22.93.93,0,0,1,.24.63.94.94,0,0,1-.4.64Zm.09-.62.39-.33a.42.42,0,0,0,.1-.66.55.55,0,0,0-.12-.11.35.35,0,0,0-.15-.05.43.43,0,0,0-.18,0,.71.71,0,0,0-.21.13l-.39.32Zm1.62-.8-1.79-2.16.36-.3,1.79,2.16Z" transform="translate(0 0)"/><path class="cls-9" d="M370.81,367.33l1.79,2.15-2.44,2-1.79-2.15.35-.29,1.52,1.83.69-.57-1.52-1.83.35-.29,1.52,1.83.69-.58-1.52-1.83Z" transform="translate(0 0)"/><path class="cls-9" d="M374.35,367.37a.91.91,0,0,1,0,.52.92.92,0,0,1-.3.44,1.29,1.29,0,0,1-.42.25.73.73,0,0,1-.41,0,1.18,1.18,0,0,1-.43-.22,3.17,3.17,0,0,1-.47-.47,3.24,3.24,0,0,1-.3-.43,1.44,1.44,0,0,1-.18-.45.84.84,0,0,1,.32-.86.9.9,0,0,1,.75-.23,1.26,1.26,0,0,1,.73.48l.28.33-1.17,1a2.76,2.76,0,0,0,.24.25.88.88,0,0,0,.25.16.47.47,0,0,0,.25,0,.59.59,0,0,0,.27-.14.46.46,0,0,0,.15-.25.81.81,0,0,0,0-.31Zm-1-.62a1,1,0,0,0-.47-.36.44.44,0,0,0-.42.1.42.42,0,0,0-.18.42,1.34,1.34,0,0,0,.27.51Z" transform="translate(0 0)"/><path class="cls-9" d="M376.29,365.32a.88.88,0,0,1,.19.35.67.67,0,0,1,0,.33.91.91,0,0,1-.15.31,1.58,1.58,0,0,1-.27.29l-.72.6-1.79-2.15.74-.62a1,1,0,0,1,.67-.28.73.73,0,0,1,.53.28.69.69,0,0,1,.15.3.6.6,0,0,1,0,.35h0a.51.51,0,0,1,.39,0A.83.83,0,0,1,376.29,365.32Zm-2.14-.26.49.59.35-.29a.72.72,0,0,0,.24-.3.34.34,0,0,0-.11-.32.33.33,0,0,0-.27-.14.58.58,0,0,0-.36.17Zm.72.87.54.65.37-.31a.65.65,0,0,0,.24-.34.38.38,0,0,0-.1-.34.4.4,0,0,0-.28-.16.54.54,0,0,0-.37.16Z" transform="translate(0 0)"/><path class="cls-9" d="M378.33,364.44a.57.57,0,0,1-.09.31,1.15,1.15,0,0,1-.26.3.92.92,0,0,1-.32.18.68.68,0,0,1-.31,0,.75.75,0,0,1-.28-.11,1,1,0,0,1-.24-.21.87.87,0,0,1-.22-.62,1,1,0,0,1,.41-.66l.4-.33-.22-.27a.37.37,0,0,0-.29-.15.57.57,0,0,0-.36.16.82.82,0,0,0-.2.24.38.38,0,0,0,0,.29l-.21,0-.21,0a.77.77,0,0,1,0-.49,1.1,1.1,0,0,1,.32-.43,1.58,1.58,0,0,1,.31-.21.86.86,0,0,1,.32-.09.65.65,0,0,1,.33.06.94.94,0,0,1,.32.26l1.28,1.53-.35.29-.13-.16Zm-.65-.82-.42.35a.58.58,0,0,0-.21.31.4.4,0,0,0,.11.35.39.39,0,0,0,.29.15.53.53,0,0,0,.37-.15.68.68,0,0,0,.23-.33.43.43,0,0,0-.12-.39Z" transform="translate(0 0)"/><path class="cls-9" d="M175.75,140.44l-.34-1.81h0l-.11.54-.21.87-.21,0-.51-.75-.29-.45h0l.33,1.81-.31.06-.48-2.6.31-.06.61.9.36.56h0l.14-.66.24-1.05.31-.06.48,2.6Z" transform="translate(0 0)"/><path class="cls-9" d="M177.54,140a.39.39,0,0,1-.15.16.76.76,0,0,1-.25.09.62.62,0,0,1-.24,0,.45.45,0,0,1-.19-.09.48.48,0,0,1-.13-.15.7.7,0,0,1-.07-.2.58.58,0,0,1,.08-.44.65.65,0,0,1,.46-.25l.34-.06,0-.23a.25.25,0,0,0-.12-.18.38.38,0,0,0-.26,0,.53.53,0,0,0-.2.08.25.25,0,0,0-.11.16l-.13,0-.13-.05a.53.53,0,0,1,.19-.27.75.75,0,0,1,.33-.14,1,1,0,0,1,.25,0,.6.6,0,0,1,.22.05.44.44,0,0,1,.17.14.64.64,0,0,1,.1.26l.24,1.31-.3.06,0-.13Zm-.11-.69-.36.07a.4.4,0,0,0-.23.11.31.31,0,0,0,.07.43.36.36,0,0,0,.26,0,.45.45,0,0,0,.25-.12.29.29,0,0,0,.06-.27Z" transform="translate(0 0)"/><path class="cls-9" d="M178.38,140l-.07-.11-.07-.11.14-.13a.35.35,0,0,0,.08-.15.77.77,0,0,0,0-.23c0-.09,0-.22-.05-.38l-.15-.84,1.13-.21.34,1.85-.3.06-.29-1.58-.54.1.13.72a2,2,0,0,1,0,.39.87.87,0,0,1,0,.28.5.5,0,0,1-.13.2A.9.9,0,0,1,178.38,140Z" transform="translate(0 0)"/><path class="cls-9" d="M181.18,139.29a.39.39,0,0,1-.15.16.78.78,0,0,1-.25.09.62.62,0,0,1-.24,0,.46.46,0,0,1-.19-.09.48.48,0,0,1-.13-.15.69.69,0,0,1-.07-.2.58.58,0,0,1,.08-.44.66.66,0,0,1,.46-.25l.34-.06,0-.23a.25.25,0,0,0-.12-.18.38.38,0,0,0-.26,0,.54.54,0,0,0-.2.08.25.25,0,0,0-.11.16l-.13,0L180,138a.53.53,0,0,1,.19-.28.75.75,0,0,1,.33-.14,1.05,1.05,0,0,1,.25,0,.6.6,0,0,1,.22.05.46.46,0,0,1,.17.14.64.64,0,0,1,.1.26l.24,1.31-.3.06,0-.13Zm-.11-.69-.36.07a.4.4,0,0,0-.23.11.31.31,0,0,0,.07.43.37.37,0,0,0,.26,0,.46.46,0,0,0,.25-.12.29.29,0,0,0,.06-.27Z" transform="translate(0 0)"/><path class="cls-9" d="M181.78,138a.53.53,0,0,1,.47-.67l.71-.13.34,1.84-.3.06-.14-.76-.24,0a.2.2,0,0,0-.15.13.77.77,0,0,0-.05.26.75.75,0,0,1-.09.37.39.39,0,0,1-.28.16l-.13,0,0-.23.1,0a.15.15,0,0,0,.13-.09.85.85,0,0,0,0-.24,1.24,1.24,0,0,1,0-.21.37.37,0,0,1,.06-.13.46.46,0,0,1-.29-.13A.53.53,0,0,1,181.78,138Zm.57-.41a.34.34,0,0,0-.22.12.29.29,0,0,0,0,.24.25.25,0,0,0,.12.18.37.37,0,0,0,.24,0l.37-.07-.11-.57Z" transform="translate(0 0)"/><path class="cls-9" d="M185.1,136.78a.62.62,0,0,1,.36,0,.67.67,0,0,1,.24.18.47.47,0,0,1,.07.11,1.35,1.35,0,0,1,.06.15l.05.18,0,.18,0,.13c0,.05,0,.1,0,.16s0,.11,0,.16a.77.77,0,0,1,0,.12.49.49,0,0,1-.07.2.54.54,0,0,1-.13.15.71.71,0,0,1-.17.1l-.19.06a.64.64,0,0,1-.37,0,.57.57,0,0,1-.25-.19.84.84,0,0,1-.12-.25,3.4,3.4,0,0,1-.13-.68,1,1,0,0,1,0-.27.6.6,0,0,1,.18-.31A.71.71,0,0,1,185.1,136.78Zm0,.27a.37.37,0,0,0-.18.09.31.31,0,0,0-.1.18.86.86,0,0,0,0,.21c0,.09,0,.19,0,.31s0,.16,0,.23a.58.58,0,0,0,.07.18.35.35,0,0,0,.15.13.33.33,0,0,0,.21,0,.37.37,0,0,0,.19-.09.33.33,0,0,0,.09-.2.74.74,0,0,0,0-.18c0-.08,0-.18,0-.28s0-.17-.05-.24a.76.76,0,0,0-.06-.18.34.34,0,0,0-.15-.14A.33.33,0,0,0,185.15,137.05Z" transform="translate(0 0)"/><path class="cls-9" d="M187,136.5a.6.6,0,0,1,.33,0,.55.55,0,0,1,.23.17.82.82,0,0,1,.13.28,3.58,3.58,0,0,1,.09.37,2.5,2.5,0,0,1,0,.25,1,1,0,0,1,0,.22.56.56,0,0,1-.07.22.62.62,0,0,1-.13.15.59.59,0,0,1-.17.1l-.18.05a.63.63,0,0,1-.37,0,.58.58,0,0,1-.25-.19,1,1,0,0,1-.12-.26,3,3,0,0,1-.1-.43l0-.14,0-.15,0-.12a.52.52,0,0,1,0-.07,2.48,2.48,0,0,1,0-.4,1.19,1.19,0,0,1,.05-.3.72.72,0,0,1,.13-.24,1.06,1.06,0,0,1,.21-.19l.23-.15.3-.18.14.2-.15.1-.11.08-.1.06-.11.07a.8.8,0,0,0-.28.32.82.82,0,0,0,0,.42h0a.5.5,0,0,1,.17-.19A.59.59,0,0,1,187,136.5Zm0,.28a.31.31,0,0,0-.27.23.62.62,0,0,0,0,.22,2.79,2.79,0,0,0,0,.29c0,.08,0,.15,0,.21a.54.54,0,0,0,.07.16.34.34,0,0,0,.15.13.36.36,0,0,0,.22,0,.33.33,0,0,0,.19-.1.37.37,0,0,0,.09-.21.54.54,0,0,0,0-.16c0-.07,0-.14,0-.23l0-.12,0-.12,0-.1,0-.07a.43.43,0,0,0-.14-.14A.32.32,0,0,0,187,136.78Z" transform="translate(0 0)"/><path class="cls-9" d="M188.84,138l-.29-1.58-.54.1,0-.26.85-.16.13.71.34-.06a.85.85,0,0,1,.3,0,.51.51,0,0,1,.22.08.45.45,0,0,1,.14.16.72.72,0,0,1,.07.21.61.61,0,0,1-.06.45.63.63,0,0,1-.45.24Zm.26-.34.34-.06a.32.32,0,0,0,.24-.14.32.32,0,0,0,0-.22.36.36,0,0,0,0-.1.21.21,0,0,0-.07-.08l-.11,0h-.17l-.33.06Z" transform="translate(0 0)"/><path class="cls-9" d="M191.7,137.14a.6.6,0,0,1-.17.3.61.61,0,0,1-.32.16.86.86,0,0,1-.33,0,.49.49,0,0,1-.25-.13.77.77,0,0,1-.18-.27,2.3,2.3,0,0,1-.15-.78,1,1,0,0,1,0-.32.65.65,0,0,1,1-.29.85.85,0,0,1,.27.52l.05.29-1,.18a1.6,1.6,0,0,0,.06.23.55.55,0,0,0,.09.17.31.31,0,0,0,.14.1.38.38,0,0,0,.2,0,.3.3,0,0,0,.17-.1.54.54,0,0,0,.11-.17Zm-.39-.7a.71.71,0,0,0-.16-.37.3.3,0,0,0-.28-.08.28.28,0,0,0-.24.19.89.89,0,0,0,0,.39Z" transform="translate(0 0)"/><path class="cls-9" d="M193,136.24a.4.4,0,0,1,.23.14.56.56,0,0,1,.09.23.52.52,0,0,1-.1.45.74.74,0,0,1-.45.24.89.89,0,0,1-.4,0,.48.48,0,0,1-.28-.22l.22-.18a.27.27,0,0,0,.17.13.52.52,0,0,0,.25,0,.41.41,0,0,0,.24-.12.27.27,0,0,0,.06-.24.27.27,0,0,0-.12-.19.29.29,0,0,0-.22,0l-.22,0,0-.25.23,0a.27.27,0,0,0,.19-.1.26.26,0,0,0,0-.2.24.24,0,0,0-.11-.17.33.33,0,0,0-.23,0,.54.54,0,0,0-.22.09.29.29,0,0,0-.12.18l-.26-.1a.5.5,0,0,1,.18-.3.77.77,0,0,1,.35-.16.67.67,0,0,1,.49.05.49.49,0,0,1,.21.34.58.58,0,0,1,0,.24A.32.32,0,0,1,193,136.24Z" transform="translate(0 0)"/><path class="cls-9" d="M194.25,137.51l-.29.05-.13-.71.14-.06a.39.39,0,0,0,.08-.12.43.43,0,0,0,0-.15,1.6,1.6,0,0,0,0-.23l0-.34-.11-.8,1.14-.21.29,1.58.16,0,.14.75-.29.05-.09-.48-1.13.21Zm.56-2.24-.57.11.07.54,0,.26c0,.08,0,.15,0,.22a1.63,1.63,0,0,1,0,.18.6.6,0,0,1,0,.15l.72-.13Z" transform="translate(0 0)"/><path class="cls-9" d="M197,136.5l-.15-.81-.67.12.15.81-.3.06-.34-1.85.3-.06.15.78.67-.12-.15-.78.3-.06.34,1.85Z" transform="translate(0 0)"/><path class="cls-9" d="M198.76,136a.4.4,0,0,1-.15.16.78.78,0,0,1-.25.09.61.61,0,0,1-.24,0,.46.46,0,0,1-.19-.09.49.49,0,0,1-.13-.16.7.7,0,0,1-.07-.2.58.58,0,0,1,.08-.44.65.65,0,0,1,.46-.25l.34-.06,0-.23a.25.25,0,0,0-.12-.18.39.39,0,0,0-.26,0,.55.55,0,0,0-.2.08.25.25,0,0,0-.11.16l-.13,0-.13-.05a.53.53,0,0,1,.19-.27.75.75,0,0,1,.33-.14,1.05,1.05,0,0,1,.25,0,.59.59,0,0,1,.22.05.45.45,0,0,1,.17.14.64.64,0,0,1,.1.26l.24,1.31-.3.06,0-.13Zm-.11-.69-.36.07a.39.39,0,0,0-.23.11.31.31,0,0,0,.07.43.36.36,0,0,0,.26,0,.45.45,0,0,0,.25-.12.29.29,0,0,0,.06-.27Z" transform="translate(0 0)"/><path class="cls-9" d="M199.37,134.74a.54.54,0,0,1,.47-.67l.71-.13.34,1.84-.3.06-.14-.76-.24,0a.2.2,0,0,0-.15.13.77.77,0,0,0-.05.26.75.75,0,0,1-.09.37.4.4,0,0,1-.28.16l-.13,0,0-.23.1,0a.15.15,0,0,0,.13-.09.86.86,0,0,0,0-.24,1.15,1.15,0,0,1,0-.21.35.35,0,0,1,.06-.13.47.47,0,0,1-.29-.13A.53.53,0,0,1,199.37,134.74Zm.57-.41a.33.33,0,0,0-.22.12.29.29,0,0,0,0,.24.25.25,0,0,0,.12.18.37.37,0,0,0,.24,0l.37-.07-.11-.57Z" transform="translate(0 0)"/><path class="cls-9" d="M203,135.77a.55.55,0,0,1-.13.32.49.49,0,0,1-.28.15l-.1,0,0-.26.09,0c.12,0,.18-.12.19-.31l0-.29-.93-1.69.32-.06.36.7.29.59h0l0-.65.08-.78.31-.06Z" transform="translate(0 0)"/><path class="cls-9" d="M203.84,135.3l-.07-.11-.08-.11.14-.13a.35.35,0,0,0,.08-.15.79.79,0,0,0,0-.23,3.79,3.79,0,0,0-.05-.38l-.15-.83,1.13-.21.34,1.85-.3.06-.29-1.58-.54.1.13.72a2.07,2.07,0,0,1,0,.39.86.86,0,0,1,0,.28.49.49,0,0,1-.13.2A.9.9,0,0,1,203.84,135.3Z" transform="translate(0 0)"/><path class="cls-9" d="M205.8,134.88l-.07-.38.35-.07.07.38Z" transform="translate(0 0)"/><path class="cls-9" d="M333.53,178.66l2-1.26-.54-.87-2,1.26-.24-.39,2.39-1.47,1,1.65L333.77,179Z" transform="translate(0 0)"/><path class="cls-9" d="M336.62,178.84a.77.77,0,0,1,.34.12.86.86,0,0,1,.25.27.75.75,0,0,1,.13.44.78.78,0,0,1-.13.38,1.44,1.44,0,0,1-.33.34,5.07,5.07,0,0,1-.45.31,4.25,4.25,0,0,1-.46.25,1.5,1.5,0,0,1-.46.13.81.81,0,0,1-.42-.06.82.82,0,0,1-.42-1h0l-1.18.72-.24-.39,3.35-2.06.24.39-.22.14h0Zm-1.54,1.53a.44.44,0,0,0,.21.19.53.53,0,0,0,.26,0,1,1,0,0,0,.3-.1l.33-.18.32-.22a1.17,1.17,0,0,0,.23-.23.5.5,0,0,0,.1-.25.5.5,0,0,0-.33-.49.58.58,0,0,0-.3,0,1.33,1.33,0,0,0-.32.14l-.3.18-.26.18a1.09,1.09,0,0,0-.21.21.53.53,0,0,0-.1.25A.43.43,0,0,0,335.08,180.37Z" transform="translate(0 0)"/><path class="cls-9" d="M335.7,182.18l.49-.3.28.46-.49.3Z" transform="translate(0 0)"/><path class="cls-9" d="M340.8,183.75l-3,1.84-.25-.4,3-1.84-.47-.77.36-.22,1.19,1.93-.36.22Z" transform="translate(0 0)"/><path class="cls-9" d="M341.5,186.19a.9.9,0,0,1,.16.52,1,1,0,0,1-.12.43.76.76,0,0,1-.12.15l-.18.17-.22.17-.23.15-.17.1-.21.11-.22.1-.18.06a.76.76,0,0,1-.31,0,.81.81,0,0,1-.27-.1,1.1,1.1,0,0,1-.23-.18,1.37,1.37,0,0,1-.18-.24.94.94,0,0,1-.16-.52.86.86,0,0,1,.14-.45,1.28,1.28,0,0,1,.29-.3,4.61,4.61,0,0,1,.44-.3,5,5,0,0,1,.45-.25,1.46,1.46,0,0,1,.38-.13.89.89,0,0,1,.52.08A1,1,0,0,1,341.5,186.19Zm-.36.21a.55.55,0,0,0-.22-.21.48.48,0,0,0-.3,0,1.33,1.33,0,0,0-.29.11l-.41.23-.29.19a.87.87,0,0,0-.21.19.52.52,0,0,0-.11.28.49.49,0,0,0,.08.3.55.55,0,0,0,.23.22.49.49,0,0,0,.33,0,1,1,0,0,0,.25-.11l.36-.21.31-.21a1.2,1.2,0,0,0,.21-.19.51.51,0,0,0,.12-.29A.5.5,0,0,0,341.15,186.4Z" transform="translate(0 0)"/><path class="cls-9" d="M342.41,188.24a.75.75,0,0,1,.34.12.88.88,0,0,1,.25.27.75.75,0,0,1,.13.44.77.77,0,0,1-.13.38,1.44,1.44,0,0,1-.33.34,4.82,4.82,0,0,1-.45.31,4.07,4.07,0,0,1-.46.25,1.48,1.48,0,0,1-.46.13.82.82,0,0,1-.42-.06.82.82,0,0,1-.42-1h0l-1.18.72-.24-.39,3.35-2.06.24.39-.22.14h0Zm-1.54,1.53a.45.45,0,0,0,.21.19.53.53,0,0,0,.26,0,1,1,0,0,0,.3-.1l.33-.18.32-.22a1.13,1.13,0,0,0,.23-.23.53.53,0,0,0,.1-.25.51.51,0,0,0-.33-.49.58.58,0,0,0-.3,0,1.35,1.35,0,0,0-.32.14l-.3.18-.26.18a1.06,1.06,0,0,0-.21.21.51.51,0,0,0-.11.25A.42.42,0,0,0,340.87,189.77Z" transform="translate(0 0)"/><path class="cls-9" d="M342.84,192.81a.91.91,0,0,1-.51-.08.9.9,0,0,1-.39-.35,1.31,1.31,0,0,1-.19-.45.74.74,0,0,1,0-.41,1.17,1.17,0,0,1,.28-.39,3.12,3.12,0,0,1,.53-.4,3.2,3.2,0,0,1,.47-.24,1.45,1.45,0,0,1,.47-.11,1,1,0,0,1,.93,1.22,1.27,1.27,0,0,1-.58.65l-.37.23-.8-1.29-.28.2a.89.89,0,0,0-.19.22.47.47,0,0,0-.07.25.57.57,0,0,0,.1.29.45.45,0,0,0,.23.19.82.82,0,0,0,.3.06Zm.76-.91a1.05,1.05,0,0,0,.43-.42.44.44,0,0,0,0-.43.42.42,0,0,0-.39-.23,1.32,1.32,0,0,0-.55.2Z" transform="translate(0 0)"/><path class="cls-9" d="M344.82,194.19a.61.61,0,0,1-.07.4.85.85,0,0,1-.28.26.78.78,0,0,1-.68.1,1.09,1.09,0,0,1-.57-.5,1.32,1.32,0,0,1-.21-.57.71.71,0,0,1,.16-.52l.37.21a.41.41,0,0,0-.09.3.83.83,0,0,0,.13.35.62.62,0,0,0,.29.26.39.39,0,0,0,.37-.05.4.4,0,0,0,.2-.26.44.44,0,0,0-.07-.33l-.18-.29.33-.2.18.29a.4.4,0,0,0,.25.21.39.39,0,0,0,.29-.07.34.34,0,0,0,.17-.24.49.49,0,0,0-.09-.34.81.81,0,0,0-.24-.26.42.42,0,0,0-.31-.06v-.41a.75.75,0,0,1,.51.09,1.16,1.16,0,0,1,.41.41,1,1,0,0,1,.19.71.73.73,0,0,1-.36.48.86.86,0,0,1-.33.12A.48.48,0,0,1,344.82,194.19Z" transform="translate(0 0)"/><path class="cls-9" d="M345.11,197a.58.58,0,0,1-.3-.13,1.15,1.15,0,0,1-.26-.3.89.89,0,0,1-.13-.34.66.66,0,0,1,0-.31.73.73,0,0,1,.15-.26,1.06,1.06,0,0,1,.24-.21.87.87,0,0,1,.65-.13,1,1,0,0,1,.6.5l.27.44.3-.18a.38.38,0,0,0,.19-.27.58.58,0,0,0-.11-.38.8.8,0,0,0-.21-.23.37.37,0,0,0-.28-.07c0-.07,0-.14,0-.21s0-.14,0-.21a.79.79,0,0,1,.48.11,1.1,1.1,0,0,1,.38.38,1.54,1.54,0,0,1,.16.34.88.88,0,0,1,0,.33.66.66,0,0,1-.11.31,1,1,0,0,1-.3.28l-1.7,1-.24-.39.17-.11Zm.9-.53-.29-.47a.59.59,0,0,0-.28-.25.46.46,0,0,0-.56.33.53.53,0,0,0,.1.38.68.68,0,0,0,.3.28.43.43,0,0,0,.4-.07Z" transform="translate(0 0)"/><path class="cls-9" d="M208,188l-2.54-.73.09-.3,1.92.56h0l-.65-.6-1-.94.08-.29,2.54.73-.09.31-1.93-.56h0l.6.56,1,1Z" transform="translate(0 0)"/><path class="cls-9" d="M208.88,184.84l-.79-.23-.19.66.79.23-.09.29-1.8-.52.09-.29.77.22.19-.66-.77-.22.09-.29,1.8.52Z" transform="translate(0 0)"/><path class="cls-9" d="M209,183l.1-.1.1-.1a.57.57,0,0,1,.18.28.66.66,0,0,1,0,.36.75.75,0,0,1-.17.32.55.55,0,0,1-.25.15.86.86,0,0,1-.34,0,2.52,2.52,0,0,1-.4-.08,1.17,1.17,0,0,1-.6-.35.6.6,0,0,1-.09-.58.64.64,0,0,1,.19-.31.6.6,0,0,1,.3-.14l.08.28a.34.34,0,0,0-.29.25.39.39,0,0,0,0,.21.35.35,0,0,0,.09.16.65.65,0,0,0,.18.11l.24.08.26.06a.79.79,0,0,0,.23,0,.4.4,0,0,0,.19-.07.37.37,0,0,0,.11-.38A.41.41,0,0,0,209,183Z" transform="translate(0 0)"/><path class="cls-9" d="M208.21,181.36l1.54.45-.09.29-1.54-.45-.14.47-.25-.07.36-1.24.25.07Z" transform="translate(0 0)"/><path class="cls-9" d="M209.06,179.51l.38.41.65.72-.08.28-1.8-.52.09-.3,1.29.37h0l-.37-.4-.69-.75.08-.28,1.8.52-.09.31-1.25-.36Z" transform="translate(0 0)"/><path class="cls-9" d="M209.2,177.92l1.54.45-.08.29-1.54-.45-.14.47-.25-.07.36-1.24.25.07Z" transform="translate(0 0)"/><path class="cls-9" d="M211.52,177a.56.56,0,0,1,.23.26.48.48,0,0,1,0,.32l0,.09-.26-.07,0-.09c0-.11,0-.22-.19-.31l-.25-.15-1.93.07.09-.31h1.45l-.56-.34-.66-.42.09-.31Z" transform="translate(0 0)"/><path class="cls-9" d="M210.08,174.89l1.54.45-.09.29-1.54-.45-.14.47-.25-.07.36-1.24.25.07Z" transform="translate(0 0)"/><path class="cls-9" d="M211.67,173.52l.1-.1.1-.1a.58.58,0,0,1,.18.28.66.66,0,0,1,0,.36.75.75,0,0,1-.17.32.56.56,0,0,1-.26.15.87.87,0,0,1-.34,0,2.52,2.52,0,0,1-.4-.08,1.17,1.17,0,0,1-.6-.35.6.6,0,0,1-.09-.58.64.64,0,0,1,.19-.31.6.6,0,0,1,.3-.14l.08.28a.33.33,0,0,0-.29.25.37.37,0,0,0,0,.21.35.35,0,0,0,.09.16.64.64,0,0,0,.18.11l.24.08.26.06a.79.79,0,0,0,.23,0,.4.4,0,0,0,.19-.07.33.33,0,0,0,.11-.18.32.32,0,0,0,0-.2A.39.39,0,0,0,211.67,173.52Z" transform="translate(0 0)"/><path class="cls-9" d="M210.49,172.49l.08-.29.78.23,0-.16a.23.23,0,0,0,0-.21.61.61,0,0,0-.22-.17.71.71,0,0,1-.31-.26.45.45,0,0,1,0-.34l0-.08.23.07,0,.06a.16.16,0,0,0,0,.17.69.69,0,0,0,.18.12.91.91,0,0,1,.25.17.39.39,0,0,1,.1.18.37.37,0,0,1,.17-.11.75.75,0,0,1,.3,0,.69.69,0,0,0,.25,0,.17.17,0,0,0,.11-.12l0-.07.23.07,0,.12a.54.54,0,0,1-.07.16.33.33,0,0,1-.11.1.5.5,0,0,1-.17,0h-.24a.66.66,0,0,0-.28,0,.23.23,0,0,0-.14.16l0,.16.78.23-.08.29Z" transform="translate(0 0)"/><path class="cls-9" d="M211.86,169.8l.38.41.65.72-.08.28-1.8-.52.09-.3,1.29.37h0l-.37-.4-.69-.75.08-.28,1.8.52-.09.31-1.25-.36Z" transform="translate(0 0)"/><path class="cls-9" d="M211,168h.08l.09,0,.08-.06a.24.24,0,0,0,.05-.09.27.27,0,0,0,0-.12.26.26,0,0,0,0-.1l-.06-.07-.07,0,.07-.24.14.08a.45.45,0,0,1,.19.31.55.55,0,0,1,0,.24.57.57,0,0,1-.11.22.49.49,0,0,1-.16.12.47.47,0,0,1-.17,0l-.16,0Zm1.47-.24.38.41.65.72-.08.28-1.8-.52.09-.3,1.29.37h0l-.37-.4-.69-.75.08-.28,1.8.52-.09.31-1.25-.36Z" transform="translate(0 0)"/><path class="cls-9" d="M214.51,165.33l-1.54-.44-.19.66,1.54.44-.08.29-1.8-.52.36-1.25,1.8.52Z" transform="translate(0 0)"/><path class="cls-9" d="M213.21,163.71a.48.48,0,0,1-.1-.22.56.56,0,0,1,0-.24.51.51,0,0,1,.16-.26.53.53,0,0,1,.25-.11,1,1,0,0,1,.32,0l.35.08.33.12a1,1,0,0,1,.27.17.56.56,0,0,1,.16.23.51.51,0,0,1,0,.32.5.5,0,0,1-.29.33h0l.89.26-.09.29-2.53-.73.09-.29.17,0h0Zm1.45.08a.29.29,0,0,0,0-.19.35.35,0,0,0-.11-.14.71.71,0,0,0-.19-.1l-.24-.08-.25-.06a.72.72,0,0,0-.22,0,.34.34,0,0,0-.17.06.34.34,0,0,0-.1.38.39.39,0,0,0,.14.15.9.9,0,0,0,.22.1l.23.07.2,0h.2a.34.34,0,0,0,.17-.06A.27.27,0,0,0,214.66,163.79Z" transform="translate(0 0)"/><path class="cls-9" d="M215.28,162.67l-.37-.11.1-.35.37.11Z" transform="translate(0 0)"/><path class="cls-9" d="M73.48,206.23a.57.57,0,0,1,.23.26.49.49,0,0,1,0,.32l0,.09-.25-.07,0-.09c0-.11,0-.22-.19-.31l-.24-.15-1.93.07.09-.31h1.45l-.56-.34-.66-.42.09-.31Z" transform="translate(0 0)"/><path class="cls-9" d="M73.41,205.3l-.13,0-.13,0a1,1,0,0,0,0-.18A.34.34,0,0,0,73,205a.79.79,0,0,0-.2-.11l-.36-.12-.82-.24.32-1.1,1.8.52-.08.29-1.55-.45-.15.53.71.2a2,2,0,0,1,.37.14.84.84,0,0,1,.23.16.49.49,0,0,1,.12.2A.88.88,0,0,1,73.41,205.3Z" transform="translate(0 0)"/><path class="cls-9" d="M73.91,203.36l-.37-.11.1-.35L74,203Z" transform="translate(0 0)"/><path class="cls-9" d="M74.14,199.8a.91.91,0,0,1,.3.15.75.75,0,0,1,.2.22.68.68,0,0,1,.08.28.86.86,0,0,1,0,.32.85.85,0,0,1-.16.32.65.65,0,0,1-.24.18.73.73,0,0,1-.29.06,1.18,1.18,0,0,1-.32,0l-1-.29a1,1,0,0,1-.25-.12.74.74,0,0,1-.21-.2.68.68,0,0,1-.11-.28.92.92,0,0,1,.19-.68.69.69,0,0,1,.24-.18.72.72,0,0,1,.28-.07.9.9,0,0,1,.29,0Zm-1.15,0-.14,0a.53.53,0,0,0-.17,0,.48.48,0,0,0-.16.1.42.42,0,0,0-.11.2.45.45,0,0,0,0,.23.44.44,0,0,0,.22.29l.15.06,1,.29.21,0a.45.45,0,0,0,.19,0,.39.39,0,0,0,.15-.11.5.5,0,0,0,.1-.19.47.47,0,0,0,0-.18.4.4,0,0,0,0-.16.5.5,0,0,0-.12-.13.52.52,0,0,0-.18-.09Z" transform="translate(0 0)"/><path class="cls-9" d="M73.48,198.73a.5.5,0,0,1-.1-.22.58.58,0,0,1,0-.24.5.5,0,0,1,.16-.26.52.52,0,0,1,.25-.11,1,1,0,0,1,.31,0l.36.08.33.12a1,1,0,0,1,.27.17.54.54,0,0,1,.16.24.52.52,0,0,1,0,.32.5.5,0,0,1-.29.33h0l.89.26-.08.29L73.22,199l.08-.29.17,0h0Zm1.45.08a.29.29,0,0,0,0-.19.34.34,0,0,0-.11-.14.67.67,0,0,0-.19-.1l-.24-.08-.25-.06a.74.74,0,0,0-.22,0,.34.34,0,0,0-.17.06.29.29,0,0,0-.11.16.28.28,0,0,0,0,.22.38.38,0,0,0,.14.15.89.89,0,0,0,.21.1l.23.07.2,0h.2a.34.34,0,0,0,.17-.06A.28.28,0,0,0,74.93,198.81Z" transform="translate(0 0)"/><path class="cls-9" d="M74,196.54a.59.59,0,0,1,.16-.29.53.53,0,0,1,.26-.13.83.83,0,0,1,.31,0l.37.09.24.08.19.11a.58.58,0,0,1,.16.16.59.59,0,0,1,.08.18.58.58,0,0,1,0,.19,1,1,0,0,1,0,.19.63.63,0,0,1-.19.32.57.57,0,0,1-.28.14,1,1,0,0,1-.29,0,2.88,2.88,0,0,1-.43-.1l-.13,0-.14,0-.11,0-.06,0a2.26,2.26,0,0,1-.36-.16,1.15,1.15,0,0,1-.25-.18.7.7,0,0,1-.15-.22,1,1,0,0,1-.07-.27c0-.09,0-.18,0-.27s0-.21,0-.35l.24,0,0,.18,0,.14v.12s0,.08,0,.13a.8.8,0,0,0,.16.4A.82.82,0,0,0,74,197h0a.49.49,0,0,1-.09-.24A.59.59,0,0,1,74,196.54Zm.25.13a.31.31,0,0,0,.09.34.64.64,0,0,0,.19.11l.28.1.21.05h.17a.35.35,0,0,0,.18-.07.36.36,0,0,0,.11-.19.34.34,0,0,0,0-.21.37.37,0,0,0-.15-.18l-.14-.07-.22-.07-.11,0-.12,0-.11,0h-.08a.4.4,0,0,0-.19.06A.32.32,0,0,0,74.23,196.67Z" transform="translate(0 0)"/><path class="cls-9" d="M76.07,194.68a.61.61,0,0,1,.19.29.62.62,0,0,1,0,.35.87.87,0,0,1-.14.3.49.49,0,0,1-.22.16.78.78,0,0,1-.32,0,2.17,2.17,0,0,1-.43-.08,2.1,2.1,0,0,1-.33-.13,1,1,0,0,1-.27-.18.65.65,0,0,1,.19-1,.85.85,0,0,1,.58,0l.28.08-.28,1,.23,0a.55.55,0,0,0,.2,0,.31.31,0,0,0,.15-.08.38.38,0,0,0,.1-.18.31.31,0,0,0,0-.2.57.57,0,0,0-.11-.18Zm-.79,0a.71.71,0,0,0-.4,0,.29.29,0,0,0-.2.21.28.28,0,0,0,.06.3.89.89,0,0,0,.34.18Z" transform="translate(0 0)"/><path class="cls-9" d="M76.59,194.3l-.13,0-.13,0a1.06,1.06,0,0,0,0-.18.35.35,0,0,0-.1-.14.78.78,0,0,0-.2-.11l-.36-.12-.82-.24.32-1.1,1.8.52-.09.29-1.55-.45-.15.53.71.2a2,2,0,0,1,.37.14.83.83,0,0,1,.23.16.48.48,0,0,1,.12.2A.9.9,0,0,1,76.59,194.3Z" transform="translate(0 0)"/><path class="cls-9" d="M76.14,191l.38.41.65.72-.08.28-1.8-.52.09-.3,1.29.37h0l-.37-.4-.69-.75.08-.28,1.8.52-.09.31-1.25-.36Z" transform="translate(0 0)"/><g class="cls-2"><path class="cls-5" d="M62.48,374.31,470.8,490.19M396.36,340.86l-60.54,51.67-98.54,74.66-26.71,32.57m273.11-371-35.34,107-16.69,78.6m-8.17-9.76c2.57.14,6.35-1.39,8.17-8.32s13.5-62.65,13.5-62.65l35.21-105.79m-48.71,211.5c2-2.39,3.77-3.63,10.32-2.21s41.71,10.44,41.71,10.44m-50.62-23.71c0,2.65,2,6.19,6.43,7.25l45.05,10.79M284.72,507.7C303.59,494,372.94,435.05,388,419.48s28.07-33,29.51-38.45,2.16-15.75,2.51-19.28A27.48,27.48,0,0,1,425.83,347m-13.05,5.18c2.65,3,4.07,4.61,3.72,8.15s-1.07,13.86-2.51,19.28-14.41,22.88-29.51,38.45S300,492.6,281.16,506.28M401.81,274.76c4.27,6.65,5.3,15,5.84,18.17s-.41,8.86-1.36,12.92m6.13-2.43c-3.7.44-8.14,3.18-11.15,7s-6.37,10.06-6.37,15.37-.36,16.1,4.6,20,13,7.78,18.63,5.84,12.69-8.14,13.92-13.62,1.42-17.16,0-22.29S426.93,301.7,412.42,303.42ZM210.79,8l58.54,65.3,21.45,28.43L420.24,303.49" transform="translate(0 0)"/><path class="cls-6" d="M330.13,470.81l7.81,10m86.63-104.44,7.08-19.58h4.13M418.68,375s12,2.67,14.38,3.73,3.78,2.12,4,10.08M319.24,405.1l13.58,18.75m-154-153.2,23.28,6.85m49.5,118.55L255.8,382m-28.42,6.84,2.2,32.91m22,5.62,5.07-16.24m-10.26-16.62-9,29.45m.94-31.89,7.25-24.69M87.79,235.2,84.2,247.1,89,259.47l-1.65,6.28m42,10.5-3.71,11.19M75.59,304.15,79,293.51m10.73,15,3.37-10.89m3.33,45.62c2.48-6.78,10.81-4.3,9.25,2.81M78,319.77l-6.71-3.43L69.66,312l2.65-8.62,17.45,5.08,2.81,5.22s-2.83,17-3.36,20.75-.8,6.23,3.36,7.55,21.92,6.66,21.92,6.66m-3.39-34.1-4.43,13.82M117,331.62v8.49l-4.08,14.05M96.46,326,117,331.62l10.61.94L158,341.41m-41.84-37.09s-1.82,5.95-2.53,8.07-1.65,2.59-4.13,1.88-7.26-2.17-10.08-3.18c-2.52-.9-2.72-1.76-1.87-4.28,1-3.06,2.44-7.19,2.44-7.19m36.84,18.11,14.8,4.09M134.2,326l4.87-15m11.32,18.53L152.83,315m-41.72,73.15,16.49-55.55c1.3-4.48,3.3-7.43,8.49-6.37s14.3,3.3,14.3,3.3l4.11,5.66,4.94,1.45m1.73,32.14L156,386m20.11-9.22s3.48.73,2.65,3.2l-4.95,14.86,3.27,2.95,1,9.35m-1-33.57-4.92,16.32m-2.38-29.82,11.94,3m-7.9-24.18-6,31.49m13.92-29.56v25.66l-1.79,7.89M62.48,338.93l208.44,63M207.09,382l1.66-10.88,6.24-20,21.5,6.11m-76.43-22.71,31.13,8.94-.61,17.93,5.88,6.6,12.29,3.15m-12.29-58.93,8.17,2.11,5.95,9.56,18.58,5.66m.38-56.28,5.35-19.69,7.24,1.9v6.65l6.49,2,4.36-8.73,10.5,2.76m8.74,84.8,8.95-33.67-29.63-8.82m13.4,47.17,5.61,18.1,30.65,10.67L291.77,415l4.15,7.77m58.32-46L336,369l10.44-34.67,19.81,4.6v13.26l11.85,4.27,7.08,8L399,368.3l5-5.31M284.72,385.1,340,355.57M280.35,338l5.55,7.83,2.72,12.74,22.26,6.55,5.31,10.79L314,404.17l1.57,3.71" transform="translate(0 0)"/><polyline class="cls-5" points="482.5 247.29 433.06 231.54 324.14 61.88 286.71 8.39"/><path class="cls-6" d="M271.1,18l35,57.7M244.93,34.17,286.71,8.39M211.83,96.51l3.7,10M251.08,95l7.61,11.5M85.14,95l8,37.68m20-36.27L135,91.61M111.5,89.66l2.83,13.09L136.44,98l-2.65-12.74m-45.11-.53,30.78-6.37M73,79l14.09-2.75L90.46,94M138,66.31l-2.38-12.91L70.39,66.3m47.22-38.91-5.76.89L101.67,15.18M142,51.27l-7.14-3.6L117.61,27.39,143.44,7.3l8.07,3.64,5.11,17.69L152.72,43,142,51.27,148.12,82m40.36-37.45L175.72,26l13.72-12.38L184.55,7.3,167.23,21.73l-1.59,8.14,10.79,13.62,7.69-5.25m37-22.36,11.06,3.2,36,42.81,1.09,11.42-14.66-2.37L193.41.32l-8.86,7" transform="translate(0 0)"/><polyline class="cls-5" points="367.49 10.76 380.23 26.68 433.77 44.67"/><path class="cls-6" d="M474.73,328.17l9.82,2.73M477,318.81,472.1,339m-2.94-48.65-4.66,19.49,18,4.6m-49.36-7L481.66,320m-11.5-76.66-10.09,31.41v15.1l-5.73,23m-95,7.11,22.42,6.76m-35.44-19.34,9-27.6m-21.93,15.92,30.44,8.89m-50.35-75.54L311,237.74M345.3,94.84l24.55-16.2c4.25-2.71,7.78-4.13,11.09,1.06s21.11,33,23,35.38,1.65,3.6,1.77,6.52,0,4.33,2.24,7.16,3.42,5.07,3.18,8.55-1.3,18.81-1.65,22.35-.94,7.43,4.13,10.26,10,7,11.79,8.14,3.89,3.06,2.48,7.19-9,24.26-9,24.26L279,205.08l-7.69-2.37,1.91-7,8.38.13M328.92,94.2,340.27,87m6,40.87,14.21-8.32m2.18,53.84,13.5-7.9m-1.76,35.55,15.33-9.52m-16.72,12.11,6.3,10.49m-18.14-2.65,11.85-7.84,1.39-2.6-12-20.17-5.9-2.48L351,169.6m82.09,61.94-8.25,34.14-11.32-2.36-5.66-7.9-2.24-6.49m2.6-1.77-3.3-9,11.44-8m-12.38-17.45,13.33-5.31m-49.42,13.8,15.92-9.79,7.31,5.07,10.61-7.31M382.58,245c.35-.12,11.68-7.31,11.68-7.31l1.06-2.36,16.28-10.73m3.07,2.12,6.72,12.38-15.8,9.79L402,247.88l-12.27,8m2.95-86.68-12.38,7.31,33.14,51.07,11.91-7.78m-53-60.15,10,15.57M368,158.72,351,169.6,344,174m28.78-36-12.38,8.14,9.44,15,12.74-7.79m-42.46.83,20.4-13.09M331.4,164.85l11-6.84-7.31-11.91,20.52-13.45,7.31,11.68M287.41,87l65.1,100.6M229,209.9l4-13.68m11.79-33.61,2.71-9.08m-17.22-12.38,8.37,2.59,2.24-8.61M232.45,133,226,156.24m24.41,65.34,22.05,6.49m40.22-35.15L315,191l3.66-15.8m-40.92,34.56,9.67,3.3m6.61-36-1.3,14-4.84,8m-31-32.55,34,12.27m26.42,22.41-7.43,26.77,17.57,5.07m9.55,32.08-47.77-14.39-22.64-.12m66-22.76-5.19,5.19-7.08,27.13m24.38-12.1L340,250.83,335.17,273l30,10.21,6.17-2.52,33.68.85m-32-35.54-7.5,26m-7.45-11.14,13.25,19.81m0-37.33-6.52,5-4.42,12.53h-8.29m1.78-44.61-6.05,21.47m-8.48-39.82-5.23,18.35m-7.41,1.18,6.27-20,9.24.74m-2.86,40.93c-.14-.24,4.77-17.49,4.77-17.49l7.77-8.42M301,173.4l64.23,109.81,2.12,9.24-8.49,29.36-2.77,14.75,6.48,19.89-7.26,6.36,6,8m-66-262.06V123.1l23.92,39.27,65.63,101.89,12.54,3.58M255.8,27.47,235,5.1,219.2,17.4m50.13,32.14,6.29-5m-9.16-11.85-5.11,5.44,12.28,17.48-5.38,6.23m11.21-49,10.73,15.43,6.89-5.11m46.34-7.78L309.84,41.19m45.55-9.13,8.38-6.53-9.91-14.77m9.91,30.43L353.87,30.4,339.54,9.87M302,50.74l7.08,8.67,44.76-29m-93.94-5.48,36.62,43.87,3.86-2.46" transform="translate(0 0)"/><polygon class="cls-3" points="203.63 499.36 231 465.85 267.74 437.54 60.12 380.66 31 480.81 189.88 523.27 203.63 499.36"/><path class="cls-10" d="M117.69,421l28.73,8.1m-52.36,1.34,63,18.28M90.8,486.12l43.27,13,11.22-37.42L142.81,443l7.43-28.48M68.16,486.12H90.8L120,390.63m-20.35,66.6,42.7,13.53m19.59-10.46c-.53,0-66.34-18.93-66.34-18.93l-6.72,3.72-1.41,5,13.12,4.13" transform="translate(0 0)"/><path class="cls-11" d="M272.41,271.21a2,2,0,1,0-2,2,2,2,0,0,0,2-2" transform="translate(0 0)"/><path class="cls-11" d="M304.28,276.29a2,2,0,1,0-2,2,2,2,0,0,0,2-2" transform="translate(0 0)"/><path class="cls-11" d="M316.1,274.28a1.8,1.8,0,1,0-1.8,1.8,1.8,1.8,0,0,0,1.8-1.8" transform="translate(0 0)"/><path class="cls-11" d="M320.78,293.64a1.8,1.8,0,1,0-1.8,1.8,1.8,1.8,0,0,0,1.8-1.8" transform="translate(0 0)"/><path class="cls-11" d="M418.55,287.49a1.8,1.8,0,1,0-1.8,1.8,1.8,1.8,0,0,0,1.8-1.8" transform="translate(0 0)"/><path class="cls-11" d="M325.16,285.49a2,2,0,1,0-2,2,2,2,0,0,0,2-2" transform="translate(0 0)"/><path class="cls-11" d="M429.84,283a2,2,0,1,0-2,2,2,2,0,0,0,2-2" transform="translate(0 0)"/><path class="cls-11" d="M305.86,287.89a2,2,0,1,0-2,2,2,2,0,0,0,2-2" transform="translate(0 0)"/><path class="cls-11" d="M299,268.95a2,2,0,1,0-2,2,2,2,0,0,0,2-2" transform="translate(0 0)"/><path class="cls-11" d="M324.32,274.76a2,2,0,1,0-2,2,2,2,0,0,0,2-2" transform="translate(0 0)"/><path class="cls-11" d="M418.55,278.13a2,2,0,1,0-2,2,2,2,0,0,0,2-2" transform="translate(0 0)"/><path class="cls-11" d="M279.05,281.54a2,2,0,1,0-2,2,2,2,0,0,0,2-2" transform="translate(0 0)"/><path class="cls-11" d="M270.12,260.6a1.2,1.2,0,1,0,1.44-.89,1.2,1.2,0,0,0-1.44.89" transform="translate(0 0)"/><path class="cls-11" d="M280.38,274.49a1.2,1.2,0,1,0,1.44-.89,1.2,1.2,0,0,0-1.44.89" transform="translate(0 0)"/><path class="cls-11" d="M265.1,278.06a1.2,1.2,0,1,0,1.44-.89,1.2,1.2,0,0,0-1.44.89" transform="translate(0 0)"/><path class="cls-11" d="M320,279.26a1.2,1.2,0,1,0,1.44-.89,1.2,1.2,0,0,0-1.44.89" transform="translate(0 0)"/><path class="cls-11" d="M289.45,273.07a1.37,1.37,0,1,0,1.65-1,1.37,1.37,0,0,0-1.65,1" transform="translate(0 0)"/><path class="cls-11" d="M292.23,286.54a1.37,1.37,0,1,0,1.65-1,1.37,1.37,0,0,0-1.65,1" transform="translate(0 0)"/><path class="cls-11" d="M423.24,296.09a1.37,1.37,0,1,0,1.65-1,1.37,1.37,0,0,0-1.65,1" transform="translate(0 0)"/><path class="cls-11" d="M274,274a1.37,1.37,0,1,0,1.65-1,1.37,1.37,0,0,0-1.65,1" transform="translate(0 0)"/><path class="cls-11" d="M295.68,280.37a1.37,1.37,0,1,0,1.65-1,1.37,1.37,0,0,0-1.65,1" transform="translate(0 0)"/><path class="cls-11" d="M423.24,287.92a1.37,1.37,0,1,0,1.65-1,1.37,1.37,0,0,0-1.65,1" transform="translate(0 0)"/><path class="cls-11" d="M311.59,287.92a1.37,1.37,0,1,0,1.65-1,1.37,1.37,0,0,0-1.65,1" transform="translate(0 0)"/><path class="cls-11" d="M288.07,283.68a1.37,1.37,0,1,0,1.65-1,1.37,1.37,0,0,0-1.65,1" transform="translate(0 0)"/><path class="cls-11" d="M308.84,268.89a1.37,1.37,0,1,0,1.65-1,1.37,1.37,0,0,0-1.65,1" transform="translate(0 0)"/><path class="cls-11" d="M266.78,264.53a1,1,0,1,0,1.19-.73,1,1,0,0,0-1.19.73" transform="translate(0 0)"/><path class="cls-11" d="M287.35,267.65a.79.79,0,1,0,.95-.59.79.79,0,0,0-.95.59" transform="translate(0 0)"/><path class="cls-11" d="M266.29,272a.79.79,0,1,0,.95-.58.79.79,0,0,0-.95.58" transform="translate(0 0)"/><path class="cls-11" d="M301,283a.79.79,0,1,0,.95-.58.79.79,0,0,0-.95.58" transform="translate(0 0)"/><path class="cls-11" d="M298.25,288.05a.79.79,0,1,0,.95-.58.78.78,0,0,0-.95.58" transform="translate(0 0)"/><path class="cls-11" d="M295.72,264.06a.88.88,0,1,0,1.06-.65.88.88,0,0,0-1.06.65" transform="translate(0 0)"/><path class="cls-11" d="M302.21,266.13a.88.88,0,1,0,1.06-.65.88.88,0,0,0-1.06.65" transform="translate(0 0)"/><path class="cls-11" d="M318.12,271a.88.88,0,1,0,1.06-.65.88.88,0,0,0-1.06.65" transform="translate(0 0)"/><path class="cls-11" d="M420.53,282.22a.88.88,0,1,0,1.06-.66.88.88,0,0,0-1.06.66" transform="translate(0 0)"/><path class="cls-11" d="M306.79,276.65a.88.88,0,1,0,1.06-.65.88.88,0,0,0-1.06.65" transform="translate(0 0)"/><path class="cls-11" d="M313.44,280.21a.88.88,0,1,0,1.06-.65.88.88,0,0,0-1.06.65" transform="translate(0 0)"/><path class="cls-11" d="M305.34,282.22a.88.88,0,1,0,1.06-.66.88.88,0,0,0-1.06.66" transform="translate(0 0)"/><path class="cls-11" d="M420.53,291.64a.88.88,0,1,0,1.06-.66.88.88,0,0,0-1.06.66" transform="translate(0 0)"/><path class="cls-11" d="M326.07,276.56a.88.88,0,1,0,1.06-.66.88.88,0,0,0-1.06.66" transform="translate(0 0)"/><path class="cls-11" d="M291.21,278.07a1,1,0,1,0,1.22-.75,1,1,0,0,0-1.22.75" transform="translate(0 0)"/><path class="cls-11" d="M309.2,292.22a1,1,0,1,0,1.22-.75,1,1,0,0,0-1.22.75" transform="translate(0 0)"/><path class="cls-11" d="M423.59,278.11a1,1,0,1,0,1.22-.75,1,1,0,0,0-1.22.75" transform="translate(0 0)"/><path class="cls-11" d="M313.31,283.77a1,1,0,1,0,1.22-.75,1,1,0,0,0-1.22.75" transform="translate(0 0)"/><path class="cls-11" d="M412,281.83a1,1,0,1,0,1.22-.75,1,1,0,0,0-1.22.75" transform="translate(0 0)"/><path class="cls-11" d="M284.91,278.07a1,1,0,1,0,1.21-.75,1,1,0,0,0-1.21.75" transform="translate(0 0)"/><path class="cls-11" d="M322.17,291.68a1,1,0,1,0,1.22-.75,1,1,0,0,0-1.22.75" transform="translate(0 0)"/><path class="cls-11" d="M409.61,274a1,1,0,1,0,1.21-.75,1,1,0,0,0-1.21.75" transform="translate(0 0)"/><path class="cls-11" d="M302.3,272a.79.79,0,1,0,.95-.58.79.79,0,0,0-.95.58" transform="translate(0 0)"/><path class="cls-11" d="M269.64,278.11a.79.79,0,1,0,.95-.58.79.79,0,0,0-.95.58" transform="translate(0 0)"/><path class="cls-11" d="M318.22,289.42a.79.79,0,1,0,.95-.59.79.79,0,0,0-.95.59" transform="translate(0 0)"/><path class="cls-11" d="M285.92,263.47a.79.79,0,1,0,.95-.58.79.79,0,0,0-.95.58" transform="translate(0 0)"/><path class="cls-11" d="M188.5,189.68a2,2,0,1,0-2,2,2,2,0,0,0,2-2" transform="translate(0 0)"/><path class="cls-11" d="M201.32,151a2,2,0,1,0-2,2,2,2,0,0,0,2-2" transform="translate(0 0)"/><path class="cls-11" d="M194.68,161a2,2,0,1,0-2,2,2,2,0,0,0,2-2" transform="translate(0 0)"/><path class="cls-11" d="M176.76,151a2,2,0,1,0-2,2,2,2,0,0,0,2-2" transform="translate(0 0)"/><path class="cls-11" d="M183.63,160.29a2,2,0,1,0-2,2,2,2,0,0,0,2-2" transform="translate(0 0)"/><path class="cls-11" d="M122.56,170.83a2,2,0,1,0-2,2,2,2,0,0,0,2-2" transform="translate(0 0)"/><path class="cls-11" d="M162.69,155.92a2,2,0,1,0-2,2,2,2,0,0,0,2-2" transform="translate(0 0)"/><path class="cls-11" d="M147.22,161a2,2,0,1,0-2,2,2,2,0,0,0,2-2" transform="translate(0 0)"/><path class="cls-11" d="M168.55,183.15a2,2,0,1,0-2,2,2,2,0,0,0,2-2" transform="translate(0 0)"/><path class="cls-11" d="M187.7,180.36a1.2,1.2,0,1,0-1.2,1.2,1.2,1.2,0,0,0,1.2-1.2" transform="translate(0 0)"/><path class="cls-11" d="M154.48,162.59a1.2,1.2,0,1,0-1.2,1.2,1.2,1.2,0,0,0,1.2-1.2" transform="translate(0 0)"/><path class="cls-11" d="M132.9,174a1.2,1.2,0,1,0-1.2,1.2,1.2,1.2,0,0,0,1.2-1.2" transform="translate(0 0)"/><path class="cls-11" d="M144,178.6a1.2,1.2,0,1,0-1.2,1.2,1.2,1.2,0,0,0,1.2-1.2" transform="translate(0 0)"/><path class="cls-11" d="M176.73,183.15a1,1,0,1,0-1,1,1,1,0,0,0,1-1" transform="translate(0 0)"/><path class="cls-11" d="M119.58,160.29a1,1,0,1,0-1,1,1,1,0,0,0,1-1" transform="translate(0 0)"/><path class="cls-11" d="M179.42,186.86a1,1,0,1,0-1,1,1,1,0,0,0,1-1" transform="translate(0 0)"/><path class="cls-11" d="M168.52,162.37a1,1,0,1,0-1,1,1,1,0,0,0,1-1" transform="translate(0 0)"/><path class="cls-11" d="M159.17,183.93a1,1,0,1,0-1,1,1,1,0,0,0,1-1" transform="translate(0 0)"/><path class="cls-11" d="M166.52,155.09a1,1,0,1,0-1,1,1,1,0,0,0,1-1" transform="translate(0 0)"/><path class="cls-11" d="M154.27,180.36a1,1,0,1,0-1,1,1,1,0,0,0,1-1" transform="translate(0 0)"/><path class="cls-11" d="M204.53,148.45a1,1,0,1,0-1,1,1,1,0,0,0,1-1" transform="translate(0 0)"/><path class="cls-11" d="M124,163.94a1,1,0,1,0-1,1,1,1,0,0,0,1-1" transform="translate(0 0)"/><path class="cls-11" d="M185.8,153a1,1,0,1,0-1,1,1,1,0,0,0,1-1" transform="translate(0 0)"/><path class="cls-11" d="M202,158.28a1,1,0,1,0-1,1,1,1,0,0,0,1-1" transform="translate(0 0)"/><path class="cls-11" d="M190.32,157.71a1,1,0,1,0-1,1,1,1,0,0,0,1-1" transform="translate(0 0)"/><path class="cls-11" d="M183.54,184.91a1,1,0,1,0-1,1,1,1,0,0,0,1-1" transform="translate(0 0)"/><path class="cls-11" d="M194.92,151.47a1,1,0,1,0-1,1,1,1,0,0,0,1-1" transform="translate(0 0)"/><path class="cls-11" d="M207.66,143.31a1,1,0,1,0-1,1,1,1,0,0,0,1-1" transform="translate(0 0)"/><path class="cls-11" d="M181.87,149.44a1,1,0,1,0-1,1,1,1,0,0,0,1-1" transform="translate(0 0)"/><path class="cls-11" d="M109.81,167.32a1,1,0,1,0-1,1,1,1,0,0,0,1-1" transform="translate(0 0)"/><path class="cls-11" d="M151.52,155.92a1,1,0,1,0-1,1,1,1,0,0,0,1-1" transform="translate(0 0)"/><path class="cls-11" d="M138,174.66a.84.84,0,1,0-.84.84.84.84,0,0,0,.84-.84" transform="translate(0 0)"/><path class="cls-11" d="M126.31,173.46a.84.84,0,1,0-.84.84.84.84,0,0,0,.84-.84" transform="translate(0 0)"/><path class="cls-11" d="M105.83,163a.84.84,0,1,0-.84.84.84.84,0,0,0,.84-.84" transform="translate(0 0)"/><path class="cls-11" d="M163.16,179.8a.84.84,0,1,0-.84.84.84.84,0,0,0,.84-.84" transform="translate(0 0)"/><path class="cls-11" d="M193.15,181.15a.84.84,0,1,0-.84.84.84.84,0,0,0,.84-.84" transform="translate(0 0)"/><path class="cls-11" d="M163.31,161a1,1,0,1,0-1,1,1,1,0,0,0,1-1" transform="translate(0 0)"/><path class="cls-11" d="M173.2,157.93a1,1,0,1,0-1,1,1,1,0,0,0,1-1" transform="translate(0 0)"/><path class="cls-11" d="M195.55,186.08a1.62,1.62,0,1,0-1.62,1.62,1.62,1.62,0,0,0,1.62-1.62" transform="translate(0 0)"/><path class="cls-11" d="M117.19,164.93a1.62,1.62,0,1,0-1.62,1.62,1.62,1.62,0,0,0,1.62-1.62" transform="translate(0 0)"/><path class="cls-11" d="M192.67,147.36a1.62,1.62,0,1,0-1.62,1.62,1.62,1.62,0,0,0,1.62-1.62" transform="translate(0 0)"/><path class="cls-11" d="M202.55,165.56a1.62,1.62,0,1,0-1.62,1.62,1.62,1.62,0,0,0,1.62-1.62" transform="translate(0 0)"/><path class="cls-11" d="M142.55,171.25a1.62,1.62,0,1,0-1.62,1.62,1.62,1.62,0,0,0,1.62-1.62" transform="translate(0 0)"/><path class="cls-11" d="M175.45,164.21a1.62,1.62,0,1,0-1.62,1.62,1.62,1.62,0,0,0,1.62-1.62" transform="translate(0 0)"/><path class="cls-11" d="M102.08,164.93a1.62,1.62,0,1,0-1.62,1.62,1.62,1.62,0,0,0,1.62-1.62" transform="translate(0 0)"/><path class="cls-11" d="M209.09,479.47a2,2,0,1,0-2,2,2,2,0,0,0,2-2" transform="translate(0 0)"/><path class="cls-11" d="M213.64,458.57a2,2,0,1,0-2,2,2,2,0,0,0,2-2" transform="translate(0 0)"/><path class="cls-11" d="M221.9,440.78a2,2,0,1,0-2,2,2,2,0,0,0,2-2" transform="translate(0 0)"/><path class="cls-11" d="M203.47,426.9a2,2,0,1,0-2,2,2,2,0,0,0,2-2" transform="translate(0 0)"/><path class="cls-11" d="M215.26,450.83a2,2,0,1,0-2,2,2,2,0,0,0,2-2" transform="translate(0 0)"/><path class="cls-11" d="M241.35,442.85a2,2,0,1,0-2,2,2,2,0,0,0,2-2" transform="translate(0 0)"/><path class="cls-11" d="M251.55,441.79a2,2,0,1,0-2,2,2,2,0,0,0,2-2" transform="translate(0 0)"/><path class="cls-11" d="M197.34,440.78a2,2,0,1,0-2,2,2,2,0,0,0,2-2" transform="translate(0 0)"/><path class="cls-11" d="M187.27,422.45a2,2,0,1,0-2,2,2,2,0,0,0,2-2" transform="translate(0 0)"/><path class="cls-11" d="M204.21,450.08a2,2,0,1,0-2,2,2,2,0,0,0,2-2" transform="translate(0 0)"/><path class="cls-11" d="M84,403.57a2,2,0,1,0-2,2,2,2,0,0,0,2-2" transform="translate(0 0)"/><path class="cls-11" d="M72.29,389.88a2,2,0,1,0-2,2,2,2,0,0,0,2-2" transform="translate(0 0)"/><path class="cls-11" d="M98,396.62a2,2,0,1,0-2,2,2,2,0,0,0,2-2" transform="translate(0 0)"/><path class="cls-11" d="M183.27,445.72a2,2,0,1,0-2,2,2,2,0,0,0,2-2" transform="translate(0 0)"/><path class="cls-11" d="M154,462.69a2,2,0,1,0-2,2,2,2,0,0,0,2-2" transform="translate(0 0)"/><path class="cls-11" d="M147.87,484.59a2,2,0,1,0-2,2,2,2,0,0,0,2-2" transform="translate(0 0)"/><path class="cls-11" d="M130.39,477.5a2,2,0,1,0-2,2,2,2,0,0,0,2-2" transform="translate(0 0)"/><path class="cls-11" d="M164.92,451.82a2,2,0,1,0-2,2,2,2,0,0,0,2-2" transform="translate(0 0)"/><path class="cls-11" d="M189.14,472.95a2,2,0,1,0-2,2,2,2,0,0,0,2-2" transform="translate(0 0)"/><path class="cls-11" d="M208.28,470.15a1.2,1.2,0,1,0-1.2,1.2,1.2,1.2,0,0,0,1.2-1.2" transform="translate(0 0)"/><path class="cls-11" d="M243.75,448.82a1.2,1.2,0,1,0-1.2,1.2,1.2,1.2,0,0,0,1.2-1.2" transform="translate(0 0)"/><path class="cls-11" d="M233.77,439.24a1.2,1.2,0,1,0-1.2,1.2,1.2,1.2,0,0,0,1.2-1.2" transform="translate(0 0)"/><path class="cls-11" d="M175.07,452.38a1.2,1.2,0,1,0-1.2,1.2,1.2,1.2,0,0,0,1.2-1.2" transform="translate(0 0)"/><path class="cls-11" d="M94.34,406.78a1.2,1.2,0,1,0-1.2,1.2,1.2,1.2,0,0,0,1.2-1.2" transform="translate(0 0)"/><path class="cls-11" d="M101.79,404.84a1.2,1.2,0,1,0-1.2,1.2,1.2,1.2,0,0,0,1.2-1.2" transform="translate(0 0)"/><path class="cls-11" d="M164.58,468.39a1.2,1.2,0,1,0-1.2,1.2,1.2,1.2,0,0,0,1.2-1.2" transform="translate(0 0)"/><path class="cls-11" d="M197.31,472.95a1,1,0,1,0-1,1,1,1,0,0,0,1-1" transform="translate(0 0)"/><path class="cls-11" d="M81,393a1,1,0,1,0-1,1,1,1,0,0,0,1-1" transform="translate(0 0)"/><path class="cls-11" d="M200,476.65a1,1,0,1,0-1,1,1,1,0,0,0,1-1" transform="translate(0 0)"/><path class="cls-11" d="M189.11,452.16a1,1,0,1,0-1,1,1,1,0,0,0,1-1" transform="translate(0 0)"/><path class="cls-11" d="M179.75,473.72a1,1,0,1,0-1,1,1,1,0,0,0,1-1" transform="translate(0 0)"/><path class="cls-11" d="M187.1,444.88a1,1,0,1,0-1,1,1,1,0,0,0,1-1" transform="translate(0 0)"/><path class="cls-11" d="M174.86,470.15a1,1,0,1,0-1,1,1,1,0,0,0,1-1" transform="translate(0 0)"/><path class="cls-11" d="M225.11,438.25a1,1,0,1,0-1,1,1,1,0,0,0,1-1" transform="translate(0 0)"/><path class="cls-11" d="M219.51,432.61a1,1,0,1,0-1,1,1,1,0,0,0,1-1" transform="translate(0 0)"/><path class="cls-11" d="M85.42,396.68a1,1,0,1,0-1,1,1,1,0,0,0,1-1" transform="translate(0 0)"/><path class="cls-11" d="M87.89,390.63a1,1,0,1,0-1,1,1,1,0,0,0,1-1" transform="translate(0 0)"/><path class="cls-11" d="M206.38,442.78a1,1,0,1,0-1,1,1,1,0,0,0,1-1" transform="translate(0 0)"/><path class="cls-11" d="M222.57,448.08a1,1,0,1,0-1,1,1,1,0,0,0,1-1" transform="translate(0 0)"/><path class="cls-11" d="M233.56,451.19a1,1,0,1,0-1,1,1,1,0,0,0,1-1" transform="translate(0 0)"/><path class="cls-11" d="M243.54,438.68a1,1,0,1,0-1,1,1,1,0,0,0,1-1" transform="translate(0 0)"/><path class="cls-11" d="M210.91,447.51a1,1,0,1,0-1,1,1,1,0,0,0,1-1" transform="translate(0 0)"/><path class="cls-11" d="M204.13,474.71a1,1,0,1,0-1,1,1,1,0,0,0,1-1" transform="translate(0 0)"/><path class="cls-11" d="M215.5,441.26a1,1,0,1,0-1,1,1,1,0,0,0,1-1" transform="translate(0 0)"/><path class="cls-11" d="M212.24,430.23a1,1,0,1,0-1,1,1,1,0,0,0,1-1" transform="translate(0 0)"/><path class="cls-11" d="M228.24,433.1a1,1,0,1,0-1,1,1,1,0,0,0,1-1" transform="translate(0 0)"/><path class="cls-11" d="M195.4,432.2a1,1,0,1,0-1,1,1,1,0,0,0,1-1" transform="translate(0 0)"/><path class="cls-11" d="M202.45,439.24a1,1,0,1,0-1,1,1,1,0,0,0,1-1" transform="translate(0 0)"/><path class="cls-11" d="M240.33,434.72a1,1,0,1,0-1,1,1,1,0,0,0,1-1" transform="translate(0 0)"/><path class="cls-11" d="M71.25,400.06a1,1,0,1,0-1,1,1,1,0,0,0,1-1" transform="translate(0 0)"/><path class="cls-11" d="M172.1,445.72a1,1,0,1,0-1,1,1,1,0,0,0,1-1" transform="translate(0 0)"/><path class="cls-11" d="M156,470.43a.84.84,0,1,0-.84.84.84.84,0,0,0,.84-.84" transform="translate(0 0)"/><path class="cls-11" d="M137.1,476.83a.84.84,0,1,0-.84.84.84.84,0,0,0,.84-.84" transform="translate(0 0)"/><path class="cls-11" d="M87.74,406.2a.84.84,0,1,0-.84.84.84.84,0,0,0,.84-.84" transform="translate(0 0)"/><path class="cls-11" d="M91.23,399.29a.84.84,0,1,0-.84.84.84.84,0,0,0,.84-.84" transform="translate(0 0)"/><path class="cls-11" d="M67.27,395.78a.84.84,0,1,0-.84.84.84.84,0,0,0,.84-.84" transform="translate(0 0)"/><path class="cls-11" d="M66.31,390.63a.84.84,0,1,0-.84.84.84.84,0,0,0,.84-.84" transform="translate(0 0)"/><path class="cls-11" d="M183.74,469.59a.84.84,0,1,0-.84.84.84.84,0,0,0,.84-.84" transform="translate(0 0)"/><path class="cls-11" d="M213.74,470.94a.84.84,0,1,0-.84.84.84.84,0,0,0,.84-.84" transform="translate(0 0)"/><path class="cls-11" d="M183.89,450.83a1,1,0,1,0-1,1,1,1,0,0,0,1-1" transform="translate(0 0)"/><path class="cls-11" d="M193.78,447.72a1,1,0,1,0-1,1,1,1,0,0,0,1-1" transform="translate(0 0)"/><path class="cls-11" d="M183.47,461.87a1,1,0,1,0-1,1,1,1,0,0,0,1-1" transform="translate(0 0)"/><path class="cls-11" d="M117.2,465.42a2,2,0,1,0-2,2,2,2,0,0,0,2-2" transform="translate(0 0)"/><path class="cls-11" d="M91.38,454.65a2,2,0,1,0-2,2,2,2,0,0,0,2-2" transform="translate(0 0)"/><path class="cls-11" d="M74.57,455.82a2,2,0,1,0-2,2,2,2,0,0,0,2-2" transform="translate(0 0)"/><path class="cls-11" d="M100.38,447.09a1,1,0,1,0-1,1,1,1,0,0,0,1-1" transform="translate(0 0)"/><path class="cls-11" d="M80.21,454.65a1,1,0,1,0-1,1,1,1,0,0,0,1-1" transform="translate(0 0)"/><path class="cls-11" d="M118.68,458.45a1,1,0,1,0-1,1,1,1,0,0,0,1-1" transform="translate(0 0)"/><path class="cls-11" d="M123.3,444.22a1,1,0,1,0-1,1,1,1,0,0,0,1-1" transform="translate(0 0)"/><path class="cls-11" d="M216.14,475.87a1.62,1.62,0,1,0-1.62,1.62,1.62,1.62,0,0,0,1.62-1.62" transform="translate(0 0)"/><path class="cls-11" d="M161.66,414.87a2,2,0,1,0,2.59-1.14,2,2,0,0,0-2.59,1.14" transform="translate(0 0)"/><path class="cls-11" d="M173.52,429.76a2,2,0,1,0,2.59-1.14,2,2,0,0,0-2.59,1.14" transform="translate(0 0)"/><path class="cls-11" d="M229.72,454.63a2,2,0,1,0,2.59-1.14,2,2,0,0,0-2.59,1.14" transform="translate(0 0)"/><path class="cls-11" d="M174.75,438.54a2,2,0,1,0,2.59-1.14,2,2,0,0,0-2.59,1.14" transform="translate(0 0)"/><path class="cls-11" d="M161.63,435.59a2,2,0,1,0,2.59-1.14,2,2,0,0,0-2.59,1.14" transform="translate(0 0)"/><path class="cls-11" d="M159,423.85a1.2,1.2,0,1,0,1.55-.68,1.2,1.2,0,0,0-1.55.68" transform="translate(0 0)"/><path class="cls-11" d="M138.23,437.66a1.2,1.2,0,1,0,1.55-.68,1.2,1.2,0,0,0-1.55.68" transform="translate(0 0)"/><path class="cls-11" d="M138,450.76a1.2,1.2,0,1,0,1.55-.68,1.2,1.2,0,0,0-1.55.68" transform="translate(0 0)"/><path class="cls-11" d="M115.06,441.63a1.2,1.2,0,1,0,1.55-.68,1.2,1.2,0,0,0-1.55.68" transform="translate(0 0)"/><path class="cls-11" d="M123.56,404a1.2,1.2,0,1,0,1.55-.68,1.2,1.2,0,0,0-1.55.68" transform="translate(0 0)"/><path class="cls-11" d="M140.88,415.82a1.2,1.2,0,1,0,1.55-.68,1.2,1.2,0,0,0-1.55.68" transform="translate(0 0)"/><path class="cls-11" d="M170.27,425.22a1,1,0,1,0,1.28-.56,1,1,0,0,0-1.28.56" transform="translate(0 0)"/><path class="cls-11" d="M177.67,420.84a1,1,0,1,0,1.28-.56,1,1,0,0,0-1.28.56" transform="translate(0 0)"/><path class="cls-11" d="M186.91,430.85a1,1,0,1,0,1.28-.56,1,1,0,0,0-1.28.56" transform="translate(0 0)"/><path class="cls-11" d="M193.89,425.24a1,1,0,1,0,1.28-.56,1,1,0,0,0-1.28.56" transform="translate(0 0)"/><path class="cls-11" d="M190.19,436a1,1,0,1,0,1.28-.56,1,1,0,0,0-1.28.56" transform="translate(0 0)"/><path class="cls-11" d="M164.56,421.11a1,1,0,1,0,1.28-.56,1,1,0,0,0-1.28.56" transform="translate(0 0)"/><path class="cls-11" d="M171,438a1,1,0,1,0,1.28-.56A1,1,0,0,0,171,438" transform="translate(0 0)"/><path class="cls-11" d="M159.23,442.5a1,1,0,1,0,1.28-.56,1,1,0,0,0-1.28.56" transform="translate(0 0)"/><path class="cls-11" d="M181.7,433.26a.84.84,0,1,0,1.08-.48.84.84,0,0,0-1.08.48" transform="translate(0 0)"/><path class="cls-11" d="M154.23,421.13a.84.84,0,1,0,1.09-.48.84.84,0,0,0-1.09.48" transform="translate(0 0)"/><path class="cls-11" d="M153.78,415.67a1.62,1.62,0,1,0,2.1-.92,1.62,1.62,0,0,0-2.1.92" transform="translate(0 0)"/><path class="cls-11" d="M152.57,441.48a1.62,1.62,0,1,0,2.1-.92,1.62,1.62,0,0,0-2.1.92" transform="translate(0 0)"/><path class="cls-11" d="M150.95,429.64a1.62,1.62,0,1,0,2.1-.92,1.62,1.62,0,0,0-2.1.92" transform="translate(0 0)"/><path class="cls-11" d="M131.16,447.14a1.62,1.62,0,1,0,2.1-.92,1.62,1.62,0,0,0-2.1.92" transform="translate(0 0)"/><path class="cls-11" d="M78.63,397.67A1.62,1.62,0,1,0,77,399.29a1.62,1.62,0,0,0,1.62-1.62" transform="translate(0 0)"/><path class="cls-11" d="M213.26,437.15a1.62,1.62,0,1,0-1.62,1.62,1.62,1.62,0,0,0,1.62-1.62" transform="translate(0 0)"/><path class="cls-11" d="M223.14,455.35a1.62,1.62,0,1,0-1.62,1.62,1.62,1.62,0,0,0,1.62-1.62" transform="translate(0 0)"/><path class="cls-11" d="M231.2,443.24a1.62,1.62,0,1,0-1.62,1.62,1.62,1.62,0,0,0,1.62-1.62" transform="translate(0 0)"/><path class="cls-11" d="M169.76,457.36a1.62,1.62,0,1,0-1.62,1.62,1.62,1.62,0,0,0,1.62-1.62" transform="translate(0 0)"/><path class="cls-11" d="M153.62,451.58A1.62,1.62,0,1,0,152,453.2a1.62,1.62,0,0,0,1.62-1.62" transform="translate(0 0)"/><path class="cls-11" d="M196,454a1.62,1.62,0,1,0-1.62,1.62A1.62,1.62,0,0,0,196,454" transform="translate(0 0)"/><path class="cls-11" d="M174.73,500.32a2,2,0,1,0-2.51,1.32,2,2,0,0,0,2.51-1.32" transform="translate(0 0)"/><path class="cls-11" d="M165.41,507.95a2,2,0,1,0-2.51,1.32,2,2,0,0,0,2.51-1.32" transform="translate(0 0)"/><path class="cls-11" d="M151.29,493a2,2,0,1,0-2.51,1.32,2,2,0,0,0,2.51-1.32" transform="translate(0 0)"/><path class="cls-11" d="M124,490.78a2,2,0,1,0-2.51,1.32,2,2,0,0,0,2.51-1.32" transform="translate(0 0)"/><path class="cls-11" d="M132.84,486.71a2,2,0,1,0-2.51,1.32,2,2,0,0,0,2.51-1.32" transform="translate(0 0)"/><path class="cls-11" d="M155.08,504a2,2,0,1,0-2.51,1.32,2,2,0,0,0,2.51-1.32" transform="translate(0 0)"/><path class="cls-11" d="M140,501.45a1,1,0,1,0-1.24.65,1,1,0,0,0,1.24-.65" transform="translate(0 0)"/><path class="cls-11" d="M140.29,493.9a1,1,0,1,0-1.24.65,1,1,0,0,0,1.24-.65" transform="translate(0 0)"/><path class="cls-11" d="M107.9,498.48a1,1,0,1,0-1.23.65,1,1,0,0,0,1.23-.65" transform="translate(0 0)"/><path class="cls-11" d="M178.55,498.86a1,1,0,1,0-1.24.65,1,1,0,0,0,1.24-.65" transform="translate(0 0)"/><path class="cls-11" d="M159.32,497.63a1,1,0,1,0-1.24.65,1,1,0,0,0,1.24-.65" transform="translate(0 0)"/><path class="cls-11" d="M173.2,507.49a1,1,0,1,0-1.24.65,1,1,0,0,0,1.24-.65" transform="translate(0 0)"/><path class="cls-11" d="M162.24,503.48a1,1,0,1,0-1.24.65,1,1,0,0,0,1.24-.65" transform="translate(0 0)"/><path class="cls-11" d="M168.48,498.88a1,1,0,1,0-1.24.65,1,1,0,0,0,1.24-.65" transform="translate(0 0)"/><path class="cls-11" d="M156.62,493.07a1,1,0,1,0-1.24.65,1,1,0,0,0,1.24-.65" transform="translate(0 0)"/><path class="cls-11" d="M145.82,498.6a1,1,0,1,0-1.24.65,1,1,0,0,0,1.24-.65" transform="translate(0 0)"/><path class="cls-11" d="M126.52,500.46a1,1,0,1,0-1.24.65,1,1,0,0,0,1.24-.65" transform="translate(0 0)"/><path class="cls-11" d="M167.56,494.29a1.62,1.62,0,1,0-2,1.07,1.62,1.62,0,0,0,2-1.07" transform="translate(0 0)"/><path class="cls-11" d="M171.58,514.61a1.62,1.62,0,1,0-2,1.07,1.62,1.62,0,0,0,2-1.07" transform="translate(0 0)"/><path class="cls-11" d="M146.11,505.26a1.62,1.62,0,1,0-2,1.07,1.62,1.62,0,0,0,2-1.07" transform="translate(0 0)"/><path class="cls-11" d="M96,436.32a2,2,0,1,0-2,2,2,2,0,0,0,2-2" transform="translate(0 0)"/><path class="cls-11" d="M109.27,450a2,2,0,1,0-2,2,2,2,0,0,0,2-2" transform="translate(0 0)"/><path class="cls-11" d="M82,440.1a2,2,0,1,0-2,2,2,2,0,0,0,2-2" transform="translate(0 0)"/><path class="cls-11" d="M84.89,447.09a1,1,0,1,0-1,1,1,1,0,0,0,1-1" transform="translate(0 0)"/><path class="cls-11" d="M85.88,439.26a1,1,0,1,0-1,1,1,1,0,0,0,1-1" transform="translate(0 0)"/><path class="cls-11" d="M102.12,437.74a1,1,0,1,0-1,1,1,1,0,0,0,1-1" transform="translate(0 0)"/><path class="cls-11" d="M113.16,441.79a1,1,0,1,0-1,1,1,1,0,0,0,1-1" transform="translate(0 0)"/><path class="cls-11" d="M97.57,425.59a1,1,0,1,0-1,1,1,1,0,0,0,1-1" transform="translate(0 0)"/><path class="cls-11" d="M101.58,420.16a1,1,0,1,0-1,1,1,1,0,0,0,1-1" transform="translate(0 0)"/><path class="cls-11" d="M79.61,449.07a1,1,0,1,0-1,1,1,1,0,0,0,1-1" transform="translate(0 0)"/><path class="cls-11" d="M90.36,436.32a1,1,0,1,0-1,1,1,1,0,0,0,1-1" transform="translate(0 0)"/><path class="cls-11" d="M85.69,425.24a1,1,0,1,0,1.28-.56,1,1,0,0,0-1.28.56" transform="translate(0 0)"/><path class="cls-11" d="M92.32,420.84a1,1,0,1,0,1.28-.56,1,1,0,0,0-1.28.56" transform="translate(0 0)"/><path class="cls-11" d="M93.89,412.43a1,1,0,1,0,1.28-.56,1,1,0,0,0-1.28.56" transform="translate(0 0)"/><path class="cls-11" d="M89,430.34a1,1,0,1,0,1.28-.56,1,1,0,0,0-1.28.56" transform="translate(0 0)"/><path class="cls-11" d="M80.48,427.64a.84.84,0,1,0,1.09-.48.84.84,0,0,0-1.09.48" transform="translate(0 0)"/><path class="cls-11" d="M94.81,448.38A1.62,1.62,0,1,0,93.19,450a1.62,1.62,0,0,0,1.62-1.62" transform="translate(0 0)"/><path class="cls-11" d="M102.59,465.22a2,2,0,1,0-2,2,2,2,0,0,0,2-2" transform="translate(0 0)"/><path class="cls-11" d="M88.09,491.48a2,2,0,1,0-2,2,2,2,0,0,0,2-2" transform="translate(0 0)"/><path class="cls-11" d="M78,465.22a2,2,0,1,0-2,2,2,2,0,0,0,2-2" transform="translate(0 0)"/><path class="cls-11" d="M63.21,482.58a2,2,0,1,0-2,2,2,2,0,0,0,2-2" transform="translate(0 0)"/><path class="cls-11" d="M90.39,477.64a2,2,0,1,0-2,2,2,2,0,0,0,2-2" transform="translate(0 0)"/><path class="cls-11" d="M84.9,481.42a2,2,0,1,0-2,2,2,2,0,0,0,2-2" transform="translate(0 0)"/><path class="cls-11" d="M102.38,494.6a2,2,0,1,0-2,2,2,2,0,0,0,2-2" transform="translate(0 0)"/><path class="cls-11" d="M69.8,476.61a1,1,0,1,0-1,1,1,1,0,0,0,1-1" transform="translate(0 0)"/><path class="cls-11" d="M66.46,472.94a1,1,0,1,0-1,1,1,1,0,0,0,1-1" transform="translate(0 0)"/><path class="cls-11" d="M108.26,469.59a1,1,0,1,0-1,1,1,1,0,0,0,1-1" transform="translate(0 0)"/><path class="cls-11" d="M87.08,467.23a1,1,0,1,0-1,1,1,1,0,0,0,1-1" transform="translate(0 0)"/><path class="cls-11" d="M103.26,472.52a1,1,0,1,0-1,1,1,1,0,0,0,1-1" transform="translate(0 0)"/><path class="cls-11" d="M91.6,472a1,1,0,1,0-1,1,1,1,0,0,0,1-1" transform="translate(0 0)"/><path class="cls-11" d="M113.19,452.83a1,1,0,1,0-1,1,1,1,0,0,0,1-1" transform="translate(0 0)"/><path class="cls-11" d="M107.95,455.2a1,1,0,1,0-1,1,1,1,0,0,0,1-1" transform="translate(0 0)"/><path class="cls-11" d="M83.14,463.68a1,1,0,1,0-1,1,1,1,0,0,0,1-1" transform="translate(0 0)"/><path class="cls-11" d="M74.48,472.17a1,1,0,1,0-1,1,1,1,0,0,0,1-1" transform="translate(0 0)"/><path class="cls-11" d="M94.13,491.79a1,1,0,1,0-1,1,1,1,0,0,0,1-1" transform="translate(0 0)"/><path class="cls-11" d="M93.95,461.6a1.62,1.62,0,1,0-1.62,1.62,1.62,1.62,0,0,0,1.62-1.62" transform="translate(0 0)"/><path class="cls-11" d="M102.85,481.48a1.62,1.62,0,1,0-1.62,1.62,1.62,1.62,0,0,0,1.62-1.62" transform="translate(0 0)"/><path class="cls-11" d="M76.73,478.45a1.62,1.62,0,1,0-1.62,1.62,1.62,1.62,0,0,0,1.62-1.62" transform="translate(0 0)"/><path class="cls-11" d="M122.94,500.57a1.62,1.62,0,1,0-1.62,1.62,1.62,1.62,0,0,0,1.62-1.62" transform="translate(0 0)"/><path class="cls-11" d="M134.82,503.16a1.62,1.62,0,1,0-1.62,1.62,1.62,1.62,0,0,0,1.62-1.62" transform="translate(0 0)"/><path class="cls-11" d="M79.26,489.48a1.62,1.62,0,1,0-1.62,1.62,1.62,1.62,0,0,0,1.62-1.62" transform="translate(0 0)"/><path class="cls-11" d="M129.69,412.12a2,2,0,1,0-2,2,2,2,0,0,0,2-2" transform="translate(0 0)"/><path class="cls-11" d="M146.88,410.11a2,2,0,1,0-2,2,2,2,0,0,0,2-2" transform="translate(0 0)"/><path class="cls-11" d="M142.34,421.46a2,2,0,1,0-2,2,2,2,0,0,0,2-2" transform="translate(0 0)"/><path class="cls-11" d="M126.68,433.1a2,2,0,1,0-2,2,2,2,0,0,0,2-2" transform="translate(0 0)"/><path class="cls-11" d="M105.14,412.12a2,2,0,1,0-2,2,2,2,0,0,0,2-2" transform="translate(0 0)"/><path class="cls-11" d="M110.27,401.91a2,2,0,1,0-2,2,2,2,0,0,0,2-2" transform="translate(0 0)"/><path class="cls-11" d="M89.75,416.25a2,2,0,1,0-2,2,2,2,0,0,0,2-2" transform="translate(0 0)"/><path class="cls-11" d="M78,413.14a2,2,0,1,0-2,2,2,2,0,0,0,2-2" transform="translate(0 0)"/><path class="cls-11" d="M116.18,430.7a2,2,0,1,0-2,2,2,2,0,0,0,2-2" transform="translate(0 0)"/><path class="cls-11" d="M132.9,409.59a1,1,0,1,0-1,1,1,1,0,0,0,1-1" transform="translate(0 0)"/><path class="cls-11" d="M137.25,407.13a1,1,0,1,0-1,1,1,1,0,0,0,1-1" transform="translate(0 0)"/><path class="cls-11" d="M107.95,417.6a1,1,0,1,0-1,1,1,1,0,0,0,1-1" transform="translate(0 0)"/><path class="cls-11" d="M130.36,419.42a1,1,0,1,0-1,1,1,1,0,0,0,1-1" transform="translate(0 0)"/><path class="cls-11" d="M136.26,415.74a1,1,0,1,0-1,1,1,1,0,0,0,1-1" transform="translate(0 0)"/><path class="cls-11" d="M118.68,416.25a1,1,0,1,0-1,1,1,1,0,0,0,1-1" transform="translate(0 0)"/><path class="cls-11" d="M123.3,412.61a1,1,0,1,0-1,1,1,1,0,0,0,1-1" transform="translate(0 0)"/><path class="cls-11" d="M110.24,410.58a1,1,0,1,0-1,1,1,1,0,0,0,1-1" transform="translate(0 0)"/><path class="cls-11" d="M121,408.5a1.62,1.62,0,1,0-1.62,1.62A1.62,1.62,0,0,0,121,408.5" transform="translate(0 0)"/><path class="cls-11" d="M135.91,433.1a1.62,1.62,0,1,0-1.62,1.62,1.62,1.62,0,0,0,1.62-1.62" transform="translate(0 0)"/><path class="cls-11" d="M103.83,425.34a1.62,1.62,0,1,0-1.62,1.62,1.62,1.62,0,0,0,1.62-1.62" transform="translate(0 0)"/><path class="cls-11" d="M63.52,397.67a1.62,1.62,0,1,0-1.62,1.62,1.62,1.62,0,0,0,1.62-1.62" transform="translate(0 0)"/><path class="cls-11" d="M172.48,485a2,2,0,1,0-2,2,2,2,0,0,0,2-2" transform="translate(0 0)"/><path class="cls-11" d="M182.83,488.19a1.2,1.2,0,1,0-1.2,1.2,1.2,1.2,0,0,0,1.2-1.2" transform="translate(0 0)"/><path class="cls-11" d="M185.26,478.45a1.2,1.2,0,1,0-1.2,1.2,1.2,1.2,0,0,0,1.2-1.2" transform="translate(0 0)"/><path class="cls-11" d="M169.51,474.44a1,1,0,1,0-1,1,1,1,0,0,0,1-1" transform="translate(0 0)"/><path class="cls-11" d="M159.37,462.69a1,1,0,1,0-1,1,1,1,0,0,0,1-1" transform="translate(0 0)"/><path class="cls-11" d="M122.31,480.49a1,1,0,1,0-1,1,1,1,0,0,0,1-1" transform="translate(0 0)"/><path class="cls-11" d="M124.44,457.37a1.2,1.2,0,1,0-1.2,1.2,1.2,1.2,0,0,0,1.2-1.2" transform="translate(0 0)"/><path class="cls-11" d="M134.72,459.13a1,1,0,1,0-1,1,1,1,0,0,0,1-1" transform="translate(0 0)"/><path class="cls-11" d="M129.37,463.42a1,1,0,1,0-1,1,1,1,0,0,0,1-1" transform="translate(0 0)"/><path class="cls-11" d="M173.9,478.09a1,1,0,1,0-1,1,1,1,0,0,0,1-1" transform="translate(0 0)"/><path class="cls-11" d="M225.11,462.29a1,1,0,1,0-1,1,1,1,0,0,0,1-1" transform="translate(0 0)"/><path class="cls-11" d="M66.6,409.4a1,1,0,1,0-1,1,1,1,0,0,0,1-1" transform="translate(0 0)"/><path class="cls-11" d="M61.7,405.83a1,1,0,1,0-1,1,1,1,0,0,0,1-1" transform="translate(0 0)"/><path class="cls-11" d="M70.59,405.27a.84.84,0,1,0-.84.84.84.84,0,0,0,.84-.84" transform="translate(0 0)"/><path class="cls-11" d="M56.36,410.12a1,1,0,1,0-1,1,1,1,0,0,0,1-1" transform="translate(0 0)"/><path class="cls-11" d="M60.75,413.77a1,1,0,1,0-1,1,1,1,0,0,0,1-1" transform="translate(0 0)"/><path class="cls-11" d="M129.37,427.74a1,1,0,1,0-1,1,1,1,0,0,0,1-1" transform="translate(0 0)"/><path class="cls-11" d="M159.74,481.47a1,1,0,1,0-1,1,1,1,0,0,0,1-1" transform="translate(0 0)"/><path class="cls-11" d="M154.66,486.59a1,1,0,1,0-1,1,1,1,0,0,0,1-1" transform="translate(0 0)"/><path class="cls-11" d="M130.68,492.43a1,1,0,1,0-1,1,1,1,0,0,0,1-1" transform="translate(0 0)"/><path class="cls-11" d="M176.23,487.61a.84.84,0,1,0-.84.84.84.84,0,0,0,.84-.84" transform="translate(0 0)"/><path class="cls-11" d="M198.55,461.09a1.2,1.2,0,1,0-1.2,1.2,1.2,1.2,0,0,0,1.2-1.2" transform="translate(0 0)"/><path class="cls-11" d="M206.28,466.19a1.2,1.2,0,1,0-1.2,1.2,1.2,1.2,0,0,0,1.2-1.2" transform="translate(0 0)"/><path class="cls-11" d="M192,460.52a.84.84,0,1,0-.84.84.84.84,0,0,0,.84-.84" transform="translate(0 0)"/><path class="cls-11" d="M155.75,477.19a.84.84,0,1,0-.84.84.84.84,0,0,0,.84-.84" transform="translate(0 0)"/><path class="cls-11" d="M135.66,470.43a.84.84,0,1,0-.84.84.84.84,0,0,0,.84-.84" transform="translate(0 0)"/><path class="cls-11" d="M167.12,479.08a1.62,1.62,0,1,0-1.62,1.62,1.62,1.62,0,0,0,1.62-1.62" transform="translate(0 0)"/><path class="cls-11" d="M162.91,487.61a1.62,1.62,0,1,0-1.62,1.62,1.62,1.62,0,0,0,1.62-1.62" transform="translate(0 0)"/><path class="cls-11" d="M152,479.08a1.62,1.62,0,1,0-1.62,1.62,1.62,1.62,0,0,0,1.62-1.62" transform="translate(0 0)"/><path class="cls-11" d="M116.81,480.07a1.62,1.62,0,1,0-1.62,1.62,1.62,1.62,0,0,0,1.62-1.62" transform="translate(0 0)"/><path class="cls-11" d="M122.92,474.26a1.62,1.62,0,1,0-1.62,1.62,1.62,1.62,0,0,0,1.62-1.62" transform="translate(0 0)"/><path class="cls-11" d="M110.89,485.6a1.62,1.62,0,1,0-1.62,1.62,1.62,1.62,0,0,0,1.62-1.62" transform="translate(0 0)"/><path class="cls-11" d="M74.73,437.7a2,2,0,1,0-1.6-2.34,2,2,0,0,0,1.6,2.34" transform="translate(0 0)"/><path class="cls-11" d="M55.46,457.79a2,2,0,1,0-1.6-2.34,2,2,0,0,0,1.6,2.34" transform="translate(0 0)"/><path class="cls-11" d="M55.23,469.77a1.8,1.8,0,1,0-1.43-2.1,1.8,1.8,0,0,0,1.43,2.1" transform="translate(0 0)"/><path class="cls-11" d="M140.46,463.64a1.8,1.8,0,1,0-1.43-2.1,1.8,1.8,0,0,0,1.43,2.1" transform="translate(0 0)"/><path class="cls-11" d="M42.53,476.58a2,2,0,1,0-1.6-2.34,2,2,0,0,0,1.6,2.34" transform="translate(0 0)"/><path class="cls-11" d="M43.77,457.17a2,2,0,1,0-1.6-2.34,2,2,0,0,0,1.6,2.34" transform="translate(0 0)"/><path class="cls-11" d="M63.66,454a2,2,0,1,0-1.59-2.34A2,2,0,0,0,63.66,454" transform="translate(0 0)"/><path class="cls-11" d="M53.22,477.76a2,2,0,1,0-1.6-2.34,2,2,0,0,0,1.6,2.34" transform="translate(0 0)"/><path class="cls-11" d="M55,432a2,2,0,1,0-1.6-2.34A2,2,0,0,0,55,432" transform="translate(0 0)"/><path class="cls-11" d="M77.25,427.15a1.2,1.2,0,1,0,.6,1.58,1.2,1.2,0,0,0-.6-1.58" transform="translate(0 0)"/><path class="cls-11" d="M61.69,434.64a1.2,1.2,0,1,0,.6,1.58,1.2,1.2,0,0,0-.6-1.58" transform="translate(0 0)"/><path class="cls-11" d="M77.6,418.33a1.2,1.2,0,1,0,.6,1.58,1.2,1.2,0,0,0-.6-1.58" transform="translate(0 0)"/><path class="cls-11" d="M61,419a1.2,1.2,0,1,0,.6,1.58A1.2,1.2,0,0,0,61,419" transform="translate(0 0)"/><path class="cls-11" d="M49.61,472.66a1.2,1.2,0,1,0,.6,1.58,1.2,1.2,0,0,0-.6-1.58" transform="translate(0 0)"/><path class="cls-11" d="M61.39,443.81a1.37,1.37,0,1,0,.69,1.81,1.37,1.37,0,0,0-.69-1.81" transform="translate(0 0)"/><path class="cls-11" d="M51,443a1.37,1.37,0,1,0,.69,1.81A1.37,1.37,0,0,0,51,443" transform="translate(0 0)"/><path class="cls-11" d="M69.47,427.86a1.37,1.37,0,1,0,.69,1.81,1.37,1.37,0,0,0-.69-1.81" transform="translate(0 0)"/><path class="cls-11" d="M53.05,448.57a1.37,1.37,0,1,0,.69,1.81,1.37,1.37,0,0,0-.69-1.81" transform="translate(0 0)"/><path class="cls-11" d="M42.68,462.79a1.37,1.37,0,1,0,.69,1.81,1.37,1.37,0,0,0-.69-1.81" transform="translate(0 0)"/><path class="cls-11" d="M120.6,425.71a1.37,1.37,0,1,0,.69,1.81,1.37,1.37,0,0,0-.69-1.81" transform="translate(0 0)"/><path class="cls-11" d="M61.88,463.65a1.37,1.37,0,1,0,.69,1.82,1.37,1.37,0,0,0-.69-1.82" transform="translate(0 0)"/><path class="cls-11" d="M72,416.7a1,1,0,1,0,.5,1.3,1,1,0,0,0-.5-1.3" transform="translate(0 0)"/><path class="cls-11" d="M67.11,442.76a.79.79,0,1,0,.4,1,.79.79,0,0,0-.4-1" transform="translate(0 0)"/><path class="cls-11" d="M66.8,421.27a.79.79,0,1,0,.4,1,.79.79,0,0,0-.4-1" transform="translate(0 0)"/><path class="cls-11" d="M49.45,453.29a.79.79,0,1,0,.4,1,.79.79,0,0,0-.4-1" transform="translate(0 0)"/><path class="cls-11" d="M46.34,446.79a.79.79,0,1,0,.4,1,.79.79,0,0,0-.4-1" transform="translate(0 0)"/><path class="cls-11" d="M69.08,451.66a.88.88,0,1,0,.45,1.17.88.88,0,0,0-.45-1.17" transform="translate(0 0)"/><path class="cls-11" d="M65.83,457.64a.88.88,0,1,0,.45,1.17.88.88,0,0,0-.45-1.17" transform="translate(0 0)"/><path class="cls-11" d="M58.07,472.37a.88.88,0,1,0,.44,1.17.88.88,0,0,0-.44-1.17" transform="translate(0 0)"/><path class="cls-11" d="M54.64,460.18a.88.88,0,1,0,.44,1.17.88.88,0,0,0-.44-1.17" transform="translate(0 0)"/><path class="cls-11" d="M49.9,466a.88.88,0,1,0,.45,1.17A.88.88,0,0,0,49.9,466" transform="translate(0 0)"/><path class="cls-11" d="M49.44,457.72a.88.88,0,1,0,.45,1.17.88.88,0,0,0-.45-1.17" transform="translate(0 0)"/><path class="cls-11" d="M51.13,479.14a.88.88,0,1,0,.45,1.17.88.88,0,0,0-.45-1.17" transform="translate(0 0)"/><path class="cls-11" d="M53.41,417.94a1,1,0,1,0,.51,1.33,1,1,0,0,0-.51-1.33" transform="translate(0 0)"/><path class="cls-11" d="M133.35,464.5a1,1,0,1,0,.51,1.34,1,1,0,0,0-.51-1.34" transform="translate(0 0)"/><path class="cls-11" d="M46.43,465.26a1,1,0,1,0,.51,1.34,1,1,0,0,0-.51-1.34" transform="translate(0 0)"/><path class="cls-11" d="M57.32,438.42a1,1,0,1,0,.51,1.33,1,1,0,0,0-.51-1.33" transform="translate(0 0)"/><path class="cls-11" d="M37,472.49a1,1,0,1,0,.51,1.33,1,1,0,0,0-.51-1.33" transform="translate(0 0)"/><path class="cls-11" d="M60.08,456.65a.79.79,0,1,0,.4,1,.79.79,0,0,0-.4-1" transform="translate(0 0)"/><path class="cls-11" d="M191.79,497.95a2,2,0,1,0-.72-2.74,2,2,0,0,0,.72,2.74" transform="translate(0 0)"/><path class="cls-11" d="M215.51,472.31a2,2,0,1,0-.72-2.74,2,2,0,0,0,.72,2.74" transform="translate(0 0)"/><path class="cls-11" d="M187.58,509.16a1.8,1.8,0,1,0-.65-2.46,1.8,1.8,0,0,0,.65,2.46" transform="translate(0 0)"/><path class="cls-11" d="M183,516a2,2,0,1,0-.72-2.74A2,2,0,0,0,183,516" transform="translate(0 0)"/><path class="cls-11" d="M181.32,510a1.2,1.2,0,1,0,0,1.7,1.2,1.2,0,0,0,0-1.7" transform="translate(0 0)"/><path class="cls-11" d="M192.59,488.45a1.37,1.37,0,1,0,0,1.94,1.37,1.37,0,0,0,0-1.94" transform="translate(0 0)"/><path class="cls-11" d="M205.07,485.78a1.37,1.37,0,1,0,0,1.94,1.37,1.37,0,0,0,0-1.94" transform="translate(0 0)"/><path class="cls-11" d="M193.56,480.21a1.37,1.37,0,1,0,0,1.94,1.37,1.37,0,0,0,0-1.94" transform="translate(0 0)"/><path class="cls-11" d="M178.55,455.58a1.37,1.37,0,1,0,0,1.94,1.37,1.37,0,0,0,0-1.94" transform="translate(0 0)"/><path class="cls-11" d="M170.45,462.69a1.37,1.37,0,1,0,0,1.94,1.37,1.37,0,0,0,0-1.94" transform="translate(0 0)"/><path class="cls-11" d="M187.63,491.7a.79.79,0,1,0,0,1.12.79.79,0,0,0,0-1.12" transform="translate(0 0)"/><path class="cls-11" d="M189.39,512.56a.88.88,0,1,0,0,1.25.88.88,0,0,0,0-1.25" transform="translate(0 0)"/><path class="cls-11" d="M190.22,499.93a.88.88,0,1,0,0,1.25.88.88,0,0,0,0-1.25" transform="translate(0 0)"/><path class="cls-11" d="M183.79,503.88a.88.88,0,1,0,0,1.25.88.88,0,0,0,0-1.25" transform="translate(0 0)"/><path class="cls-11" d="M186.13,495.88a.88.88,0,1,0,0,1.25.88.88,0,0,0,0-1.25" transform="translate(0 0)"/><path class="cls-11" d="M180.59,516.63a.88.88,0,1,0,0,1.25.88.88,0,0,0,0-1.25" transform="translate(0 0)"/><path class="cls-11" d="M196.83,485.75a1,1,0,1,0,0,1.43,1,1,0,0,0,0-1.43" transform="translate(0 0)"/><path class="cls-11" d="M196.52,498.41a.79.79,0,1,0,0,1.11.79.79,0,0,0,0-1.11" transform="translate(0 0)"/><path class="cls-11" d="M60.14,423.41a.79.79,0,1,0,.4,1,.79.79,0,0,0-.4-1" transform="translate(0 0)"/><path class="cls-11" d="M40,469a.79.79,0,1,0,.4,1,.79.79,0,0,0-.4-1" transform="translate(0 0)"/><path class="cls-11" d="M71.48,442.13a.79.79,0,1,0,.4,1,.79.79,0,0,0-.4-1" transform="translate(0 0)"/></g><path class="cls-9" d="M404.53,326v-3.53h-1.3V326h-.47V322H405V326Z" transform="translate(0 0)"/><path class="cls-9" d="M405.83,326.06l-.08-.18-.08-.18a1.52,1.52,0,0,0,.24-.15.5.5,0,0,0,.15-.2,1.19,1.19,0,0,0,.08-.34q0-.21,0-.57v-1.27h1.72V326h-.46v-2.4h-.83v1.1a3,3,0,0,1,0,.59,1.26,1.26,0,0,1-.14.4.73.73,0,0,1-.24.25A1.32,1.32,0,0,1,405.83,326.06Z" transform="translate(0 0)"/><path class="cls-9" d="M409.73,323.14a.91.91,0,0,1,.53.13,1,1,0,0,1,.31.33.74.74,0,0,1,.07.18,2.16,2.16,0,0,1,0,.24c0,.09,0,.18,0,.28s0,.19,0,.27,0,.12,0,.19,0,.16,0,.24l0,.24a1.08,1.08,0,0,1,0,.18.76.76,0,0,1-.15.28.79.79,0,0,1-.23.18,1,1,0,0,1-.27.1,1.39,1.39,0,0,1-.3,0,1,1,0,0,1-.53-.14.85.85,0,0,1-.31-.35,1.27,1.27,0,0,1-.1-.4,4.59,4.59,0,0,1,0-.53,5,5,0,0,1,0-.51,1.44,1.44,0,0,1,.09-.4.9.9,0,0,1,.34-.4A1,1,0,0,1,409.73,323.14Zm0,.41a.55.55,0,0,0-.29.08.47.47,0,0,0-.19.24,1.29,1.29,0,0,0-.06.31,4.64,4.64,0,0,0,0,.47q0,.19,0,.35a.87.87,0,0,0,.05.28.53.53,0,0,0,.18.24.5.5,0,0,0,.3.08.55.55,0,0,0,.31-.08.48.48,0,0,0,.19-.27,1.06,1.06,0,0,0,0-.27c0-.13,0-.27,0-.42s0-.26,0-.38a1.17,1.17,0,0,0,0-.28.51.51,0,0,0-.19-.25A.5.5,0,0,0,409.72,323.55Z" transform="translate(0 0)"/><path class="cls-9" d="M414.71,323.17v2.38H415v1.11h-.43V326h-3v-2.8H412v2.38h.89v-2.38h.46v2.38h.9v-2.38Z" transform="translate(0 0)"/><path class="cls-9" d="M417.11,325.76a.57.57,0,0,1-.27.19,1.16,1.16,0,0,1-.39.06.9.9,0,0,1-.36-.07.67.67,0,0,1-.25-.18.73.73,0,0,1-.15-.26,1,1,0,0,1,0-.31.87.87,0,0,1,.23-.62,1,1,0,0,1,.74-.25h.51V324a.37.37,0,0,0-.13-.3.57.57,0,0,0-.38-.11.81.81,0,0,0-.31.06.37.37,0,0,0-.21.21l-.18-.1-.18-.11a.78.78,0,0,1,.35-.35,1.1,1.1,0,0,1,.52-.12,1.57,1.57,0,0,1,.37,0,.86.86,0,0,1,.31.14.66.66,0,0,1,.21.26,1,1,0,0,1,.08.4v2h-.46v-.2Zm0-1h-.55a.59.59,0,0,0-.36.1.46.46,0,0,0,0,.65.54.54,0,0,0,.38.12.67.67,0,0,0,.39-.11.43.43,0,0,0,.16-.38Z" transform="translate(0 0)"/><path class="cls-9" d="M418.66,326.7h-.44v-1.08l.22-.05a.6.6,0,0,0,.14-.15.66.66,0,0,0,.08-.21,2.24,2.24,0,0,0,0-.33c0-.13,0-.3,0-.51l.05-1.2h1.74v2.4h.25v1.13h-.44V326h-1.71Zm1.44-3.13h-.86l0,.81c0,.14,0,.27,0,.39s0,.23,0,.32a2.26,2.26,0,0,1-.05.26.91.91,0,0,1-.09.21h1.1Z" transform="translate(0 0)"/><path class="cls-9" d="M421.49,326v-2.8H422v1.08h.51a1.27,1.27,0,0,1,.45.07.79.79,0,0,1,.29.18.67.67,0,0,1,.16.27,1.08,1.08,0,0,1,0,.33.92.92,0,0,1-.21.64.94.94,0,0,1-.72.24Zm.46-.42h.51a.48.48,0,0,0,.39-.13.49.49,0,0,0,.11-.31.55.55,0,0,0,0-.16.32.32,0,0,0-.08-.14.4.4,0,0,0-.16-.1.72.72,0,0,0-.25,0H422Z" transform="translate(0 0)"/><path class="cls-9" d="M405.31,333V330.3h0l-.31.76-.54,1.22h-.32l-.55-1.24-.3-.74h0V333h-.47v-3.94h.48l.65,1.49.37.91h0l.39-.92.64-1.48h.47V333Z" transform="translate(0 0)"/><path class="cls-9" d="M407.56,333.61a.83.83,0,0,1-.28.44.73.73,0,0,1-.45.14h-.15v-.4h.14q.27,0,.36-.4l.12-.41-.9-2.73h.49l.35,1.12.27.95h0l.25-.95.33-1.12h.48Z" transform="translate(0 0)"/><path class="cls-9" d="M410.34,330.25h.46v1.21h.15a.25.25,0,0,0,.24-.14,1.23,1.23,0,0,0,.11-.38,1.07,1.07,0,0,1,.23-.55.59.59,0,0,1,.45-.16h.15v.37H412a.2.2,0,0,0-.2.11,1.37,1.37,0,0,0-.09.33,1.67,1.67,0,0,1-.11.4.45.45,0,0,1-.19.21.37.37,0,0,1,.19.2,2.34,2.34,0,0,1,.13.41,1.31,1.31,0,0,0,.11.36.2.2,0,0,0,.19.1h.13v.36H412a.85.85,0,0,1-.24,0,.43.43,0,0,1-.18-.11.64.64,0,0,1-.14-.22,1.86,1.86,0,0,1-.1-.36,1.23,1.23,0,0,0-.13-.39.27.27,0,0,0-.25-.14h-.14V333h-.46v-1.22h-.14a.26.26,0,0,0-.24.14,1.47,1.47,0,0,0-.13.4,2.19,2.19,0,0,1-.1.33.79.79,0,0,1-.13.22.44.44,0,0,1-.18.12.73.73,0,0,1-.24,0H409v-.36h.11a.22.22,0,0,0,.2-.1,1,1,0,0,0,.11-.34,1.84,1.84,0,0,1,.13-.43.45.45,0,0,1,.19-.2.5.5,0,0,1-.2-.21,1.4,1.4,0,0,1-.12-.4,1.44,1.44,0,0,0-.09-.34.2.2,0,0,0-.2-.11H409v-.37h.15a.57.57,0,0,1,.44.17,1.15,1.15,0,0,1,.23.56,1.37,1.37,0,0,0,.12.37.25.25,0,0,0,.23.14h.15Z" transform="translate(0 0)"/><path class="cls-9" d="M414.67,332.54a.9.9,0,0,1-.34.39.92.92,0,0,1-.51.14,1.3,1.3,0,0,1-.48-.08.74.74,0,0,1-.33-.25,1.16,1.16,0,0,1-.19-.44,3.16,3.16,0,0,1-.06-.66,3.21,3.21,0,0,1,0-.52,1.44,1.44,0,0,1,.15-.46,1,1,0,0,1,1.53-.15,1.27,1.27,0,0,1,.25.83v.44h-1.52a2.59,2.59,0,0,0,0,.35.88.88,0,0,0,.08.28.47.47,0,0,0,.18.19.56.56,0,0,0,.29.07.45.45,0,0,0,.28-.1.81.81,0,0,0,.21-.23Zm-.38-1.13a1,1,0,0,0-.13-.58.44.44,0,0,0-.39-.2.42.42,0,0,0-.41.21,1.33,1.33,0,0,0-.12.57Z" transform="translate(0 0)"/><path class="cls-9" d="M417,332.37l.19.1.19.1a.86.86,0,0,1-.33.37,1,1,0,0,1-.53.13A1.11,1.11,0,0,1,416,333a.81.81,0,0,1-.32-.3,1.31,1.31,0,0,1-.16-.47,3.8,3.8,0,0,1,0-.61,1.75,1.75,0,0,1,.25-1,.9.9,0,0,1,.8-.37,1,1,0,0,1,.52.14.89.89,0,0,1,.33.38L417,331a.5.5,0,0,0-.19-.23.51.51,0,0,0-.29-.08.57.57,0,0,0-.31.07.51.51,0,0,0-.18.2,1,1,0,0,0-.09.3,3,3,0,0,0,0,.38,3.44,3.44,0,0,0,0,.4,1.21,1.21,0,0,0,.09.34.59.59,0,0,0,.18.24.55.55,0,0,0,.59,0A.61.61,0,0,0,417,332.37Z" transform="translate(0 0)"/><path class="cls-9" d="M418.93,330.65V333h-.46v-2.4h-.73v-.4h1.93v.4Z" transform="translate(0 0)"/><path class="cls-9" d="M422.21,332.21a.9.9,0,0,1-.08.39.68.68,0,0,1-.21.26.9.9,0,0,1-.32.14,1.61,1.61,0,0,1-.39,0h-.94v-2.8h1a1,1,0,0,1,.7.21.73.73,0,0,1,.23.56.69.69,0,0,1-.08.33.6.6,0,0,1-.26.24h0a.51.51,0,0,1,.29.25A.84.84,0,0,1,422.21,332.21Zm-1.48-1.56v.76h.46a.74.74,0,0,0,.38-.08.34.34,0,0,0,.12-.31.34.34,0,0,0-.12-.27.59.59,0,0,0-.38-.1Zm0,1.13v.84h.48a.65.65,0,0,0,.4-.11.38.38,0,0,0,.14-.32.4.4,0,0,0-.11-.3.54.54,0,0,0-.39-.12Z" transform="translate(0 0)"/><path class="cls-9" d="M424.34,332.83a.57.57,0,0,1-.27.19,1.16,1.16,0,0,1-.39.06.9.9,0,0,1-.36-.07.67.67,0,0,1-.25-.18.73.73,0,0,1-.15-.26,1,1,0,0,1,0-.31.87.87,0,0,1,.23-.62,1,1,0,0,1,.74-.25h.51V331a.37.37,0,0,0-.13-.3.57.57,0,0,0-.38-.11.81.81,0,0,0-.31.06.37.37,0,0,0-.21.21l-.18-.1-.18-.11a.78.78,0,0,1,.35-.35,1.1,1.1,0,0,1,.52-.12,1.57,1.57,0,0,1,.37,0,.86.86,0,0,1,.31.14.66.66,0,0,1,.21.26,1,1,0,0,1,.08.4v2h-.46v-.2Zm0-1h-.55a.59.59,0,0,0-.36.1.46.46,0,0,0,0,.65.54.54,0,0,0,.38.12.67.67,0,0,0,.39-.11.43.43,0,0,0,.16-.38Z" transform="translate(0 0)"/></g></g></svg>