<svg width="26" height="50" viewBox="0 0 26 50" fill="none" xmlns="http://www.w3.org/2000/svg">
<path d="M2.184 31.563L21.576 46.667L2.6 46.667L2.6 49.355L25.416 49.355L25.416 49.227L5.992 34.123L25 34.123L25 31.435L2.184 31.435L2.184 31.563ZM4.008 26.0062C4.008 24.7902 3.944 23.7982 3.688 22.6142L25 22.6142L25 19.9262L1.96 19.9262L1.96 20.0542C3.24 22.0382 3.688 23.7342 3.688 26.0062L4.008 26.0062ZM1.064 3.24675L0.743997 3.34275C2.344 9.90275 8.232 14.1588 15.592 14.1588C20.296 14.1588 25.416 11.6627 25.416 7.37475C25.416 3.08675 20.296 0.590749 15.592 0.590749C10.888 0.59075 7.368 3.08675 7.368 7.37475C7.368 9.00675 8.232 10.1588 9.416 10.8948C6.088 10.0308 2.696 7.79075 1.064 3.24675ZM7.688 7.37475C7.688 3.50275 12.424 3.27875 15.592 3.27875C18.728 3.27875 25.096 3.50275 25.096 7.37475C25.096 11.2467 18.728 11.4708 15.592 11.4708C12.232 11.4708 7.688 11.0868 7.688 7.37475Z" fill="#212121"/>
</svg>
