<svg width="104" height="104" viewBox="0 0 104 104" fill="none" xmlns="http://www.w3.org/2000/svg">
<rect x="51.5115" y="1.41421" width="70.8482" height="70.8482" transform="rotate(45 51.5115 1.41421)" stroke="#A29162" stroke-width="2"/>
<path d="M36.3168 56V48.8906H38.807C39.6697 48.8906 40.324 49.0566 40.7699 49.3887C41.2159 49.7174 41.4389 50.2008 41.4389 50.8389C41.4389 51.1872 41.3493 51.4948 41.1703 51.7617C40.9913 52.0254 40.7423 52.2191 40.4232 52.3428C40.7878 52.4339 41.0743 52.6178 41.2826 52.8945C41.4942 53.1712 41.6 53.5098 41.6 53.9102C41.6 54.5938 41.3819 55.1113 40.9457 55.4629C40.5095 55.8145 39.8878 55.9935 39.0805 56H36.3168ZM37.7816 52.9043V54.8232H39.0365C39.3816 54.8232 39.6501 54.7419 39.8422 54.5791C40.0375 54.4131 40.1352 54.1852 40.1352 53.8955C40.1352 53.2445 39.7982 52.9141 39.1244 52.9043H37.7816ZM37.7816 51.8691H38.8656C39.6046 51.8561 39.974 51.5615 39.974 50.9854C39.974 50.6631 39.8796 50.432 39.6908 50.292C39.5053 50.1488 39.2107 50.0771 38.807 50.0771H37.7816V51.8691ZM46.4475 51.3418L47.7805 48.8906H49.465L47.3947 52.416L49.5187 56H47.8146L46.4475 53.5098L45.0803 56H43.3762L45.5002 52.416L43.4299 48.8906H45.1145L46.4475 51.3418ZM57.1738 52.6064C57.1738 53.3063 57.0501 53.9199 56.8027 54.4473C56.5553 54.9746 56.2005 55.3815 55.7383 55.668C55.2793 55.9544 54.752 56.0977 54.1562 56.0977C53.5671 56.0977 53.0413 55.9561 52.5791 55.6729C52.1169 55.3896 51.7588 54.986 51.5049 54.4619C51.251 53.9346 51.1224 53.3291 51.1191 52.6455V52.2939C51.1191 51.5941 51.2445 50.9788 51.4951 50.4482C51.749 49.9144 52.1055 49.5059 52.5645 49.2227C53.0267 48.9362 53.554 48.793 54.1465 48.793C54.7389 48.793 55.2646 48.9362 55.7236 49.2227C56.1859 49.5059 56.5423 49.9144 56.793 50.4482C57.0469 50.9788 57.1738 51.5924 57.1738 52.2891V52.6064ZM55.6895 52.2842C55.6895 51.5387 55.556 50.9723 55.2891 50.585C55.0221 50.1976 54.6413 50.0039 54.1465 50.0039C53.6549 50.0039 53.2757 50.196 53.0088 50.5801C52.7419 50.9609 52.6068 51.5208 52.6035 52.2598V52.6064C52.6035 53.3324 52.737 53.8955 53.0039 54.2959C53.2708 54.6963 53.6549 54.8965 54.1562 54.8965C54.6478 54.8965 55.0254 54.7044 55.2891 54.3203C55.5527 53.9329 55.6862 53.3698 55.6895 52.6309V52.2842ZM65.8641 57.748H64.5115V56H60.2244V57.7432H58.8377L58.7596 54.8232H59.2967C59.5864 54.5824 59.8094 54.2292 59.9656 53.7637C60.1251 53.2949 60.2325 52.7155 60.2879 52.0254L60.493 48.8906H65.1512V54.8232H65.9812L65.8641 57.748ZM60.9764 54.8232H63.6863V50.0771H61.8846L61.7625 51.9473C61.6648 53.2005 61.4028 54.1592 60.9764 54.8232Z" fill="white"/>
</svg>